<?xml version="1.0" encoding="UTF-8" standalone="no"?>
<!-- Created with Inkscape (http://www.inkscape.org/) -->

<svg
   xmlns:dc="http://purl.org/dc/elements/1.1/"
   xmlns:cc="http://creativecommons.org/ns#"
   xmlns:rdf="http://www.w3.org/1999/02/22-rdf-syntax-ns#"
   xmlns:svg="http://www.w3.org/2000/svg"
   xmlns="http://www.w3.org/2000/svg"
   xmlns:sodipodi="http://sodipodi.sourceforge.net/DTD/sodipodi-0.dtd"
   xmlns:inkscape="http://www.inkscape.org/namespaces/inkscape"
   id="svg3495"
   version="1.1"
   inkscape:version="0.91 r13725"
   width="399.00006"
   height="169.73506"
   viewBox="0 0 399.00006 169.73506"
   sodipodi:docname="cover.svg">
  <metadata
     id="metadata3501">
    <rdf:RDF>
      <cc:Work
         rdf:about="">
        <dc:format>image/svg+xml</dc:format>
        <dc:type
           rdf:resource="http://purl.org/dc/dcmitype/StillImage" />
        <dc:title />
      </cc:Work>
    </rdf:RDF>
  </metadata>
  <defs
     id="defs3499" />
  <sodipodi:namedview
     pagecolor="#ffffff"
     bordercolor="#666666"
     borderopacity="1"
     objecttolerance="10"
     gridtolerance="10"
     guidetolerance="10"
     inkscape:pageopacity="0"
     inkscape:pageshadow="2"
     inkscape:window-width="1387"
     inkscape:window-height="876"
     id="namedview3497"
     showgrid="false"
     fit-margin-top="0"
     fit-margin-left="0"
     fit-margin-right="0"
     fit-margin-bottom="0"
     inkscape:zoom="8.8822522"
     inkscape:cx="34.283944"
     inkscape:cy="36.5017"
     inkscape:window-x="53"
     inkscape:window-y="24"
     inkscape:window-maximized="1"
     inkscape:current-layer="svg3495" />
  <path
     style="fill:#000000"
     d="M 99.299996,169.67875 C 80.064073,168.34084 60.821709,164.51353 43.35,156.22298 36.925154,153.78039 29.884561,150.53066 22.87645,148.71017 16.056196,146.93849 9.2488406,146.58596 4.35,144.95411 c -10.460869,-5.20066 2.4231448,-9.99749 8.868749,-11.48042 23.72591,-5.13611 43.045643,13.16977 66.010007,14.27616 17.395979,1.73967 37.686514,1.71966 51.467024,-10.54825 9.90593,-14.55719 -13.63972,-15.02323 -22.5919,-13.63416 C 85.33041,122.3852 61.630128,124.11533 39.75,116.45411 26.68476,113.00006 19.188084,98.537723 23.42909,85.71911 c 4.065333,-17.856878 22.378527,-27.990164 39.138608,-31.365 31.685583,-8.216521 64.696852,-4.323937 96.516212,0.918171 17.36574,2.31409 36.33881,5.576863 52.76735,-2.300242 -9.99894,-9.067033 -16.82736,-26.191363 -6.57283,-37.512972 14.70474,-16.38589109 39.23562,-16.34145192 59.54594,-14.82277379 19.82731,3.18327419 42.14305,5.86185039 56.70068,21.07964679 13.77676,11.578981 29.12295,23.548902 48.06726,23.812805 8.82377,1.22033 24.19363,-4.402193 28.8728,0.555551 -24.25358,6.202957 -50.87574,4.963825 -73.35506,-6.430046 -21.43399,-9.342442 -44.55098,-13.765634 -67.87832,-15.539181 -9.11076,-0.14382 -21.03404,-0.0596 -27.31918,6.694541 10.71845,7.120644 25.68921,13.225125 26.55999,28.146392 0.86604,15.270211 -15.65768,21.55252 -27.72249,24.953438 -33.2943,9.315276 -67.80257,2.770763 -101.35925,-0.870116 -19.5001,-0.906825 -40.112498,-2.964205 -58.690753,4.314536 -4.858184,5.134189 20.205767,2.60671 26.092826,3.469782 19.829967,0.717933 43.571577,-1.63691 58.491147,14.064368 11.48833,14.86398 11.30333,39.51588 -5.83668,50.2663 -14.03738,9.5467 -31.09912,14.77129 -48.147344,14.52444 z"
     id="path3505"
     inkscape:connector-curvature="0"
     sodipodi:nodetypes="ccscccccccccccccccccccccccccc" />
  <path
     style="fill:#000000;stroke:#ffffff;stroke-width:0.1910418;stroke-miterlimit:4;stroke-dasharray:1.52833438, 1.52833438;stroke-dashoffset:0;stroke-opacity:1"
     d="m 141.74734,125.36561 c -0.48037,0.28323 -0.67621,0.31959 -1.07253,0.1991 -0.43006,-0.13076 -0.54702,-0.27028 -1.03461,-1.23457 l -0.54973,-1.08721 -0.76953,0.35093 c -0.98814,0.45065 -2.51646,0.71437 -3.85697,0.66551 -1.44821,-0.0528 -4.18763,-0.78948 -7.36748,-1.98131 -1.40191,-0.52542 -2.59802,-0.92911 -2.65801,-0.89708 -0.06,0.0321 -0.0543,0.31048 0.0125,0.61879 0.23391,1.0782 0.0208,1.5036 -0.81379,1.62486 -0.53852,0.0782 -0.71852,0.0519 -0.93287,-0.13722 -0.41429,-0.36532 -0.65684,-1.39495 -0.5053,-2.14512 0.0728,-0.36263 0.0944,-0.70324 0.047,-0.75704 -0.0473,-0.0538 -1.25798,-0.34621 -2.69012,-0.65002 -3.18025,-0.67478 -7.02685,-1.83706 -8.09614,-2.44728 -0.75045,-0.42822 -0.75715,-0.42943 -0.95706,-0.17106 -0.38421,0.49666 -1.43031,1.01278 -2.01469,0.99404 -1.45005,-0.0465 -2.72569,-1.47581 -2.69162,-3.01579 0.0151,-0.68489 0.36828,-1.56092 0.81314,-2.0176 0.27179,-0.27898 0.27571,-0.33803 0.0613,-0.92424 -1.6703,-4.56488 0.78226,-13.422352 4.44733,-16.061477 0.42688,-0.307384 0.46443,-0.376497 0.42633,-0.784247 -0.15038,-1.608178 0.26625,-2.479833 1.49748,-3.133538 0.75571,-0.401239 1.55324,-0.504718 2.25231,-0.292191 0.8007,0.243407 1.62043,1.248455 1.70256,2.08748 0.038,0.382895 0.0877,0.433303 0.46404,0.464779 2.27304,0.190138 5.5177,0.911268 9.42792,2.095351 1.71018,0.517976 2.3049,0.654238 2.37899,0.545468 0.0543,-0.07977 0.19735,-0.344338 0.3178,-0.587951 0.26963,-0.545357 0.92569,-1.094523 1.44359,-1.20835 0.35127,-0.0772 0.4367,-0.04144 0.89808,0.37516 0.47334,0.427469 0.4994,0.494888 0.36345,0.940414 -0.0801,0.264082 -0.30478,0.621086 -0.49831,0.79362 l -0.3519,0.313692 3.247,0.936269 c 2.52552,0.728244 3.51965,1.068539 4.47382,1.532201 2.27605,1.10564 4.03726,2.52459 4.93991,3.97995 l 0.33009,0.53224 0.51765,-0.34383 c 0.28469,-0.18907 0.80744,-0.41322 1.16167,-0.49802 1.02476,-0.24537 1.50449,0.0124 1.74982,0.94035 0.19114,0.72299 -0.0385,1.03846 -1.15544,1.58789 -1.45826,0.71728 -1.3925,0.62573 -1.26961,1.76756 0.40874,3.79749 -1.10017,9.21402 -3.39086,12.17263 -0.4655,0.60121 -0.47439,0.62796 -0.40173,1.20826 0.0409,0.32638 0.21092,0.91337 0.37801,1.30441 0.35134,0.82226 0.48577,1.43911 0.3851,1.76709 -0.0385,0.12689 -0.33519,0.38647 -0.65841,0.57704 z m 0.41041,-1.21484 c -0.0351,-0.17883 -0.21786,-0.70395 -0.40678,-1.16678 -0.18877,-0.46285 -0.34466,-0.96714 -0.34656,-1.12061 -0.004,-0.27087 -0.21035,-0.45764 -0.27422,-0.24741 -0.0172,0.0575 -0.41093,0.41405 -0.87437,0.79264 -0.46347,0.37854 -0.82443,0.76893 -0.80217,0.86752 0.27506,1.21737 1.07833,2.24887 1.66111,2.133 0.2959,-0.0589 0.29215,-0.083 -0.0839,-0.54049 -0.50393,-0.61293 -0.49122,-0.5906 -0.37176,-0.65437 0.056,-0.0299 0.2357,0.11925 0.39932,0.33146 0.29523,0.38284 0.68954,0.59085 0.9035,0.47664 0.17194,-0.0918 0.26629,-0.51153 0.19562,-0.87165 z m 5.52307,-18.99916 c -0.0532,-0.19404 -0.15536,-0.21059 -0.73182,-0.11923 -0.36836,0.0585 -0.65213,0.0483 -0.63065,-0.0224 0.0218,-0.0706 0.2715,-0.16367 0.55555,-0.20656 0.77991,-0.11782 0.58823,-0.57433 -0.25866,-0.61603 -0.39713,-0.0195 -1.93988,0.69911 -2.01231,0.93745 -0.0265,0.0875 0.0243,0.26749 0.11235,0.40011 0.0884,0.13256 0.24035,0.52676 0.33765,0.876 l 0.17697,0.63496 1.18219,-0.57782 c 1.15745,-0.56574 1.4031,-0.81867 1.26875,-1.30637 z m -2.43248,5.55881 c 0.0664,-1.76692 -0.0533,-2.91182 -0.4381,-4.19401 -1.13707,-3.78847 -4.73407,-6.23651 -11.54549,-7.857709 -1.40061,-0.333339 -4.69603,-1.205407 -7.32315,-1.937878 -5.7583,-1.605476 -7.2649,-1.889965 -9.81187,-1.852751 -3.15644,0.04611 -5.7172,1.65559 -7.35845,4.624921 -1.71476,3.102337 -2.71141,7.797417 -2.30774,10.871317 0.44223,3.36747 2.3669,5.70748 6.02725,7.32793 1.45901,0.6459 3.00314,1.09439 5.88027,1.70793 2.99136,0.6382 6.28855,1.61515 8.39243,2.48754 1.97956,0.82086 5.37644,1.86129 6.59768,2.02081 3.73227,0.48756 6.43991,-0.69618 8.62846,-3.7722 1.25958,-1.77038 1.65589,-2.6563 2.47512,-5.53286 0.6395,-2.24607 0.74041,-2.74687 0.78348,-3.89301 z m -24.72969,-3.2369 c -0.30894,0.27607 -0.34385,0.36012 -0.2551,0.61392 0.0568,0.16165 0.054,0.45479 -0.006,0.65122 -0.1438,0.47297 -0.70924,0.63228 -1.58397,0.44624 -0.58387,-0.12412 -0.731,-0.0998 -1.05551,0.17464 -0.77057,0.65187 -1.96698,0.13101 -2.15731,-0.93936 -0.0443,-0.24869 -0.2154,-0.55621 -0.38039,-0.68335 -0.98841,-0.7616 -0.31713,-3.05401 0.89131,-3.044 0.27836,0.002 0.56717,-0.12779 0.80245,-0.36124 0.75013,-0.74457 1.72811,-0.76611 2.22838,-0.0489 0.18834,0.26995 0.22128,0.48578 0.12346,0.80774 l -0.13359,0.43938 0.8134,0.2473 c 0.61414,0.1867 0.84493,0.31688 0.94219,0.53149 0.21752,0.48001 0.14931,0.82652 -0.22956,1.16503 z m -0.51709,0.69246 c -0.14858,-0.38146 -0.24309,-0.44288 -1.06709,-0.69338 l -0.90406,-0.27484 -0.0364,0.37404 c -0.0972,0.99946 -0.0267,1.14722 0.64486,1.35135 0.44007,0.13377 0.75158,0.14194 1.0454,0.0275 0.50429,-0.19643 0.52576,-0.24947 0.31723,-0.78477 z m 0.62793,-1.58771 c -0.0483,-0.24282 -0.19869,-0.33126 -0.95336,-0.56067 -0.97,-0.29485 -0.98594,-0.28861 -1.51702,0.59531 -0.1743,0.29014 -0.17241,0.2915 0.8226,0.59398 1.30087,0.39549 1.81258,0.20024 1.64777,-0.62865 z m -1.70707,-1.8143 c -0.081,-0.41183 -0.31488,-0.7415 -0.58913,-0.83061 -0.28923,-0.0939 -1.14481,0.28713 -1.52824,0.6807 -0.28227,0.28974 -0.29977,0.34877 -0.17874,0.60484 0.28315,0.60075 -0.18714,2.36135 -0.70455,2.6375 -0.32203,0.17185 -0.33155,0.52161 -0.027,0.99037 0.33288,0.51232 0.82437,0.71509 1.33155,0.54933 0.41088,-0.13381 0.57655,-0.57721 0.53856,-1.43879 -0.0352,-0.79861 0.21535,-1.54343 0.72658,-2.15982 0.50489,-0.60873 0.51166,-0.62498 0.43132,-1.03342 z m -4.73576,7.56713 c -1.0737,1.70815 -3.14823,2.19885 -4.91473,1.1625 -0.51674,-0.30317 -0.72771,-0.54715 -1.12935,-1.30626 -0.56725,-1.07205 -0.65167,-1.99025 -0.292,-3.17381 0.73159,-2.40658 3.30252,-3.44537 5.33368,-2.15506 1.69089,1.07414 2.15933,3.6319 1.00229,5.47264 z m 0.36969,-2.76699 c -0.17499,-1.44124 -0.97333,-2.45417 -2.23132,-2.83114 -1.92489,-0.57671 -3.61458,0.32786 -4.21275,2.25562 -0.6794,2.18955 0.17226,4.06906 2.11095,4.6584 2.45242,0.74546 4.66611,-1.34038 4.33312,-4.08288 z m -3.09997,3.41413 c -0.61877,0.30066 -1.2383,0.0864 -1.5752,-0.54478 -0.49862,-0.93412 0.23936,-1.75852 1.28862,-1.43957 1.03767,0.31544 1.21365,1.5339 0.28658,1.98435 z m -0.0835,-1.61588 c -0.13062,-0.0138 -0.26329,0.06 -0.29484,0.16384 -0.0321,0.10376 0.0376,0.23889 0.1538,0.30018 0.14817,0.0781 0.23616,0.0292 0.29485,-0.16384 0.0592,-0.19293 0.0128,-0.28264 -0.1538,-0.30017 z m 5.26925,-8.24819 c -1.69605,3.10714 -6.17334,2.1459 -6.60817,-1.41828 -0.0985,-0.80747 0.20161,-2.194186 0.61908,-2.86114 0.45121,-0.720685 1.35831,-1.316675 2.29583,-1.508415 1.07499,-0.219861 2.48586,0.159124 3.1858,0.855814 1.159,1.153535 1.3827,3.328711 0.50731,4.932471 z m 0.31366,-1.98004 c 0.13131,-1.562337 -0.82051,-3.054873 -2.21933,-3.4801 -1.35331,-0.411393 -2.60483,-0.108785 -3.49329,0.844673 -0.49444,0.530613 -0.57749,0.700478 -0.81363,1.664237 -0.29393,1.1996 -0.23126,1.89494 0.25492,2.82787 1.13457,2.17712 4.02796,2.38399 5.47374,0.39136 0.51272,-0.7067 0.71622,-1.28031 0.79757,-2.24804 z m -2.76374,2.58617 c -0.36255,0.34113 -0.69084,0.41098 -1.21091,0.25762 -1.12116,-0.33054 -1.1423,-1.8349 -0.0286,-2.04001 0.64692,-0.11908 1.06244,0.07 1.35393,0.61604 0.27792,0.52072 0.24807,0.82534 -0.11435,1.16635 z m -0.32204,-1.33361 c -0.18517,-0.14417 -0.3374,-0.0868 -0.41058,0.15396 -0.0293,0.0939 0.0632,0.20609 0.20441,0.24887 0.29146,0.0888 0.44705,-0.2153 0.20615,-0.40284 z m 10.36869,19.6651 c -0.13919,-0.85803 -0.26871,-0.99998 -1.16352,-1.27514 -0.62798,-0.19307 -0.68665,-0.11001 -0.68967,0.97556 -0.002,0.75263 0.35221,1.58072 0.72477,1.69397 0.19862,0.0607 0.24957,0.008 0.26328,-0.27006 0.0197,-0.39962 0.14484,-0.41095 0.27965,-0.0253 0.0798,0.22668 0.1337,0.25153 0.35198,0.15983 0.35181,-0.14781 0.38489,-0.32603 0.23347,-1.2589 z m 7.83746,-25.710714 c -0.11866,-0.179987 -0.20025,-0.194997 -0.44145,-0.08131 -0.40164,0.189309 -0.52093,0.130789 -0.23748,-0.116539 0.30983,-0.270348 0.19043,-0.451402 -0.28427,-0.430957 -0.44075,0.01898 -1.13528,0.635462 -1.49104,1.32344 l -0.23608,0.456511 0.77553,0.150921 c 1.07427,0.209033 1.08745,0.206303 1.55245,-0.3226 0.50371,-0.572902 0.54924,-0.696019 0.3623,-0.97949 z m -22.18192,20.215194 -0.58016,-0.41054 -0.36233,0.25279 c -0.64919,0.45293 -1.6065,-0.12243 -1.43627,-0.86321 0.0308,-0.13409 0.13141,-0.37835 0.22363,-0.54287 0.13746,-0.2454 0.0862,-0.43426 -0.28439,-1.05074 l -0.45196,-0.75159 -0.33347,0.40331 c -0.37579,0.45448 -0.69366,1.37259 -0.65766,1.89953 0.0396,0.57114 0.546,1.54626 1.02144,1.96456 0.87162,0.76684 1.9319,0.80565 2.8565,0.10454 0.28866,-0.21888 0.53833,-0.44236 0.55481,-0.49662 0.0164,-0.0543 -0.23108,-0.28337 -0.55017,-0.50916 z m 6.25706,-23.597327 c -0.62817,-0.680277 -1.36529,-0.867758 -2.39213,-0.608416 -1.36096,0.343727 -2.11829,1.369931 -2.00308,2.714192 0.0273,0.317928 0.0838,0.588472 0.1257,0.601186 0.21813,0.0662 1.18222,-0.57724 1.26303,-0.843061 0.22093,-0.726881 1.0659,-0.970726 1.58992,-0.458839 0.24051,0.23497 0.39875,0.268589 1.19214,0.253336 l 0.9148,-0.01765 -0.1292,-0.586603 c -0.0713,-0.323223 -0.3231,-0.796547 -0.5611,-1.054219 z"
     id="path4424"
     inkscape:connector-curvature="0" />
  <path
     style="fill:#000000;stroke:#ffffff;stroke-width:0.2;stroke-miterlimit:4;stroke-dasharray:1.6, 1.6;stroke-dashoffset:0;stroke-opacity:1"
     d="m 99.832646,52.179629 c 0.463464,-0.393138 0.667054,-0.468448 1.115024,-0.412444 0.48609,0.06077 0.6375,0.188978 1.33975,1.134339 l 0.79173,1.065822 0.76144,-0.519377 c 0.97783,-0.666975 2.57037,-1.233182 4.01909,-1.42893 1.56512,-0.211473 4.64362,0.07245 8.2794,0.763591 1.60292,0.304703 2.96227,0.516771 3.02078,0.471263 0.0586,-0.04551 8.6e-4,-0.343516 -0.12799,-0.662251 -0.45089,-1.114649 -0.30085,-1.610953 0.57309,-1.895761 0.56388,-0.183751 0.76211,-0.188645 1.0273,-0.02536 0.51258,0.315605 0.96371,1.376521 0.93988,2.21025 -0.0115,0.402942 0.0288,0.772735 0.0898,0.821745 0.0609,0.04901 1.41516,0.139006 3.00952,0.199942 3.54049,0.135347 7.88686,0.671801 9.14828,1.129152 0.88523,0.320954 0.89266,0.320998 1.05951,0.0064 0.32067,-0.604549 1.34859,-1.352584 1.97969,-1.440658 1.56592,-0.218535 3.2006,1.080269 3.44916,2.740486 0.11057,0.738362 -0.10641,1.744595 -0.49967,2.317426 -0.24025,0.349954 -0.23352,0.414118 0.10531,1.00396 2.63916,4.593308 1.64531,14.560176 -1.80217,18.073233 -0.40152,0.409154 -0.42908,0.490345 -0.31264,0.921203 0.45922,1.699322 0.17323,2.71259 -1.02802,3.642638 -0.73732,0.570859 -1.5747,0.829661 -2.36483,0.730876 -0.905,-0.113143 -1.97148,-1.040751 -2.21505,-1.92664 -0.11125,-0.404318 -0.1745,-0.449104 -0.58446,-0.413233 -2.47637,0.216681 -6.09462,0.04303 -10.51337,-0.504585 -1.9326,-0.239653 -2.59656,-0.275815 -2.656,-0.145296 -0.0436,0.09571 -0.14817,0.406349 -0.23242,0.690289 -0.1886,0.635625 -0.79151,1.346904 -1.32664,1.565054 -0.36296,0.147967 -0.46131,0.125462 -1.03399,-0.236609 -0.58752,-0.371448 -0.62799,-0.439022 -0.56451,-0.942665 0.0375,-0.298393 0.21231,-0.723473 0.38823,-0.944609 l 0.31985,-0.402068 -3.6606,-0.404279 c -2.84721,-0.314466 -3.9779,-0.495848 -5.08852,-0.817144 -2.64916,-0.765952 -4.8034,-1.963753 -6.04232,-3.359642 l -0.45307,-0.510482 -0.49226,0.465126 c -0.270764,0.255817 -0.790694,0.593301 -1.155404,0.749964 -1.05518,0.453242 -1.61811,0.265204 -2.05338,-0.685885 -0.33917,-0.741096 -0.15105,-1.122398 0.94686,-1.919327 1.43332,-1.040373 1.37966,-0.929877 1.03623,-2.133413 -1.14212,-4.002754 -0.52464,-10.099392 1.387704,-13.701061 0.38861,-0.731891 0.3932,-0.762264 0.20779,-1.372022 -0.10432,-0.342956 -0.39569,-0.941863 -0.647544,-1.330899 -0.52955,-0.818041 -0.78815,-1.455645 -0.74078,-1.826531 0.0184,-0.143365 0.28842,-0.477105 0.60025,-0.74163 z m -0.21583,1.380688 c 0.0707,0.185632 0.3645,0.715633 0.652894,1.177796 0.28841,0.462155 0.54926,0.97487 0.5797,1.139367 0.0536,0.290287 0.31063,0.452539 0.34032,0.214934 0.008,-0.06486 0.36465,-0.520789 0.7923,-1.013181 0.42764,-0.492389 0.74302,-0.978499 0.70086,-1.08024 -0.52082,-1.256517 -1.57454,-2.215584 -2.17896,-1.983219 -0.30689,0.117986 -0.2984,0.143196 0.19028,0.564901 0.65467,0.564956 0.63692,0.543337 0.52042,0.633943 -0.0547,0.04247 -0.27521,-0.08445 -0.49024,-0.28203 -0.38799,-0.356506 -0.849974,-0.506898 -1.058624,-0.344613 -0.16767,0.130402 -0.19124,0.598686 -0.049,0.972342 z m -2.41353,21.427418 c 0.0932,0.198432 0.20589,0.197392 0.80804,-0.0074 0.38479,-0.130893 0.69145,-0.172577 0.68146,-0.09264 -0.0104,0.07994 -0.26127,0.226071 -0.55838,0.324732 -0.81582,0.270891 -0.52541,0.725735 0.39184,0.613713 0.43009,-0.05254 1.953894,-1.110067 1.987574,-1.379407 0.0124,-0.09887 -0.0752,-0.282874 -0.19475,-0.408898 -0.11948,-0.126012 -0.355654,-0.521254 -0.524824,-0.87831 l -0.30759,-0.649184 -1.16264,0.839482 c -1.13833,0.821929 -1.35532,1.139043 -1.12073,1.637931 z m 1.5831,-6.420443 c 0.25589,1.909925 0.59632,3.117373 1.247054,4.423159 1.92276,3.858166 6.23914,5.821259 13.85466,6.301112 1.56593,0.09866 5.26663,0.425011 8.22376,0.725204 6.48156,0.657973 8.15231,0.684524 10.88082,0.172936 3.38143,-0.634009 5.83359,-2.836731 7.04642,-6.329651 1.26716,-3.649378 1.46813,-8.876338 0.46537,-12.102911 -1.09852,-3.534697 -3.59887,-5.691421 -7.83006,-6.753953 -1.68656,-0.423526 -3.42801,-0.619255 -6.63157,-0.745369 -3.33086,-0.13112 -7.05285,-0.570156 -9.47391,-1.117527 -2.27802,-0.515021 -6.11885,-1.003424 -7.45999,-0.948592 -4.09866,0.167497 -6.7874,1.940182 -8.56827,5.649038 -1.024954,2.134585 -1.286534,3.15943 -1.633704,6.400499 -0.27106,2.530622 -0.28658,3.087189 -0.12058,4.326078 z m 27.158554,-1.10289 c 0.28064,-0.353707 0.30259,-0.450413 0.16032,-0.706593 -0.0906,-0.163245 -0.14215,-0.478438 -0.1144,-0.700444 0.0668,-0.534583 0.64462,-0.810394 1.61851,-0.772597 0.65004,0.02524 0.80357,-0.02818 1.10122,-0.383066 0.70688,-0.842792 2.08827,-0.50486 2.49087,0.609343 0.0935,0.258927 0.33433,0.557489 0.53506,0.663473 1.20254,0.634935 0.90614,3.22122 -0.3936,3.434261 -0.29935,0.04907 -0.5855,0.242196 -0.7949,0.536543 -0.66776,0.938566 -1.7141,1.142794 -2.38416,0.465346 -0.25225,-0.255041 -0.32764,-0.480725 -0.28214,-0.844644 l 0.0622,-0.496613 -0.91934,-0.114935 c -0.69416,-0.08679 -0.96614,-0.183866 -1.11032,-0.39634 -0.3225,-0.475258 -0.31336,-0.860041 0.0308,-1.293735 z m 0.42712,-0.839442 c 0.2302,0.382179 0.34309,0.430632 1.27442,0.547069 l 1.02184,0.127753 -0.0298,-0.408489 c -0.0807,-1.091388 -0.18376,-1.23703 -0.94279,-1.331919 -0.49738,-0.06218 -0.83345,-0.01332 -1.12783,0.163995 -0.50524,0.304323 -0.51846,0.365319 -0.19545,0.90156 z m -0.38038,1.821438 c 0.0969,0.251838 0.27472,0.318986 1.12768,0.42563 1.09637,0.137064 1.11233,0.127386 1.51903,-0.92027 0.13348,-0.343881 0.13119,-0.345002 -0.99343,-0.485602 -1.47036,-0.183827 -1.98377,0.120581 -1.65328,0.980242 z m 2.1693,1.632415 c 0.16329,0.427297 0.47546,0.738073 0.78652,0.782981 0.32801,0.04733 1.17633,-0.520368 1.51525,-1.014054 0.24952,-0.363443 0.25737,-0.430078 0.0804,-0.682638 -0.41533,-0.592749 -0.23623,-2.570704 0.26825,-2.963081 0.314,-0.244226 0.25949,-0.621587 -0.15444,-1.068637 -0.45235,-0.48859 -1.01778,-0.615343 -1.53176,-0.343399 -0.41629,0.22025 -0.51234,0.726672 -0.31199,1.644968 0.18571,0.851151 0.0545,1.697475 -0.38039,2.454127 -0.42952,0.747266 -0.43379,0.765985 -0.27186,1.189734 z m 3.6849,-9.003877 c 0.83682,-2.033336 2.97395,-2.944472 5.06305,-2.158558 0.61111,0.229902 0.88285,0.452879 1.45476,1.193764 0.80773,1.046343 1.06844,2.01682 0.90119,3.354588 -0.34006,2.720085 -2.90882,4.311779 -5.32918,3.302134 -2.01489,-0.84051 -2.99162,-3.500755 -2.08982,-5.691928 z m 0.11532,3.040164 c 0.45482,1.515465 1.49979,2.455502 2.92063,2.627386 2.17407,0.263023 3.82126,-1.021524 4.10673,-3.202549 0.32424,-2.477333 -0.93851,-4.338191 -3.12973,-4.612138 -2.77185,-0.346539 -4.76309,2.30357 -3.89763,5.187301 z m 2.6971,-4.240733 c 0.60888,-0.437478 1.31393,-0.322083 1.79263,0.293396 0.70845,0.910904 0.0686,1.932939 -1.11739,1.784677 -1.17288,-0.146631 -1.58747,-1.422629 -0.67524,-2.078073 z m 0.38891,1.719947 c 0.14282,-0.0094 0.27166,-0.113152 0.28634,-0.230503 0.0147,-0.11735 -0.0847,-0.249611 -0.22079,-0.293903 -0.17362,-0.05649 -0.25905,0.01225 -0.28635,0.230501 -0.0272,0.21823 0.0386,0.305928 0.2208,0.293905 z m -4.13173,9.834109 c 1.24616,-3.651058 6.23266,-3.447773 7.35962,0.30003 0.25528,0.848978 0.18902,2.393913 -0.13516,3.187449 -0.35111,0.85754 -1.21496,1.665595 -2.18633,2.045126 -1.11384,0.435186 -2.69924,0.289419 -3.57998,-0.329164 -1.45833,-1.024263 -2.10136,-3.318931 -1.45815,-5.203441 z m 0.0297,2.184617 c 0.14832,1.702222 1.44689,3.128926 3.02794,3.326586 1.52962,0.191235 2.81766,-0.36551 3.59531,-1.55402 0.43276,-0.661419 0.4905,-0.859232 0.56564,-1.938013 0.0935,-1.342796 -0.10248,-2.07795 -0.79743,-2.989871 -1.62165,-2.128098 -4.76741,-1.814498 -5.95114,0.593274 -0.4198,0.853914 -0.53215,1.507659 -0.44032,2.562044 z m 2.48932,-3.289272 c 0.3262,-0.433489 0.66584,-0.569299 1.2528,-0.500909 1.2653,0.14745 1.56658,1.759134 0.40852,2.185632 -0.67269,0.247748 -1.15396,0.121642 -1.56815,-0.410915 -0.39492,-0.507773 -0.41925,-0.840454 -0.0934,-1.273789 z m 0.59279,1.372645 c 0.2256,0.120559 0.37841,0.03112 0.41247,-0.241394 0.0133,-0.106253 -0.10627,-0.209487 -0.26563,-0.229417 -0.32947,-0.04119 -0.44024,0.31402 -0.14684,0.470811 z m -14.7771,-19.199946 c 0.30842,0.895743 0.47381,1.024201 1.48575,1.154017 0.71013,0.09123 0.7578,-0.0089 0.56001,-1.175413 -0.1371,-0.808701 -0.67095,-1.632445 -1.09204,-1.685089 -0.2246,-0.02807 -0.26957,0.03739 -0.23275,0.338794 0.0529,0.432832 -0.0795,0.468178 -0.29568,0.07895 -0.12716,-0.228937 -0.19013,-0.245394 -0.40761,-0.106512 -0.35048,0.22384 -0.35298,0.421399 -0.0177,1.395247 z m -3.65636,29.064074 c 0.16079,0.171316 0.25116,0.172355 0.48916,0.0056 0.39629,-0.277685 0.53524,-0.236921 0.27663,0.08118 -0.2827,0.347717 -0.12089,0.52006 0.38511,0.410196 0.46983,-0.102001 1.1016,-0.892696 1.35628,-1.697441 l 0.169,-0.534001 -0.86084,-0.01848 c -1.19244,-0.02559 -1.2061,-0.02019 -1.60757,0.633929 -0.43488,0.708567 -0.461,0.84922 -0.20778,1.119036 z m 20.07961,-25.81815 0.69911,0.333451 0.34233,-0.338582 c 0.61336,-0.606651 1.74801,-0.165983 1.70237,0.661138 -0.008,0.149663 -0.0711,0.430657 -0.13964,0.624428 -0.10228,0.28899 -0.0124,0.482345 0.49993,1.075824 l 0.62459,0.723511 0.28345,-0.494895 c 0.31945,-0.557692 0.49081,-1.602568 0.35458,-2.161839 -0.14767,-0.606231 -0.8727,-1.559548 -1.46079,-1.920743 -1.07811,-0.662171 -2.22401,-0.507514 -3.08718,0.41666 -0.26949,0.288519 -0.49623,0.574754 -0.5039,0.636082 -0.007,0.06132 0.30065,0.261564 0.68515,0.444965 z m -2.35038,26.501652 c 0.80062,0.614287 1.627,0.679143 2.68176,0.21048 1.398,-0.621168 2.02134,-1.863528 1.64868,-3.285907 -0.0881,-0.336404 -0.19896,-0.616483 -0.24629,-0.6224 -0.24651,-0.03083 -1.16279,0.838864 -1.20036,1.139312 -0.10269,0.821574 -0.96499,1.239913 -1.62256,0.787187 -0.30185,-0.207808 -0.47801,-0.214619 -1.32726,-0.05132 l -0.97922,0.188293 0.24745,0.606042 c 0.13636,0.333949 0.49456,0.795629 0.7978,1.028314 z"
     id="path4424-3"
     inkscape:connector-curvature="0" />
  <path
     style="fill:#000000;stroke:#ffffff;stroke-width:0.2;stroke-miterlimit:4;stroke-dasharray:1.6, 1.6;stroke-dashoffset:0;stroke-opacity:1"
     d="m 208.02562,62.280069 c 0.18152,-0.547733 0.3094,-0.709382 0.70025,-0.885294 0.42415,-0.190897 0.61025,-0.161761 1.64669,0.257769 l 1.16851,0.472983 0.36075,-0.797308 c 0.46328,-1.023883 1.47476,-2.269784 2.55264,-3.144248 1.16449,-0.944749 3.80078,-2.235526 7.0901,-3.471479 1.45017,-0.544897 2.65708,-1.044555 2.68203,-1.110367 0.0249,-0.0659 -0.16899,-0.278969 -0.43097,-0.473701 -0.91628,-0.680971 -1.03983,-1.157517 -0.47196,-1.820216 0.3664,-0.427564 0.52469,-0.529485 0.82039,-0.52811 0.57151,0.0026 1.46145,0.639917 1.8539,1.327885 0.18973,0.332386 0.40518,0.612262 0.47873,0.621932 0.0735,0.0097 1.21607,-0.586475 2.53885,-1.324782 2.93745,-1.639501 6.72649,-3.351949 7.97516,-3.604353 0.87633,-0.17715 0.88237,-0.180782 0.86224,-0.518241 -0.0387,-0.648598 0.42515,-1.762953 0.89332,-2.146166 1.16167,-0.950853 3.12873,-0.705448 4.15051,0.517823 0.45444,0.544036 0.77569,1.467072 0.73984,2.125808 -0.0218,0.402449 0.0153,0.451128 0.58147,0.761933 4.40919,2.42026 8.52769,10.99229 7.46821,15.543901 -0.12337,0.530128 -0.10562,0.609566 0.20164,0.901365 1.21191,1.15091 1.48068,2.113735 0.9662,3.461317 -0.31575,0.827135 -0.86682,1.450678 -1.55626,1.760961 -0.78967,0.355403 -2.11265,0.130216 -2.74783,-0.467698 -0.28992,-0.272871 -0.36338,-0.277912 -0.67802,-0.04629 -1.90075,1.399179 -4.92018,3.046049 -8.77339,4.785203 -1.68533,0.760527 -2.24153,1.059255 -2.22524,1.194439 0.0119,0.0991 0.0806,0.402669 0.1526,0.674502 0.16114,0.608538 0.0237,1.483119 -0.30242,1.924367 -0.22089,0.299509 -0.312,0.329667 -0.95524,0.31903 -0.65987,-0.0109 -0.72609,-0.04568 -0.92344,-0.485401 -0.11695,-0.260517 -0.18531,-0.69148 -0.15192,-0.957689 l 0.0608,-0.484 -3.1677,1.480783 c -2.46383,1.151758 -3.47019,1.563328 -4.5294,1.851552 -2.52636,0.687838 -4.86477,0.781026 -6.55893,0.261348 l -0.61956,-0.190036 -0.16937,0.62033 c -0.0931,0.341173 -0.34794,0.871683 -0.56625,1.178912 -0.63143,0.888918 -1.18091,1.014471 -2.00372,0.458389 -0.64113,-0.433323 -0.67684,-0.835542 -0.18057,-2.02397 0.6481,-1.551674 0.65918,-1.435578 -0.2139,-2.241715 -2.90364,-2.681091 -5.41514,-7.929234 -5.64409,-11.794245 -0.0465,-0.785417 -0.0579,-0.812308 -0.50941,-1.215069 -0.25402,-0.226527 -0.7864,-0.567817 -1.18258,-0.759128 -0.83354,-0.401615 -1.35821,-0.790813 -1.50304,-1.114943 -0.056,-0.12531 -0.002,-0.529333 0.1203,-0.897864 z m 0.50716,1.226076 c 0.14927,0.115227 0.64908,0.400144 1.11126,0.632363 0.46219,0.232204 0.92698,0.519046 1.03294,0.637369 0.18697,0.208818 0.47543,0.213455 0.38212,0.0061 -0.0254,-0.05659 0.0383,-0.602416 0.14131,-1.212968 0.10346,-0.610518 0.11899,-1.160468 0.0345,-1.22212 -1.04296,-0.761599 -2.37125,-1.018443 -2.7465,-0.531421 -0.19082,0.247095 -0.17117,0.263556 0.43335,0.364043 0.80992,0.134604 0.78485,0.12585 0.73516,0.256857 -0.0233,0.06145 -0.26485,0.06752 -0.53682,0.01356 -0.49071,-0.09737 -0.93958,0.0089 -1.02859,0.243615 -0.0715,0.188591 0.14075,0.579893 0.44074,0.812546 z m 8.62973,18.565492 c 0.17363,0.114843 0.26444,0.05832 0.65146,-0.405247 0.24735,-0.296239 0.47536,-0.481554 0.50667,-0.411897 0.0314,0.06975 -0.10013,0.312394 -0.29228,0.539178 -0.52759,0.622704 -0.0674,0.847994 0.62091,0.303983 0.32276,-0.255107 1.03575,-1.865375 0.92997,-2.100391 -0.0388,-0.08624 -0.20078,-0.192151 -0.35989,-0.235335 -0.15916,-0.0431 -0.54589,-0.246912 -0.85946,-0.452831 l -0.57014,-0.374375 -0.52788,1.255067 c -0.51687,1.228815 -0.5361,1.59313 -0.0994,1.88173 z m -1.88859,-5.987763 c 1.1511,1.422119 2.02367,2.2329 3.19643,2.970098 3.46514,2.178176 7.93468,1.63725 14.34634,-1.736273 1.31837,-0.693674 4.48008,-2.257465 7.02599,-3.475104 5.58026,-2.66884 6.94799,-3.472769 8.90747,-5.235618 2.42837,-2.18471 3.32824,-5.18217 2.58586,-8.613411 -0.77565,-3.58492 -3.19515,-7.922165 -5.60234,-10.042785 -2.63704,-2.323138 -5.72985,-2.836433 -9.68541,-1.607424 -1.57669,0.489878 -3.08531,1.19156 -5.74503,2.6721 -2.76541,1.539352 -6.00004,3.022295 -8.23345,3.774673 -2.10144,0.707916 -5.45683,2.209543 -6.51714,2.916573 -3.24038,2.160817 -4.54455,4.926508 -4.15603,8.813457 0.22362,2.237086 0.51788,3.197256 1.8377,5.996589 1.03053,2.185714 1.29293,2.644637 2.0396,3.567105 z m 21.47485,-14.312341 c 0.053,-0.425428 0.0229,-0.514703 -0.21913,-0.652103 -0.15417,-0.08751 -0.3516,-0.317699 -0.4388,-0.511383 -0.20995,-0.466451 0.12242,-0.975532 0.93055,-1.426054 0.53953,-0.300713 0.63763,-0.419863 0.70364,-0.854636 0.15668,-1.032574 1.44372,-1.441085 2.32063,-0.736613 0.20378,0.163708 0.5465,0.286815 0.76161,0.273578 1.28871,-0.07935 2.32618,2.164032 1.37763,2.978917 -0.21853,0.187656 -0.355,0.485664 -0.37942,0.827759 -0.0776,1.090897 -0.82515,1.773445 -1.70312,1.555221 -0.33053,-0.08215 -0.50316,-0.22788 -0.64605,-0.545433 l -0.19503,-0.433315 -0.80218,0.361028 c -0.6057,0.272599 -0.87416,0.328248 -1.09604,0.227231 -0.49629,-0.225997 -0.67897,-0.542525 -0.61425,-1.064157 z m -0.0684,-0.891636 c 0.37548,0.196113 0.49093,0.179648 1.30359,-0.186087 l 0.8916,-0.401285 -0.22628,-0.316249 c -0.60465,-0.845026 -0.76021,-0.912152 -1.42246,-0.614107 -0.434,0.195327 -0.68233,0.400985 -0.83341,0.69018 -0.25927,0.496375 -0.23986,0.55235 0.28696,0.827542 z m 0.59152,1.664735 c 0.20288,0.156405 0.38032,0.122905 1.12459,-0.212067 0.95664,-0.430536 0.96481,-0.446277 0.77693,-1.496638 -0.0616,-0.344761 -0.0641,-0.344537 -1.04538,0.0971 -1.28297,0.57742 -1.54883,1.077872 -0.85614,1.611607 z m 2.56536,0.251756 c 0.34349,0.265764 0.75016,0.363501 1.02454,0.246233 0.28933,-0.123687 0.69665,-1.003101 0.72753,-1.570821 0.0227,-0.417943 -0.004,-0.475862 -0.27209,-0.593195 -0.6296,-0.275391 -1.46165,-1.967562 -1.24647,-2.534949 0.134,-0.353149 -0.0967,-0.632179 -0.65318,-0.790148 -0.60816,-0.172643 -1.12922,0.0039 -1.4116,0.478379 -0.22868,0.384251 -0.0563,0.842301 0.55978,1.487854 0.57109,0.598352 0.88286,1.349345 0.90408,2.177718 0.021,0.818074 0.0267,0.835365 0.3674,1.098932 z m -1.46086,-9.120798 c -0.32612,-2.062049 0.95647,-3.856681 3.03858,-4.251619 0.60906,-0.11553 0.93955,-0.069 1.76932,0.249125 1.17184,0.449294 1.8627,1.107331 2.38804,2.274607 1.06818,2.373419 -0.22813,4.933094 -2.68935,5.310296 -2.0489,0.314013 -4.15518,-1.360306 -4.50659,-3.582408 z m 1.59555,2.40794 c 1.1175,1.003999 2.42918,1.249896 3.66611,0.687251 1.89266,-0.860879 2.59352,-2.716195 1.74739,-4.625575 -0.96108,-2.16878 -2.90428,-3.053659 -4.81623,-2.193156 -2.4186,1.088514 -2.72374,4.22098 -0.59727,6.13148 z m 0.0915,-4.770884 c 0.27753,-0.655525 0.90618,-0.910303 1.59838,-0.647781 1.02445,0.388516 1.01059,1.533335 -0.0242,1.999051 -1.02338,0.460591 -1.98999,-0.369131 -1.57418,-1.35127 z m 1.16508,1.202368 c 0.11114,-0.07821 0.16418,-0.226102 0.1183,-0.32836 -0.046,-0.102428 -0.19195,-0.16057 -0.3242,-0.129218 -0.16868,0.03997 -0.20395,0.137933 -0.1183,0.32836 0.0857,0.190423 0.18228,0.229118 0.32421,0.129229 z m 1.50877,10.01471 c -0.79351,-3.575916 3.34993,-5.87477 6.11531,-3.392894 0.62645,0.562169 1.33659,1.84713 1.46524,2.651117 0.139,0.868753 -0.16222,1.950715 -0.76223,2.738361 -0.68804,0.903171 -2.04552,1.568258 -3.06521,1.501858 -1.68847,-0.109946 -3.34354,-1.65272 -3.75311,-3.498442 z m 1.10349,1.756539 c 0.96124,1.306879 2.719,1.822032 4.09855,1.20115 1.33468,-0.600683 2.10395,-1.688463 2.14722,-3.036335 0.0241,-0.75008 -0.0268,-0.938989 -0.49889,-1.85077 -0.58761,-1.134937 -1.10979,-1.634112 -2.12377,-2.030164 -2.36622,-0.924228 -4.76181,0.884257 -4.53197,3.42128 0.0815,0.89974 0.31342,1.485305 0.90881,2.294808 z m 0.39322,-3.896787 c 0.0505,-0.51261 0.25857,-0.790554 0.76828,-1.025054 1.09875,-0.505602 2.1393,0.652293 1.41109,1.570234 -0.42297,0.533268 -0.87552,0.668771 -1.47447,0.441603 -0.57107,-0.216569 -0.75517,-0.474265 -0.70487,-0.986757 z m 1.15878,0.820076 c 0.24245,-0.01372 0.32215,-0.161725 0.21512,-0.399531 -0.0418,-0.09269 -0.18963,-0.117399 -0.32873,-0.05477 -0.28747,0.129384 -0.2018,0.472109 0.11358,0.454276 z m -21.4672,-8.266136 c 0.69263,0.573867 0.89016,0.596346 1.77478,0.201615 0.62086,-0.276888 0.61003,-0.381635 -0.12667,-1.2297 -0.5107,-0.587946 -1.35049,-0.992122 -1.71796,-0.826702 -0.19596,0.0882 -0.2001,0.163491 -0.0213,0.389688 0.25671,0.324804 0.16688,0.418862 -0.20067,0.210145 -0.21624,-0.122744 -0.27538,-0.105056 -0.38309,0.115016 -0.17357,0.354659 -0.078,0.516068 0.675,1.139991 z m 11.39507,25.371231 c 0.21498,0.0595 0.28878,0.01564 0.39937,-0.237148 0.18408,-0.420965 0.31721,-0.456315 0.26437,-0.07088 -0.0577,0.421552 0.15891,0.481389 0.51491,0.142316 0.33052,-0.314848 0.4521,-1.268052 0.26102,-2.046365 l -0.12682,-0.516446 -0.70708,0.410326 c -0.97946,0.568396 -0.98788,0.57952 -0.99021,1.308219 -0.002,0.789366 0.0458,0.916299 0.38444,1.009949 z m 3.52437,-30.853667 0.73158,-0.07504 0.11031,-0.443642 c 0.19758,-0.794903 1.33525,-0.998214 1.70691,-0.305053 0.0673,0.125398 0.15513,0.384307 0.19529,0.575295 0.0598,0.284807 0.22827,0.397186 0.93686,0.625255 l 0.86386,0.27802 -0.0147,-0.541295 c -0.0165,-0.609994 -0.39386,-1.541841 -0.78062,-1.927971 -0.41927,-0.418547 -1.4781,-0.833278 -2.13335,-0.835588 -1.20128,-0.0043 -2.05396,0.687323 -2.29719,1.863116 -0.0759,0.367068 -0.11843,0.711164 -0.094,0.764705 0.0241,0.05345 0.373,0.06354 0.77536,0.02226 z m 11.18795,22.648413 c 0.95261,0.102542 1.65467,-0.253197 2.27831,-1.154319 0.82661,-1.194315 0.71816,-2.509588 -0.28673,-3.478717 -0.23767,-0.229208 -0.46588,-0.401558 -0.5072,-0.382937 -0.2151,0.09681 -0.52832,1.25464 -0.41034,1.516795 0.32264,0.716866 -0.16981,1.48208 -0.92659,1.439927 -0.3474,-0.01936 -0.49361,0.06215 -1.10149,0.614142 l -0.7009,0.636465 0.5,0.369172 c 0.27544,0.20355 0.79407,0.400742 1.15492,0.439573 z"
     id="path4424-6"
     inkscape:connector-curvature="0" />
  <path
     style="fill:#000000;stroke:#ffffff;stroke-width:0.2;stroke-miterlimit:4;stroke-dasharray:1.6, 1.6;stroke-dashoffset:0;stroke-opacity:1"
     d="m 43.92137,94.497805 c 0.576351,0.234306 0.798426,0.242507 1.216231,0.04491 0.453356,-0.214407 0.559668,-0.38748 0.940638,-1.531301 l 0.429517,-1.28958 0.906524,0.261874 c 1.164129,0.3363 2.893952,0.378187 4.365515,0.105717 1.58982,-0.294365 4.493275,-1.554065 7.808645,-3.387876 1.461653,-0.808481 2.716009,-1.449039 2.787463,-1.423473 0.07149,0.02553 0.110639,0.333822 0.08707,0.685007 -0.0824,1.228163 0.222092,1.662945 1.163093,1.660723 0.607117,-0.0014 0.801498,-0.06001 1.007254,-0.303548 0.397704,-0.470716 0.497526,-1.646708 0.207972,-2.449991 -0.139943,-0.388218 -0.218814,-0.760771 -0.175267,-0.827901 0.04358,-0.06714 1.331971,-0.587326 2.86318,-1.155978 3.400265,-1.262801 7.456171,-3.17319 8.536907,-4.021024 0.758454,-0.594991 0.765664,-0.597404 1.028434,-0.344782 0.50505,0.485524 1.74379,0.884664 2.38574,0.768691 1.59285,-0.287757 2.76778,-2.073241 2.47912,-3.767401 -0.12838,-0.75345 -0.66089,-1.662804 -1.22639,-2.094294 -0.34552,-0.263569 -0.35913,-0.328493 -0.21827,-1.010121 1.09934,-5.310673 -3.05161,-14.686986 -7.527047,-17.002354 -0.521253,-0.269669 -0.57399,-0.339828 -0.598401,-0.796083 -0.09629,-1.799486 -0.698146,-2.693629 -2.16365,-3.214409 -0.899509,-0.319655 -1.796637,-0.303823 -2.533561,0.04469 -0.844059,0.399183 -1.584958,1.642122 -1.53883,2.581562 0.02105,0.428766 -0.02624,0.492553 -0.436417,0.588639 -2.477768,0.580426 -5.94142,1.905322 -10.064158,3.849693 -1.803091,0.85054 -2.437311,1.097842 -2.536822,0.98989 -0.07279,-0.07938 -0.273942,-0.347879 -0.446596,-0.597117 -0.386504,-0.557965 -1.200174,-1.057113 -1.790318,-1.098329 -0.400295,-0.02795 -0.488765,0.02536 -0.930081,0.560483 -0.452747,0.548968 -0.470514,0.62763 -0.247868,1.097199 0.13191,0.27821 0.437642,0.635818 0.67939,0.794692 l 0.439574,0.288828 -3.431139,1.562734 c -2.668752,1.215515 -3.710513,1.753177 -4.688056,2.420493 -2.331882,1.591368 -4.044427,3.444619 -4.803397,5.198116 l -0.277568,0.64125 -0.627384,-0.295112 c -0.345071,-0.162301 -0.958584,-0.324432 -1.363364,-0.360273 -1.171073,-0.103712 -1.658507,0.259027 -1.777988,1.323131 -0.0931,0.82915 0.211683,1.139914 1.534128,1.564232 1.726445,0.553944 1.638945,0.463626 1.689467,1.743901 0.167996,4.258011 2.716407,9.990348 5.727072,12.882373 0.611813,0.587664 0.625938,0.615792 0.64044,1.268052 0.0081,0.36689 -0.08394,1.042483 -0.204591,1.501324 -0.253692,0.964824 -0.301494,1.667581 -0.136927,2.013171 0.06368,0.13355 0.432986,0.371857 0.820773,0.529533 z m -0.651043,-1.273912 c 0.0094,-0.203123 0.125869,-0.812476 0.258702,-1.354112 0.132843,-0.541642 0.222758,-1.123664 0.199805,-1.293372 -0.04051,-0.299491 0.157537,-0.539394 0.262342,-0.317784 0.02859,0.06051 0.521012,0.390057 1.094276,0.732304 0.57325,0.342274 1.035308,0.714294 1.026789,0.826735 -0.105104,1.388494 -0.823544,2.657941 -1.485637,2.625053 -0.336192,-0.0167 -0.335986,-0.04394 0.0046,-0.610223 0.456241,-0.758644 0.445887,-0.73194 0.303637,-0.782846 -0.0667,-0.02383 -0.240701,0.170065 -0.386701,0.430939 -0.263452,0.4707 -0.664729,0.764564 -0.919517,0.673395 -0.204778,-0.07323 -0.377282,-0.521191 -0.358263,-0.930072 z M 34.077,73.154567 c 0.02735,-0.2228 0.137195,-0.257773 0.788285,-0.250934 0.416082,0.0044 0.727662,-0.05307 0.692396,-0.127629 -0.03526,-0.07456 -0.326345,-0.136405 -0.646846,-0.137438 -0.880009,-0.0028 -0.742873,-0.537989 0.185026,-0.722083 0.43511,-0.08633 2.255037,0.455395 2.37384,0.706594 0.04363,0.0922 0.01716,0.299181 -0.05878,0.459916 -0.07594,0.160735 -0.179359,0.620602 -0.229829,1.02193 l -0.09175,0.729673 -1.39901,-0.445033 c -1.369737,-0.435721 -1.682086,-0.674836 -1.613337,-1.234996 z m 3.591018,5.738777 c -0.361319,-1.939362 -0.415989,-3.222497 -0.200256,-4.700418 0.637422,-4.366779 4.208361,-7.655143 11.461965,-10.554957 1.491513,-0.596272 4.986556,-2.096013 7.766775,-3.332764 6.09379,-2.710755 7.710281,-3.270377 10.527487,-3.644534 3.491368,-0.463703 6.580102,0.895235 8.875676,3.904976 2.398391,3.144563 4.263841,8.16412 4.319421,11.622682 0.0609,3.78884 -1.68194,6.685324 -5.457746,9.070576 -1.505043,0.950767 -3.136234,1.697512 -6.211773,2.843693 -3.197704,1.191707 -6.677458,2.807862 -8.857335,4.113748 -2.051068,1.228723 -5.630639,2.930865 -6.952539,3.306065 -4.039887,1.146581 -7.221348,0.281489 -10.138367,-2.756791 -1.678856,-1.748644 -2.2607,-2.661849 -3.633861,-5.703209 -1.072137,-2.374708 -1.265053,-2.911062 -1.499437,-4.169045 z m 26.766939,-7.604272 c 0.385969,0.254354 0.43819,0.341424 0.381671,0.636015 -0.03603,0.187736 0.01461,0.510755 0.112535,0.717806 0.235801,0.498583 0.885887,0.582241 1.821015,0.234332 0.624188,-0.232231 0.790564,-0.229338 1.19345,0.02073 0.956774,0.59387 2.192361,-0.176147 2.227941,-1.388452 0.0083,-0.281725 0.147066,-0.649039 0.308429,-0.816244 0.966749,-1.001747 -0.147838,-3.422489 -1.480029,-3.214434 -0.30685,0.04792 -0.646834,-0.0485 -0.944561,-0.267885 -0.94932,-0.699512 -2.032257,-0.563847 -2.467507,0.309123 -0.163861,0.32865 -0.165077,0.572232 -0.0046,0.911651 l 0.21905,0.463164 -0.857444,0.405515 c -0.647407,0.306179 -0.880913,0.487505 -0.953259,0.740209 -0.16184,0.565287 -0.03,0.936606 0.443263,1.248478 z m 0.683601,0.679993 c 0.101798,-0.445255 0.196101,-0.52845 1.064729,-0.939255 l 0.953037,-0.450722 0.101129,0.406917 c 0.270211,1.087281 0.216477,1.261858 -0.491419,1.596646 -0.463889,0.219386 -0.806373,0.279239 -1.149324,0.200829 -0.588629,-0.134569 -0.620977,-0.189665 -0.478152,-0.814415 z M 64.16667,70.319047 c 0.0137,-0.27587 0.165275,-0.398016 0.960815,-0.774256 1.022535,-0.483593 1.041153,-0.479277 1.771417,0.409744 0.239701,0.291813 0.237835,0.293628 -0.811061,0.789694 -1.371352,0.648557 -1.96795,0.516528 -1.921169,-0.425181 z m 1.588326,-2.28077 c 0.0223,-0.467755 0.226637,-0.869764 0.514823,-1.012821 0.303899,-0.150834 1.310363,0.130284 1.797732,0.502169 0.358789,0.27377 0.387706,0.336081 0.29629,0.638252 -0.214578,0.709206 0.591523,2.575757 1.207571,2.796204 0.383444,0.13721 0.450991,0.521643 0.191244,1.088701 -0.283869,0.619727 -0.793296,0.923655 -1.380099,0.823378 C 67.907314,72.79295 67.652106,72.331072 67.553574,71.373927 67.462254,70.486769 67.064272,69.70554 66.399525,69.108561 65.743028,68.519 65.733021,68.502016 65.754996,68.038276 Z m 6.460619,7.579932 c 1.463536,1.710283 3.83324,1.913656 5.614001,0.48183 0.52093,-0.418857 0.71398,-0.722544 1.03353,-1.625856 0.4513,-1.275744 0.39481,-2.302933 -0.19527,-3.550612 -1.19979,-2.536927 -4.206738,-3.264312 -6.238206,-1.509046 -1.691158,1.461232 -1.791198,4.360655 -0.214055,6.203684 z m -0.859137,-2.993722 c -0.04181,-1.619262 0.674187,-2.867409 2.001196,-3.488533 2.030478,-0.950416 4.042942,-0.227318 5.017412,1.802755 1.10685,2.305877 0.47322,4.519192 -1.57045,5.485713 -2.585204,1.222631 -5.368579,-0.718691 -5.448158,-3.799935 z m 3.978099,3.262858 c 0.731968,0.230963 1.380849,-0.106538 1.649779,-0.858093 0.39801,-1.112291 -0.550896,-1.90189 -1.656973,-1.378789 -1.093887,0.517338 -1.089473,1.890854 0.0072,2.236882 z m -0.171263,-1.797078 c 0.141917,-0.03646 0.30038,0.02325 0.352139,0.132701 0.05181,0.109409 -0.0026,0.269824 -0.120833,0.35639 -0.150824,0.110403 -0.25587,0.07085 -0.352143,-0.132705 -0.09623,-0.203566 -0.0602,-0.309872 0.120837,-0.356386 z m -7.160465,-8.244668 c 2.378507,3.152914 7.163471,1.362043 7.062166,-2.643154 -0.02295,-0.907275 -0.580242,-2.3889 -1.14982,-3.056944 -0.615471,-0.721879 -1.713833,-1.231802 -2.779858,-1.290582 -1.222352,-0.06741 -2.717761,0.580897 -3.37673,1.463916 -1.091145,1.462129 -0.983437,3.899387 0.244242,5.526764 z M 67.333855,63.71132 c -0.399641,-1.702972 0.407565,-3.505479 1.88215,-4.202863 1.426626,-0.674702 2.857272,-0.544734 3.993328,0.362779 0.632242,0.505023 0.751561,0.679007 1.169336,1.704192 0.519987,1.276128 0.564154,2.053794 0.179646,3.16275 -0.897314,2.587905 -4.057103,3.28794 -5.977662,1.324321 -0.681143,-0.696363 -0.999264,-1.296334 -1.246798,-2.351179 z m 3.472018,2.403843 c 0.455779,0.317378 0.82949,0.340971 1.378505,0.08693 1.183546,-0.547667 0.961636,-2.211452 -0.300947,-2.256273 -0.73343,-0.02604 -1.161225,0.250375 -1.393921,0.900673 -0.221869,0.620031 -0.139241,0.951375 0.316363,1.268673 z m 0.138,-1.524433 c 0.180886,-0.189344 0.358086,-0.151164 0.47829,0.103 0.04685,0.09912 -0.03641,0.237701 -0.185056,0.307999 -0.307285,0.14533 -0.528507,-0.164754 -0.293231,-0.410996 z m -8.238141,23.395179 c 0.01378,-0.969735 0.133601,-1.147518 1.076341,-1.597086 0.661538,-0.31562 0.739897,-0.233447 0.920194,0.964313 0.125015,0.830351 -0.131017,1.80209 -0.523753,1.987833 -0.209469,0.09906 -0.274125,0.04975 -0.334621,-0.255154 -0.08687,-0.437868 -0.226896,-0.429956 -0.312806,0.01767 -0.05053,0.2633 -0.106519,0.299422 -0.362392,0.233821 -0.41241,-0.105728 -0.477969,-0.297073 -0.462983,-1.351375 z M 49.863786,60.886196 c 0.10165,-0.217993 0.189214,-0.247873 0.473965,-0.161719 0.474168,0.143465 0.596284,0.05942 0.243147,-0.167304 -0.386035,-0.247885 -0.283747,-0.46718 0.2435,-0.521996 0.489539,-0.05089 1.35663,0.516287 1.861449,1.217626 l 0.334976,0.465373 -0.831353,0.292998 c -1.151605,0.405869 -1.166614,0.40499 -1.766077,-0.102953 -0.64936,-0.550193 -0.719658,-0.678693 -0.559592,-1.021998 z m 27.77826,18.695602 0.57342,-0.547676 0.44112,0.219948 c 0.79038,0.394068 1.75316,-0.397034 1.44451,-1.186924 -0.0559,-0.142927 -0.20674,-0.396146 -0.33532,-0.562705 -0.19177,-0.248418 -0.16615,-0.465183 0.14254,-1.206083 l 0.37632,-0.903242 0.4339,0.390663 c 0.48905,0.440159 0.98936,1.401867 1.03554,1.989341 0.0501,0.636807 -0.35053,1.795649 -0.8071,2.334833 -0.83702,0.988477 -2.00093,1.204168 -3.13574,0.581091 -0.35428,-0.194515 -0.66626,-0.400469 -0.69332,-0.457674 -0.0271,-0.05719 0.20885,-0.350453 0.52424,-0.651669 z M 66.88898,54.557064 c 0.582417,-0.853254 1.365435,-1.180355 2.54105,-1.061518 1.55815,0.157507 2.561335,1.166678 2.653327,2.669151 0.02175,0.355353 0.0034,0.663164 -0.04069,0.68404 -0.229911,0.108732 -1.398951,-0.44438 -1.531476,-0.7246 -0.362383,-0.766247 -1.334709,-0.897637 -1.829624,-0.247223 -0.227177,0.298549 -0.396339,0.361458 -1.274496,0.47396 l -1.012562,0.129726 0.04706,-0.668498 c 0.02593,-0.368369 0.226808,-0.931847 0.447416,-1.255038 z"
     id="path4424-7"
     inkscape:connector-curvature="0" />
  <path
     style="fill:#000000;stroke:#ffffff;stroke-width:0.2;stroke-miterlimit:4;stroke-dasharray:1.6, 1.6;stroke-dashoffset:0;stroke-opacity:1"
     d="m 155.49393,83.425337 c 0.38225,0.472485 0.56827,0.584351 1.01884,0.612651 0.48891,0.03071 0.66153,-0.0671 1.52737,-0.865335 l 0.97617,-0.899951 0.65154,0.651948 c 0.8367,0.837222 2.29613,1.689776 3.68315,2.151584 1.49847,0.498911 4.57606,0.792576 8.27694,0.789789 1.63163,-0.0012 3.0067,0.04326 3.05572,0.09886 0.0491,0.05562 -0.0631,0.337681 -0.24894,0.626885 -0.65035,1.011326 -0.59525,1.526878 0.21046,1.969277 0.51986,0.285432 0.71372,0.327113 1.00465,0.216006 0.56234,-0.214752 1.20294,-1.173238 1.33461,-1.996849 0.0636,-0.398049 0.17203,-0.753892 0.24109,-0.7907 0.069,-0.03683 1.41632,0.126654 2.99418,0.363349 3.50388,0.525582 7.87418,0.80696 9.19866,0.592228 0.92948,-0.150691 0.93679,-0.149352 1.04221,0.190791 0.20262,0.653646 1.07346,1.57983 1.67716,1.783758 1.49795,0.505998 3.34569,-0.466071 3.89873,-2.051079 0.24598,-0.704909 0.21996,-1.733942 -0.0599,-2.369926 -0.17096,-0.388535 -0.15241,-0.450328 0.29022,-0.96685 3.4475,-4.022235 4.32494,-14.000025 1.59109,-18.093038 -0.31841,-0.4767 -0.33038,-0.561601 -0.13583,-0.963276 0.7673,-1.584253 0.67477,-2.633026 -0.33251,-3.77029 -0.61827,-0.698046 -1.3929,-1.108091 -2.18761,-1.158007 -0.91025,-0.05717 -2.13066,0.655871 -2.53477,1.480994 -0.18451,0.37657 -0.25499,0.408813 -0.65112,0.297303 -2.39285,-0.673529 -5.98026,-1.175912 -10.42375,-1.459811 -1.94345,-0.124016 -2.60255,-0.21199 -2.63667,-0.351279 -0.025,-0.10214 -0.07,-0.42682 -0.1,-0.721476 -0.0671,-0.659618 -0.52715,-1.470632 -1.01237,-1.784515 -0.3291,-0.212892 -0.42992,-0.209078 -1.05995,0.04015 -0.64636,0.255683 -0.6987,0.314546 -0.73001,0.821214 -0.0187,0.300158 0.074,0.750336 0.20575,1.000339 l 0.23948,0.454539 -3.67191,-0.283685 c -2.85602,-0.220628 -4.00071,-0.252734 -5.15172,-0.143628 -2.7454,0.25981 -5.08484,1.035996 -6.56179,2.177072 l -0.54012,0.417297 -0.39715,-0.548574 c -0.21845,-0.301717 -0.66653,-0.730023 -0.99574,-0.951792 -0.95245,-0.641606 -1.54053,-0.56156 -2.14512,0.291965 -0.4711,0.665074 -0.35719,1.074713 0.57332,2.061957 1.21479,1.288828 1.18262,1.170279 0.62131,2.288929 -1.86674,3.720451 -2.39408,9.825547 -1.18506,13.720075 0.24569,0.791403 0.24455,0.8221 -0.051,1.386728 -0.1663,0.317566 -0.56398,0.851823 -0.8838,1.187223 -0.67248,0.705263 -1.04516,1.283637 -1.06761,1.656861 -0.009,0.144286 0.19464,0.522428 0.45182,0.84034 z m 0.0448,-1.396738 c 0.104,-0.169242 0.49126,-0.635343 0.86058,-1.035797 0.36934,-0.400442 0.72101,-0.855688 0.78152,-1.011652 0.10666,-0.275251 0.38938,-0.386861 0.37436,-0.14788 -0.004,0.06522 0.26141,0.579528 0.59001,1.142874 0.32858,0.563342 0.54804,1.099632 0.48769,1.191755 -0.74546,1.13771 -1.95918,1.884037 -2.50983,1.543299 -0.27959,-0.173012 -0.26656,-0.196203 0.29204,-0.519649 0.74833,-0.433321 0.72687,-0.415381 0.62925,-0.526076 -0.0458,-0.0519 -0.28611,0.03178 -0.53414,0.185919 -0.44753,0.278114 -0.92943,0.339948 -1.10425,0.141684 -0.14049,-0.159314 -0.0765,-0.62381 0.13272,-0.964487 z m 1.61431,-21.502405 c 0.12849,-0.177633 0.23902,-0.15565 0.79256,0.157574 0.35373,0.200184 0.64729,0.298182 0.65234,0.217782 0.005,-0.08048 -0.21466,-0.270724 -0.48823,-0.422929 -0.7512,-0.417914 -0.38125,-0.810801 0.49916,-0.530116 0.41281,0.131624 1.7133,1.454137 1.69629,1.725042 -0.006,0.09945 -0.1265,0.263949 -0.26741,0.365536 -0.14083,0.101588 -0.4464,0.446002 -0.67903,0.76536 l -0.42298,0.580639 -0.9862,-1.041094 c -0.96557,-1.019326 -1.11979,-1.371268 -0.79649,-1.817813 z m 0.36121,6.602865 c 0.60669,-1.828995 1.16577,-2.952047 2.04803,-4.114001 2.60687,-3.43318 7.21307,-4.559117 14.78494,-3.614037 1.55696,0.194301 5.25377,0.562054 8.21513,0.81716 6.49084,0.559149 8.13737,0.84383 10.7231,1.854022 3.20448,1.251926 5.20412,3.872333 5.74606,7.529893 0.56623,3.821393 -0.20858,8.994514 -1.79401,11.978252 -1.73684,3.268674 -4.59473,4.922668 -8.94972,5.179612 -1.7359,0.102417 -3.48337,-0.0292 -6.65448,-0.50118 -3.29712,-0.490742 -7.03582,-0.751697 -9.51644,-0.66422 -2.33406,0.0823 -6.19871,-0.152257 -7.50624,-0.455598 -3.99598,-0.926967 -6.30805,-3.168848 -7.36796,-7.144236 -0.61001,-2.287983 -0.67639,-3.3436 -0.41463,-6.592682 0.20439,-2.536877 0.29267,-3.086618 0.68622,-4.273008 z m 26.47942,6.135411 c 0.20995,0.399736 0.21353,0.498837 0.0261,0.724082 -0.11939,0.143544 -0.22866,0.443647 -0.24269,0.66694 -0.0338,0.537679 0.48262,0.916157 1.44655,1.060173 0.64339,0.09611 0.7843,0.177161 1.01075,0.581219 0.53777,0.959571 1.95791,0.884489 2.56074,-0.135381 0.14003,-0.237016 0.43219,-0.485571 0.64913,-0.552367 1.29966,-0.40017 1.48951,-2.996452 0.25208,-3.44754 -0.285,-0.103895 -0.53023,-0.346878 -0.68122,-0.675038 -0.48153,-1.046396 -1.47162,-1.44169 -2.256,-0.900703 -0.29528,0.203669 -0.41134,0.411391 -0.43433,0.777422 l -0.0313,0.499516 -0.92467,-0.05808 c -0.69819,-0.04385 -0.98348,9.46e-4 -1.16467,0.182892 -0.40527,0.406976 -0.46786,0.786744 -0.21038,1.276886 z m 0.26352,0.90424 c 0.29727,-0.332689 0.41721,-0.359298 1.35394,-0.300466 l 1.02777,0.06455 -0.10526,0.395817 c -0.2823,1.05733 -0.41066,1.18126 -1.17409,1.133306 -0.50027,-0.03142 -0.82138,-0.141943 -1.07764,-0.370921 -0.43982,-0.392992 -0.44146,-0.455382 -0.0243,-0.922182 z m -0.0349,-1.860404 c 0.14205,-0.229419 0.32926,-0.262318 1.18717,-0.208442 1.10273,0.06926 1.11661,0.08174 1.32134,1.186764 0.0672,0.362709 0.0647,0.363384 -1.06642,0.292339 -1.4789,-0.09288 -1.92672,-0.487478 -1.44209,-1.270661 z m 2.43508,-1.200414 c 0.23992,-0.389466 0.60445,-0.636751 0.91844,-0.623015 0.33109,0.01451 1.05901,0.730095 1.30018,1.278208 0.17756,0.403514 0.17288,0.470446 -0.048,0.68568 -0.51834,0.505148 -0.71029,2.481898 -0.2876,2.961266 0.2631,0.298371 0.13934,0.659007 -0.35052,1.021259 -0.53534,0.395922 -1.11448,0.415287 -1.5689,0.05248 -0.36806,-0.29384 -0.36823,-0.80929 -5.7e-4,-1.674293 0.3408,-0.801752 0.3693,-1.657713 0.0828,-2.482053 -0.28303,-0.81412 -0.28374,-0.833307 -0.0458,-1.21954 z m 1.94578,9.532169 c 0.44399,2.153508 2.37435,3.446271 4.57317,3.062666 0.64321,-0.112217 0.95169,-0.280756 1.65143,-0.902329 0.98826,-0.877837 1.42494,-1.782883 1.50945,-3.128414 0.17184,-2.735868 -2.05602,-4.777599 -4.62195,-4.235787 -2.13606,0.451051 -3.59058,2.883188 -3.1121,5.203864 z m 0.67881,-2.965656 c 0.72877,-1.404416 1.93036,-2.133672 3.35838,-2.038265 2.18505,0.145966 3.56456,1.71449 3.43935,3.910551 -0.14223,2.49441 -1.72908,4.087909 -3.93301,3.949485 -2.78794,-0.175101 -4.25148,-3.149352 -2.86472,-5.821771 z m 1.86121,4.668412 c 0.51688,0.543101 1.23109,0.560867 1.81592,0.04517 0.86552,-0.763229 0.42695,-1.886445 -0.76592,-1.961377 -1.17969,-0.0741 -1.82439,1.102516 -1.05,1.916205 z m 0.70205,-1.61759 c 0.13858,0.0358 0.24587,0.161709 0.23847,0.279743 -0.007,0.118036 -0.12966,0.229499 -0.27161,0.247704 -0.1811,0.02321 -0.25225,-0.06022 -0.23848,-0.279742 0.0139,-0.219481 0.0948,-0.293409 0.27162,-0.247705 z m -2.23038,-10.431026 c 0.54528,3.819138 5.48257,4.54694 7.28699,1.074171 0.40874,-0.786677 0.63101,-2.316974 0.4601,-3.156962 -0.18547,-0.907884 -0.88394,-1.862522 -1.76776,-2.416114 -1.01346,-0.634777 -2.5983,-0.786454 -3.57873,-0.342494 -1.6234,0.735123 -2.68204,2.870134 -2.4006,4.841399 z m 0.43554,-2.140966 c 0.46237,-1.644926 2.00366,-2.805183 3.59388,-2.705302 1.5385,0.09663 2.7005,0.883245 3.2435,2.195663 0.30218,0.730374 0.32211,0.935475 0.19528,2.009406 -0.15791,1.336753 -0.48721,2.022623 -1.33966,2.789361 -1.9892,1.789314 -5.02172,0.896044 -5.73693,-1.689893 -0.25363,-0.917099 -0.24242,-1.580333 0.0439,-2.599235 z m 1.83404,3.694906 c 0.23988,0.4866 0.54833,0.683216 1.13776,0.725201 1.27065,0.09048 1.86646,-1.437034 0.80794,-2.071499 -0.61486,-0.368552 -1.11119,-0.334168 -1.61721,0.112051 -0.48248,0.425452 -0.56827,0.747802 -0.32871,1.234185 z m 0.83777,-1.238424 c 0.24409,-0.07649 0.3776,0.03981 0.36037,0.313904 -0.007,0.106873 -0.14338,0.186064 -0.30367,0.176004 -0.33138,-0.02081 -0.37414,-0.390429 -0.0567,-0.489908 z M 174.63153,86.72589 c 0.46965,-0.822741 0.65605,-0.918193 1.67448,-0.857512 0.7147,0.04245 0.74292,0.149703 0.3316,1.259067 -0.28514,0.769086 -0.9629,1.479152 -1.38643,1.45255 -0.2259,-0.0142 -0.25791,-0.08688 -0.16567,-0.376175 0.13249,-0.415438 0.009,-0.474795 -0.27583,-0.132572 -0.16753,0.201289 -0.23246,0.205745 -0.42031,0.02883 -0.30273,-0.285127 -0.26844,-0.479703 0.24214,-1.37419 z m 1.81367,-29.236967 c 0.18985,-0.138412 0.27883,-0.122624 0.48174,0.08509 0.33772,0.346558 0.48182,0.332355 0.2869,-0.02833 -0.21309,-0.394226 -0.022,-0.53347 0.45469,-0.331396 0.44266,0.187613 0.91633,1.082019 1.01687,1.920097 l 0.0667,0.556117 -0.84926,-0.141948 c -1.17639,-0.196653 -1.18881,-0.2045 -1.46159,-0.921891 -0.29549,-0.777096 -0.29499,-0.92015 0.004,-1.13815 z m 14.92673,29.102585 0.74894,-0.19759 0.27337,0.39635 c 0.48981,0.710154 1.68663,0.488234 1.79564,-0.332942 0.02,-0.148539 0.0102,-0.436366 -0.0211,-0.639505 -0.0467,-0.302971 0.0775,-0.476233 0.69132,-0.964056 l 0.74827,-0.594704 0.18644,0.538983 c 0.21014,0.60738 0.18416,1.665895 -0.0537,2.190065 -0.25786,0.568183 -1.14756,1.37 -1.79257,1.6155 -1.18247,0.450075 -2.2796,0.08497 -2.9558,-0.983635 -0.21112,-0.333612 -0.38066,-0.657028 -0.37679,-0.718712 0.005,-0.06155 0.34406,-0.201075 0.75596,-0.309754 z m 2.62022,-26.476338 c 0.90091,-0.454636 1.72493,-0.364649 2.67411,0.292028 1.25806,0.870372 1.63943,2.206997 1.00869,3.535235 -0.14913,0.314142 -0.31016,0.568713 -0.35776,0.565725 -0.24794,-0.01559 -0.98646,-1.04051 -0.96749,-1.342705 0.0519,-0.826343 -0.71751,-1.397779 -1.44782,-1.075265 -0.33523,0.148036 -0.50958,0.12196 -1.31363,-0.196479 l -0.92711,-0.367149 0.35586,-0.549435 c 0.1961,-0.302758 0.63392,-0.689751 0.97515,-0.861975 z"
     id="path4424-3-5"
     inkscape:connector-curvature="0" />
  <path
     style="fill:#000000;stroke:#ffffff;stroke-width:0.2;stroke-miterlimit:4;stroke-dasharray:1.6, 1.6;stroke-dashoffset:0;stroke-opacity:1"
     d="m 94.339935,119.51721 c -0.424584,0.40069 -0.616053,0.48329 -1.048606,0.45232 -0.469377,-0.0336 -0.621154,-0.14887 -1.342843,-1.02 l -0.813653,-0.98216 -0.704035,0.53693 c -0.904054,0.68951 -2.402932,1.31363 -3.782677,1.57504 -1.490614,0.28241 -4.458133,0.16657 -7.980922,-0.3116 -1.553087,-0.2108 -2.867846,-0.34513 -2.921655,-0.29849 -0.0538,0.0467 0.01664,0.32957 0.156461,0.62875 0.48918,1.04632 0.370487,1.53004 -0.453383,1.84766 -0.531533,0.20498 -0.721457,0.21971 -0.984148,0.0766 -0.507742,-0.27669 -0.994437,-1.27144 -1.013955,-2.07242 -0.0099,-0.3871 -0.06699,-0.73977 -0.127839,-0.78369 -0.06088,-0.044 -1.364571,-0.0613 -2.897071,-0.0388 -3.403121,0.0497 -7.599677,-0.24347 -8.832941,-0.61807 -0.865511,-0.26285 -0.872626,-0.26253 -1.016683,0.0476 -0.276876,0.59622 -1.224888,1.36603 -1.825793,1.4826 -1.491026,0.28924 -3.12512,-0.87355 -3.447966,-2.45348 -0.14358,-0.70267 0.01343,-1.67893 0.361508,-2.24842 0.21267,-0.3479 0.202951,-0.4091 -0.152123,-0.95768 -2.765152,-4.272 -2.318488,-13.88334 0.809944,-17.428523 0.364367,-0.41291 0.386664,-0.492194 0.253079,-0.899572 -0.526898,-1.60675 -0.304093,-2.593269 0.80095,-3.5465 0.678259,-0.585084 1.468351,-0.875923 2.231317,-0.821318 0.873892,0.06253 1.94407,0.898132 2.222766,1.735542 0.127211,0.382191 0.190223,0.421935 0.581645,0.366678 2.364473,-0.333754 5.844129,-0.351118 10.110693,-0.05045 1.866043,0.131609 2.504793,0.132596 2.555178,0.0043 0.03705,-0.09404 0.121486,-0.397329 0.187861,-0.67398 0.14859,-0.61932 0.690783,-1.332271 1.193013,-1.568734 0.340655,-0.160386 0.436145,-0.143801 1.003906,0.174406 0.582457,0.326442 0.624712,0.389215 0.589401,0.875581 -0.02043,0.288179 -0.166886,0.70479 -0.324395,0.925859 l -0.286374,0.401943 3.532016,0.20171 c 2.747181,0.156905 3.841024,0.273419 4.922721,0.52516 2.580185,0.60007 4.707555,1.639558 5.966963,2.915589 l 0.460555,0.466659 0.44858,-0.471204 c 0.246723,-0.259121 0.728295,-0.609332 1.070193,-0.778154 0.989107,-0.48844 1.538696,-0.336658 2.004591,0.553558 0.363034,0.693643 0.201946,1.068999 -0.81073,1.889255 -1.322022,1.070865 -1.27615,0.962155 -0.885549,2.099185 1.299088,3.78162 1.016685,9.66126 -0.634614,13.2134 -0.335558,0.72183 -0.338431,0.75121 -0.129492,1.32669 0.117473,0.3237 0.427408,0.8834 0.688798,1.24377 0.549591,0.75778 0.83007,1.35626 0.803469,1.71445 -0.0099,0.13849 -0.252421,0.47233 -0.538107,0.74194 z m 0.136836,-1.33541 c -0.07728,-0.17444 -0.385873,-0.66802 -0.686212,-1.09658 -0.300155,-0.42866 -0.576423,-0.90725 -0.613988,-1.06348 -0.0664,-0.27572 -0.320998,-0.4183 -0.337389,-0.18888 -0.0041,0.0626 -0.323318,0.51811 -0.708502,1.01219 -0.385193,0.49406 -0.663005,0.97639 -0.617391,1.07185 0.563477,1.17885 1.623025,2.04526 2.191005,1.79164 0.288409,-0.12877 0.278993,-0.15249 -0.211204,-0.53223 -0.656741,-0.50865 -0.6386,-0.48882 -0.531455,-0.58165 0.05024,-0.0435 0.268296,0.067 0.484606,0.24562 0.390287,0.32225 0.841093,0.44302 1.032996,0.27675 0.154203,-0.13363 0.15302,-0.58402 -0.0027,-0.93522 z m 1.225893,-20.677136 c -0.09944,-0.185713 -0.207494,-0.17891 -0.774739,0.04821 -0.36246,0.145154 -0.654513,0.200702 -0.648986,0.123502 0.0059,-0.07721 0.239144,-0.230113 0.519151,-0.339861 0.768787,-0.301325 0.467086,-0.722884 -0.407102,-0.568779 -0.409915,0.07226 -1.817906,1.164133 -1.836485,1.424259 -0.0068,0.09548 0.08653,0.267531 0.207594,0.382347 0.121002,0.114803 0.367686,0.481916 0.548117,0.815828 l 0.328099,0.60707 1.072598,-0.864386 c 1.050166,-0.846314 1.242186,-1.161538 0.991793,-1.628178 z m -1.192205,6.239356 c -0.342551,-1.81909 -0.730503,-2.96003 -1.421125,-4.179564 -2.040513,-3.603246 -6.280859,-5.266903 -13.610519,-5.340046 -1.507147,-0.01503 -5.073662,-0.139955 -7.925567,-0.277581 -6.250942,-0.301661 -7.854961,-0.242195 -10.446291,0.38726 -3.211435,0.780084 -5.451706,3.017726 -6.437555,6.430001 -1.030006,3.56512 -0.957075,8.58934 0.168832,11.63348 1.233475,3.33484 3.741593,5.27659 7.854425,6.08073 1.639375,0.32052 3.319795,0.41975 6.399274,0.37791 3.201804,-0.0432 6.794469,0.18838 9.144735,0.59036 2.211395,0.37824 5.920562,0.65148 7.204265,0.53072 3.923157,-0.36904 6.412241,-2.20619 7.932002,-5.85447 0.874662,-2.09973 1.073496,-3.0961 1.241749,-6.22278 0.13122,-2.44131 0.117935,-2.97597 -0.104268,-4.15596 z m -25.995987,2.43864 c -0.251252,0.35357 -0.267386,0.44745 -0.117843,0.68596 0.09561,0.15178 0.160667,0.45171 0.145329,0.6661 -0.03695,0.51619 -0.577176,0.81014 -1.513308,0.82337 -0.624851,0.009 -0.769391,0.0679 -1.036894,0.42345 -0.635221,0.84439 -1.977514,0.59046 -2.420353,-0.4579 -0.102869,-0.24363 -0.34905,-0.51777 -0.546985,-0.60923 -1.185839,-0.54793 -1.032977,-3.04392 0.202959,-3.31434 0.284688,-0.0623 0.54932,-0.2621 0.735262,-0.55511 0.592822,-0.93427 1.586158,-1.18337 2.263348,-0.56758 0.254949,0.23182 0.3387,0.4445 0.313591,0.79588 l -0.03432,0.47953 0.887739,0.0636 c 0.670279,0.048 0.936108,0.12726 1.085221,0.32374 0.333523,0.43951 0.34432,0.80907 0.03622,1.2426 z m -0.367044,0.82695 c -0.240268,-0.35488 -0.350998,-0.39564 -1.250316,-0.45999 l -0.986699,-0.0706 0.04965,0.39029 c 0.132899,1.04283 0.239189,1.17729 0.97208,1.22973 0.480293,0.0344 0.800192,-0.0296 1.073545,-0.21466 0.469176,-0.31762 0.478795,-0.37676 0.141612,-0.87476 z m 0.272272,-1.76656 c -0.105701,-0.23664 -0.27974,-0.29202 -1.103394,-0.35095 -1.058634,-0.0757 -1.073466,-0.0657 -1.410325,0.95999 -0.11057,0.33665 -0.108315,0.33761 0.977634,0.41532 1.419795,0.10161 1.896818,-0.21653 1.536076,-1.02438 z m -2.163896,-1.45563 c -0.178315,-0.4016 -0.493629,-0.68383 -0.794281,-0.71109 -0.317063,-0.0287 -1.101955,0.55896 -1.401968,1.04977 -0.220871,0.36132 -0.225022,0.42564 -0.042,0.65893 0.428544,0.54748 0.357328,2.45396 -0.106723,2.856 -0.28881,0.2502 -0.217312,0.60946 0.202455,1.01724 0.458771,0.44569 1.007595,0.53854 1.486823,0.25154 0.388357,-0.23204 0.454502,-0.72311 0.215634,-1.5938 -0.221398,-0.80704 -0.138582,-1.62555 0.240136,-2.37348 0.374037,-0.73865 0.37718,-0.75682 0.200301,-1.15509 z m -3.077024,8.82438 c -0.699369,1.99302 -2.703113,2.97569 -4.747044,2.32801 -0.597905,-0.18948 -0.869908,-0.38955 -1.4562,-1.07118 -0.828007,-0.96263 -1.12741,-1.88034 -1.035006,-3.1721 0.187932,-2.62654 2.571131,-4.28398 4.94419,-3.43851 1.975532,0.70383 3.047712,3.20603 2.29406,5.35378 z m -0.265191,-2.91044 c -0.513337,-1.4306 -1.563503,-2.27921 -2.935213,-2.37187 -2.098876,-0.14171 -3.613636,1.17417 -3.776598,3.28086 -0.185076,2.39288 1.120812,4.11372 3.236689,4.26511 2.676555,0.19146 4.451921,-2.45185 3.475122,-5.1741 z m -2.371627,4.20508 c -0.561828,0.45061 -1.244023,0.37575 -1.734496,-0.19032 -0.725902,-0.83777 -0.164022,-1.8507 0.981127,-1.76877 1.132532,0.081 1.595128,1.28397 0.753369,1.95909 z m -0.460497,-1.63012 c -0.136526,0.0163 -0.254875,0.12231 -0.262942,0.23572 -0.0086,0.11332 0.09386,0.23515 0.226716,0.27071 0.169429,0.0454 0.247888,-0.0249 0.262942,-0.23571 0.01505,-0.21072 -0.05256,-0.2915 -0.226707,-0.27071 z m 3.463454,-9.64349 c -1.009783,3.56567 -5.803471,3.62417 -7.07504,0.0868 -0.288032,-0.80141 -0.303746,-2.28667 -0.03247,-3.064454 0.293214,-0.840463 1.080796,-1.659515 1.993298,-2.07297 1.046313,-0.474071 2.574551,-0.414841 3.450841,0.133796 1.450998,0.908391 2.184498,3.076908 1.663292,4.917328 z m -0.139638,-2.09409 c -0.228775,-1.625343 -1.547,-2.927913 -3.073671,-3.037147 -1.477024,-0.105678 -2.684303,0.493862 -3.369831,1.673498 -0.38152,0.656475 -0.426836,0.849169 -0.444091,1.887819 -0.02147,1.29284 0.203999,1.98808 0.916952,2.82751 1.663769,1.95897 4.665422,1.49821 5.678523,-0.87164 0.359279,-0.84046 0.433821,-1.47329 0.292118,-2.48004 z m -2.220678,3.28181 c -0.29087,0.43241 -0.609773,0.57996 -1.176276,0.54418 -1.221265,-0.077 -1.592187,-1.60781 -0.503005,-2.0758 0.632698,-0.27186 1.100756,-0.17536 1.525161,0.31444 0.404631,0.46702 0.444899,0.7849 0.15412,1.21718 z m -0.638423,-1.28659 c -0.222536,-0.10415 -0.364582,-0.0102 -0.383381,0.25252 -0.0077,0.10263 0.112295,0.19573 0.266464,0.20658 0.318129,0.0229 0.40634,-0.3236 0.11692,-0.4591 z m 15.151209,17.66646 c -0.341393,-0.84355 -0.506527,-0.9584 -1.483867,-1.03147 -0.685865,-0.0512 -0.726485,0.0471 -0.477463,1.15601 0.172651,0.76877 0.726614,1.53182 1.133228,1.56091 0.216848,0.0159 0.256662,-0.0496 0.206047,-0.33682 -0.07267,-0.41251 0.05242,-0.45315 0.27959,-0.0908 0.134065,0.21288 0.194879,0.22572 0.396415,0.0814 0.324805,-0.23258 0.317185,-0.42219 -0.05402,-1.33931 z m 2.029855,-28.065835 c -0.162915,-0.15618 -0.249695,-0.152554 -0.469512,0.01951 -0.366033,0.286518 -0.50139,0.254482 -0.269487,-0.06381 0.253502,-0.347926 0.08956,-0.505019 -0.390274,-0.373909 -0.445493,0.121738 -1.011328,0.912327 -1.214725,1.697238 l -0.134968,0.520833 0.826716,-0.02604 c 1.145156,-0.03608 1.157985,-0.04194 1.509837,-0.689828 0.381144,-0.701801 0.399038,-0.838054 0.142374,-1.084012 z m -17.949005,25.787095 -0.687573,-0.28434 -0.311169,0.3422 c -0.557519,0.6131 -1.668348,0.24809 -1.666626,-0.54765 2e-4,-0.144 0.04627,-0.41674 0.10222,-0.6061 0.08336,-0.28241 -0.01281,-0.46332 -0.534316,-1.00656 l -0.635922,-0.66227 -0.24675,0.48913 c -0.278064,0.55122 -0.389333,1.56224 -0.230213,2.09179 0.172478,0.57402 0.916432,1.45164 1.498911,1.76823 1.067848,0.58039 2.159202,0.37378 2.940226,-0.55663 0.243833,-0.29047 0.446798,-0.57657 0.451035,-0.63579 0.0043,-0.0593 -0.301701,-0.23562 -0.679864,-0.392 z m 0.907347,-25.541436 c -0.799228,-0.548557 -1.595224,-0.568762 -2.583206,-0.06556 -1.309452,0.666929 -1.844229,1.890354 -1.414447,3.235844 0.101703,0.3182 0.222204,0.581244 0.267918,0.584503 0.238048,0.01692 1.072783,-0.8638 1.093533,-1.153916 0.05674,-0.793315 0.862654,-1.238455 1.516446,-0.837608 0.300103,0.184004 0.469436,0.181581 1.275782,-0.01822 l 0.929764,-0.230407 -0.268149,-0.568793 c -0.147756,-0.313421 -0.514805,-0.738091 -0.81758,-0.945857 z"
     id="path4424-35"
     inkscape:connector-curvature="0" />
  <ellipse
     style="fill:#ffffff;fill-opacity:1;stroke:#ffffff;stroke-width:0.2;stroke-miterlimit:4;stroke-dasharray:1.6, 1.60000000000000009;stroke-dashoffset:0;stroke-opacity:1"
     id="path5029"
     cx="21.068075"
     cy="137.9644"
     rx="2.6967137"
     ry="2.2753522" />
  <ellipse
     style="fill:#000000;fill-opacity:1;stroke:#ffffff;stroke-width:0.2;stroke-miterlimit:4;stroke-dasharray:1.6, 1.60000000000000009;stroke-dashoffset:0;stroke-opacity:1"
     id="path5033"
     cx="45.050976"
     cy="132.01811"
     rx="0.56610042"
     ry="2.2346067"
     transform="matrix(0.9844054,0.1759148,-0.1759148,0.9844054,0,0)" />
</svg>
