<?xml version="1.0" encoding="UTF-8" standalone="no"?>
<!-- Created with Inkscape (http://www.inkscape.org/) -->

<svg
   xmlns:dc="http://purl.org/dc/elements/1.1/"
   xmlns:cc="http://creativecommons.org/ns#"
   xmlns:rdf="http://www.w3.org/1999/02/22-rdf-syntax-ns#"
   xmlns:svg="http://www.w3.org/2000/svg"
   xmlns="http://www.w3.org/2000/svg"
   xmlns:sodipodi="http://sodipodi.sourceforge.net/DTD/sodipodi-0.dtd"
   xmlns:inkscape="http://www.inkscape.org/namespaces/inkscape"
   id="svg3495"
   version="1.1"
   inkscape:version="0.91 r13725"
   width="399.00006"
   height="169.73506"
   viewBox="0 0 399.00006 169.73506"
   sodipodi:docname="cover.svg">
  <metadata
     id="metadata3501">
    <rdf:RDF>
      <cc:Work
         rdf:about="">
        <dc:format>image/svg+xml</dc:format>
        <dc:type
           rdf:resource="http://purl.org/dc/dcmitype/StillImage" />
        <dc:title></dc:title>
      </cc:Work>
    </rdf:RDF>
  </metadata>
  <defs
     id="defs3499" />
  <sodipodi:namedview
     pagecolor="#ffffff"
     bordercolor="#666666"
     borderopacity="1"
     objecttolerance="10"
     gridtolerance="10"
     guidetolerance="10"
     inkscape:pageopacity="0"
     inkscape:pageshadow="2"
     inkscape:window-width="1387"
     inkscape:window-height="876"
     id="namedview3497"
     showgrid="false"
     fit-margin-top="0"
     fit-margin-left="0"
     fit-margin-right="0"
     fit-margin-bottom="0"
     inkscape:zoom="5.9331476"
     inkscape:cx="96.12073"
     inkscape:cy="43.85239"
     inkscape:window-x="53"
     inkscape:window-y="24"
     inkscape:window-maximized="1"
     inkscape:current-layer="svg3495" />
  <path
     style="fill:#000000"
     d="m 99.299996,169.67875 c -0.2475,-0.0744 -2.2725,-0.27383 -4.5,-0.44328 -2.2275,-0.16945 -4.995,-0.38009 -6.15,-0.46809 -1.155,-0.088 -2.22825,-0.28449 -2.385,-0.43664 -0.15675,-0.15215 -1.1355,-0.27663 -2.175,-0.27663 -1.0395,0 -1.89,-0.12301 -1.89,-0.27335 0,-0.15035 -0.77625,-0.34398 -1.725,-0.4303 -2.20382,-0.2005 -6.055409,-0.90593 -10.124999,-1.85443 -1.155,-0.26919 -2.539999,-0.56116 -3.077779,-0.64883 -0.53778,-0.0877 -1.052,-0.27947 -1.14271,-0.42624 -0.0907,-0.14677 -0.62149,-0.26685 -1.17951,-0.26685 -0.55803,0 -1.09803,-0.135 -1.2,-0.3 -0.10198,-0.165 -0.57448,-0.3 -1.05,-0.3 -0.47553,0 -0.94803,-0.135 -1.05,-0.3 -0.10198,-0.165 -0.58245,-0.3 -1.06771,-0.3 -0.485258,0 -0.882288,-0.135 -0.882288,-0.3 0,-0.165 -0.405,-0.3 -0.9,-0.3 -0.495,0 -0.9,-0.135 -0.9,-0.3 0,-0.165 -0.23816,-0.3 -0.52924,-0.3 -0.29108,0 -1.26983,-0.28348 -2.175,-0.62996 -0.90517,-0.34648 -1.95151,-0.7001 -2.3252,-0.78582 -0.37369,-0.0857 -0.7529,-0.27474 -0.8427,-0.42004 -0.0898,-0.1453 -0.42531,-0.26418 -0.74557,-0.26418 -0.32026,0 -0.58229,-0.135 -0.58229,-0.3 0,-0.165 -0.3375,-0.3 -0.75,-0.3 -0.4125,0 -0.75,-0.135 -0.75,-0.3 0,-0.165 -0.27,-0.3 -0.6,-0.3 -0.33,0 -0.6,-0.135 -0.6,-0.3 0,-0.165 -0.27,-0.3 -0.6,-0.3 -0.33,0 -0.6,-0.10213 -0.6,-0.22696 0,-0.12482 -0.57375,-0.4053 -1.275,-0.62329 -0.70125,-0.21798 -1.68,-0.56938 -2.175,-0.78088 -2.09669,-0.89587 -2.60882,-1.06887 -3.16412,-1.06887 -0.32223,0 -0.58588,-0.135 -0.58588,-0.3 0,-0.165 -0.405,-0.3 -0.9,-0.3 -0.495,0 -0.9,-0.135 -0.9,-0.3 0,-0.165 -0.4725,-0.3 -1.05,-0.3 -0.5775,0 -1.05,-0.135 -1.05,-0.3 0,-0.165 -0.39703,-0.3 -0.8823,-0.3 -0.48526,0 -0.95651,-0.12008 -1.04722,-0.26685 -0.0907,-0.14677 -0.60492,-0.3383 -1.1427,-0.42562 -1.04629,-0.16988 -3.81618,-0.84883 -5.77778,-1.41625 -0.66,-0.19091 -1.63875,-0.41682 -2.175,-0.50202 -0.53625,-0.0852 -0.975,-0.27513 -0.975,-0.42208 0,-0.14695 -0.4725,-0.26718 -1.05,-0.26718 -0.5775,0 -1.05,-0.135 -1.05,-0.3 0,-0.165 -0.405,-0.3 -0.9,-0.3 -0.495,0 -0.9,-0.135 -0.9,-0.3 0,-0.165 -0.40683,-0.3 -0.90407,-0.3 -0.49724,0 -1.13849,-0.12308 -1.425,-0.27351 -0.54354,-0.28539 -1.98983,-0.59439 -6.52093,-1.39322 -2.5183,-0.44398 -3.41466,-0.70377 -4.72093,-1.36827 -0.28651,-0.14575 -0.72526,-0.265 -0.975,-0.265 -0.24974,0 -0.45407,-0.135 -0.45407,-0.3 0,-0.165 -0.2025,-0.3 -0.45,-0.3 -0.2475,0 -0.45,-0.135 -0.45,-0.3 0,-0.165 -0.14464,-0.3 -0.32143,-0.3 -0.17678,0 -0.49053,-0.16875 -0.6972,-0.375 -0.20668,-0.20625 -0.80331,-0.7125 -1.32585,-1.125 -0.52254,-0.4125 -0.9513,-0.98625 -0.9528,-1.275 -0.001,-0.28875 -0.13772,-0.525 -0.30272,-0.525 -0.165,0 -0.3,-0.5445 -0.3,-1.21 0,-0.98064 0.19714,-1.40713 1.04,-2.25 0.572,-0.572 1.247,-1.04 1.5,-1.04 0.253,0 0.46,-0.135 0.46,-0.3 0,-0.165 0.2025,-0.3 0.45,-0.3 0.2475,0 0.45,-0.135 0.45,-0.3 0,-0.165 0.32953,-0.3 0.7323,-0.3 0.40276,0 0.80651,-0.12008 0.89721,-0.26685 0.0907,-0.14677 0.60493,-0.33921 1.14271,-0.42764 0.53778,-0.0884 2.53028,-0.44829 4.42778,-0.79969 6.25423,-1.15823 7.30609,-1.25618 12,-1.11741 4.81796,0.14243 6.87975,0.39799 10.2,1.26425 1.0725,0.27982 2.39,0.57736 2.92778,0.6612 0.53778,0.0838 1.05199,0.27252 1.1427,0.41929 0.0907,0.14677 0.56196,0.26685 1.04722,0.26685 0.48527,0 0.8823,0.135 0.8823,0.3 0,0.165 0.405,0.3 0.9,0.3 0.495,0 0.9,0.135 0.9,0.3 0,0.165 0.405,0.3 0.9,0.3 0.495,0 0.9,0.135 0.9,0.3 0,0.165 0.22703,0.3 0.50452,0.3 0.63025,0 4.94413,1.48989 5.33048,1.841 0.15675,0.14245 0.528,0.259 0.825,0.259 0.297,0 0.54,0.135 0.54,0.3 0,0.165 0.26203,0.3 0.58229,0.3 0.32026,0 0.66573,0.135 0.76771,0.3 0.10197,0.165 0.44744,0.3 0.7677,0.3 0.32027,0 0.5823,0.135 0.5823,0.3 0,0.165 0.27,0.3 0.6,0.3 0.33,0 0.6,0.135 0.6,0.3 0,0.165 0.20433,0.3 0.45407,0.3 0.24974,0 0.68849,0.11925 0.975,0.265 1.78439,0.90772 6.319868,2.435 7.231118,2.435 0.33242,0 0.68783,0.135 0.78981,0.3 0.10197,0.165 0.58244,0.3 1.0677,0.3 0.48527,0 0.8823,0.135 0.8823,0.3 0,0.165 0.53203,0.3 1.18229,0.3 0.65026,0 1.26573,0.135 1.36771,0.3 0.10197,0.165 0.690439,0.3 1.307699,0.3 0.61727,0 1.25055,0.12256 1.4073,0.27234 0.15675,0.14979 0.96,0.34106 1.785,0.42503 0.825,0.084 3.0525,0.37675 4.949999,0.6506 9.73913,1.40556 19.72755,1.46518 28.950004,0.1728 1.32,-0.18498 2.79139,-0.46782 3.26977,-0.62855 0.47837,-0.16072 1.32212,-0.29222 1.875,-0.29222 0.55287,0 1.00523,-0.135 1.00523,-0.3 0,-0.165 0.46453,-0.3 1.03229,-0.3 0.56777,0 1.11573,-0.135 1.21771,-0.3 0.10198,-0.165 0.51494,-0.3 0.91771,-0.3 0.40276,0 0.73229,-0.135 0.73229,-0.3 0,-0.165 0.405,-0.3 0.9,-0.3 0.495,0 0.9,-0.135 0.9,-0.3 0,-0.165 0.24473,-0.3 0.54385,-0.3 0.29912,0 1.24346,-0.3375 2.09853,-0.75 0.85507,-0.4125 1.75784,-0.75 2.00615,-0.75 0.24831,0 0.45147,-0.1098 0.45147,-0.244 0,-0.13421 0.4725,-0.42941 1.05,-0.656 0.5775,-0.22659 1.05,-0.52179 1.05,-0.65599 0,-0.13421 0.22042,-0.24401 0.48981,-0.24401 0.2694,0 0.70815,-0.23774 0.975,-0.52831 0.26686,-0.29058 1.02519,-0.92535 1.68519,-1.41061 1.52208,-1.11911 3.15,-2.86057 3.15,-3.36971 0,-0.21525 0.10204,-0.39137 0.22677,-0.39137 0.25053,0 0.69829,-1.01779 1.25379,-2.85 0.26634,-0.87845 0.2775,-1.4263 0.0416,-2.04453 -0.1772,-0.46449 -0.32219,-1.17324 -0.32219,-1.575 0,-0.40176 -0.135,-0.73047 -0.3,-0.73047 -0.165,0 -0.30016,-0.16875 -0.30037,-0.375 -0.001,-1.10732 -2.84286,-2.95406 -5.54963,-3.60644 -2.97674,-0.71746 -9.57106,-0.98737 -16.01555,-0.65553 -2.24472,0.11559 -3.52505,0.0664 -3.735,-0.14358 -0.21709,-0.21712 -4.96114,-0.31945 -14.809424,-0.31945 -9.46,0 -14.49,-0.10414 -14.49,-0.3 0,-0.184 -1.449999,-0.3 -3.749999,-0.3 -2.0625,0 -3.75,-0.10829 -3.75,-0.24063 0,-0.13235 -1.16433,-0.27709 -2.587389,-0.32164 -1.42307,-0.0446 -2.91686,-0.20628 -3.31953,-0.35937 -0.40268,-0.1531 -1.28898,-0.27836 -1.96955,-0.27836 -0.68058,0 -1.988038,-0.13757 -2.905468,-0.3057 -0.91744,-0.16813 -3.49056,-0.59119 -5.71806,-0.94014 -2.2275,-0.34894 -4.6575,-0.75887 -5.4,-0.91095 -0.7425,-0.15208 -1.79,-0.35144 -2.32778,-0.44301 -0.53778,-0.0916 -1.052,-0.28658 -1.14271,-0.43335 -0.0907,-0.14677 -0.56196,-0.26685 -1.04722,-0.26685 -0.48526,0 -0.88229,-0.135 -0.88229,-0.3 0,-0.165 -0.405,-0.3 -0.9,-0.3 -0.495,0 -0.9,-0.135 -0.9,-0.3 0,-0.165 -0.26203,-0.3 -0.5823,-0.3 -0.32026,0 -0.66573,-0.135 -0.7677,-0.3 -0.10198,-0.165 -0.38158,-0.3 -0.62134,-0.3 -0.42872,0 -4.93565,-2.05372 -5.22866,-2.3826 -0.0825,-0.0926 -0.52125,-0.3597 -0.975,-0.59357 -0.45375,-0.23387 -0.825,-0.53741 -0.825,-0.67452 0,-0.13712 -0.1408,-0.24931 -0.31288,-0.24931 -0.43148,0 -3.58712,-2.40934 -3.58712,-2.73878 0,-0.14667 -0.38327,-0.66774 -0.85172,-1.15793 -0.46845,-0.49018 -1.09645,-1.43395 -1.39556,-2.09726 -0.29912,-0.66332 -0.65834,-1.20603 -0.79828,-1.20603 -0.13994,0 -0.25444,-0.27 -0.25444,-0.6 0,-0.33 -0.135,-0.6 -0.3,-0.6 -0.165,0 -0.3,-0.3375 -0.3,-0.75 0,-0.4125 -0.135,-0.75 -0.3,-0.75 -0.165,0 -0.3,-0.32953 -0.3,-0.73229 0,-0.40277 -0.135,-0.81573 -0.3,-0.91771 -0.165,-0.10198 -0.3,-0.62294 -0.3,-1.15771 0,-0.53476 -0.14197,-1.11427 -0.3155,-1.28779 -0.20539,-0.20539 -0.26683,-1.87538 -0.17605,-4.785 0.15357,-4.92179 0.40734,-7.31971 0.82064,-7.7545 0.149,-0.15675 0.27091,-0.798 0.27091,-1.425 0,-0.627 0.135,-1.14 0.3,-1.14 0.165,0 0.3,-0.27183 0.3,-0.60407 0,-0.33224 0.11985,-0.83849 0.26632,-1.125 C 25.51003,79.5791 26.4,77.54052 26.4,77.22481 c 0,-0.20389 0.11219,-0.3707 0.24931,-0.3707 0.13712,0 0.43994,-0.37125 0.67295,-0.825 0.23301,-0.45375 0.66082,-1.04333 0.95069,-1.31019 0.28988,-0.26685 0.52705,-0.56606 0.52705,-0.6649 0,-0.17463 1.25511,-1.64223 2.625,-3.06941 0.37125,-0.38677 0.675,-0.78745 0.675,-0.89038 0,-0.21954 1.86798,-2.00446 3.4432,-3.29012 0.60649,-0.495 1.42374,-1.20375 1.81612,-1.575 0.39237,-0.37125 0.85454,-0.675 1.02704,-0.675 0.1725,0 0.31364,-0.135 0.31364,-0.3 0,-0.165 0.2025,-0.3 0.45,-0.3 0.2475,0 0.45,-0.135 0.45,-0.3 0,-0.165 0.1727,-0.3 0.38377,-0.3 0.21107,0 0.57838,-0.27 0.81623,-0.6 0.23785,-0.33 0.67265,-0.6 0.96623,-0.6 0.29357,0 0.53377,-0.11466 0.53377,-0.25479 0,-0.14014 0.6075,-0.50532 1.35,-0.81151 0.7425,-0.30619 1.35,-0.66404 1.35,-0.79521 0,-0.13117 0.27,-0.23849 0.6,-0.23849 0.33,0 0.6,-0.135 0.6,-0.3 0,-0.165 0.3375,-0.3 0.75,-0.3 0.4125,0 0.75,-0.135 0.75,-0.3 0,-0.165 0.26203,-0.3 0.58229,-0.3 0.32026,0 0.66573,-0.135 0.76771,-0.3 0.10197,-0.165 0.50369,-0.3 0.8927,-0.3 0.38901,0 0.7523,-0.1015 0.8073,-0.22556 0.13342,-0.30093 4.86962,-1.87444 5.64198,-1.87444 0.33441,0 0.60802,-0.135 0.60802,-0.3 0,-0.165 0.4725,-0.3 1.05,-0.3 0.5775,0 1.05,-0.135 1.05,-0.3 0,-0.165 0.46453,-0.3 1.03229,-0.3 0.567758,0 1.115728,-0.135 1.217708,-0.3 0.10197,-0.165 0.64994,-0.3 1.2177,-0.3 0.56777,0 1.0323,-0.135 1.0323,-0.3 0,-0.165 0.513,-0.3 1.14,-0.3 0.627,0 1.26825,-0.12118 1.425,-0.26927 0.15675,-0.14811 0.825,-0.34458 1.485,-0.43662 0.66,-0.092 2.414999,-0.37661 3.899999,-0.63239 3.33088,-0.57372 6.251449,-1.02622 8.999999,-1.39445 1.155,-0.15473 3.1125,-0.41909 4.35,-0.58746 1.2375,-0.16837 5.22,-0.42909 8.85,-0.57937 3.63,-0.15029 7.443754,-0.35886 8.475004,-0.46349 1.26845,-0.1287 1.875,-0.0846 1.875,0.1364 0,0.22731 2.41765,0.32665 7.95,0.32665 4.3725,0 7.95,0.11031 7.95,0.24513 0,0.13483 1.44079,0.27754 3.20175,0.31714 1.76096,0.0396 3.43959,0.19929 3.73028,0.35487 0.29069,0.15557 1.17052,0.28286 1.95519,0.28286 0.78466,0 2.17729,0.13071 3.09472,0.29048 0.91743,0.15977 3.35556,0.50792 5.41806,0.77368 2.0625,0.26576 4.31603,0.60754 5.00785,0.75952 0.69181,0.15197 1.86509,0.27632 2.60729,0.27632 0.7422,0 1.43288,0.135 1.53486,0.3 0.10198,0.165 0.98744,0.3 1.96771,0.3 0.98819,0 1.78229,0.13366 1.78229,0.3 0,0.16923 0.85,0.3 1.95,0.3 1.0725,0 1.95,0.12114 1.95,0.26921 0,0.14807 1.11375,0.34638 2.475,0.44069 1.36125,0.0943 3.4875,0.30501 4.725,0.46824 1.2375,0.16322 3.33,0.42897 4.65,0.59054 1.32,0.16158 3.4125,0.46036 4.65,0.66396 1.2375,0.20359 2.7225,0.39249 3.3,0.41976 0.5775,0.0273 1.84477,0.157 2.81616,0.2883 0.97139,0.13129 2.99639,0.28645 4.5,0.34478 1.50361,0.0583 3.65992,0.18764 4.79178,0.28735 1.32161,0.11642 2.17497,0.0643 2.385,-0.14578 0.18342,-0.18342 1.41818,-0.32705 2.81149,-0.32705 2.45971,0 4.54524,-0.24022 9.29945,-1.07113 1.34963,-0.23588 2.73338,-0.42887 3.075,-0.42887 0.34162,0 0.62112,-0.135 0.62112,-0.3 0,-0.165 0.4725,-0.3 1.05,-0.3 0.5775,0 1.05,-0.135 1.05,-0.3 0,-0.165 0.405,-0.3 0.9,-0.3 0.495,0 0.9,-0.135 0.9,-0.3 0,-0.165 0.26203,-0.3 0.58229,-0.3 0.32027,0 0.66573,-0.135 0.76771,-0.3 0.10198,-0.165 0.44744,-0.3 0.76771,-0.3 0.32026,0 0.58229,-0.135 0.58229,-0.3 0,-0.165 0.27327,-0.3 0.60727,-0.3 0.54147,0 0.50084,-0.11912 -0.375,-1.09921 -0.54025,-0.60456 -1.54102,-1.66601 -2.22393,-2.35877 -0.68292,-0.69275 -1.72871,-1.98686 -2.32398,-2.87579 -0.59527,-0.88893 -1.21777,-1.77929 -1.38333,-1.97857 -0.16557,-0.19929 -0.30103,-0.50304 -0.30103,-0.675 0,-0.17197 -0.135,-0.31266 -0.3,-0.31266 -0.165,0 -0.3,-0.19125 -0.3,-0.425 0,-0.23375 -0.10545,-0.47 -0.23434,-0.525 -0.37563,-0.16029 -2.02396,-3.83832 -2.5993,-5.8 -0.29036,-0.99 -0.68049,-2.205 -0.86695,-2.7 -0.4726,-1.25462 -0.43906,-9.93036 0.0403,-10.40966 0.19819,-0.19819 0.36034,-0.59445 0.36034,-0.88057 0,-0.72216 1.51991,-4.15977 1.83921,-4.15977 0.14344,0 0.26079,-0.2402 0.26079,-0.53378 0,-0.29357 0.27,-0.72837 0.6,-0.96622 0.33,-0.23786 0.6,-0.53311 0.6,-0.65613 0,-0.63895 6.19784,-6.8438801 6.83605,-6.8438801 0.12732,0 0.4261,-0.27 0.66395,-0.6 0.23785,-0.33 0.67265,-0.6 0.96623,-0.6 0.29357,0 0.53549,-0.10125 0.53759,-0.225 0.002,-0.12375 0.87615,-0.63 1.94234,-1.125 1.0662,-0.495 1.94198,-1.00125 1.94619,-1.125 0.004,-0.12375 0.27765,-0.225 0.60765,-0.225 0.33,0 0.6,-0.135 0.6,-0.3 0,-0.165 0.3375,-0.3 0.75,-0.3 0.4125,0 0.75,-0.135 0.75,-0.3 0,-0.165 0.27,-0.3 0.6,-0.3 0.33,0 0.6,-0.135 0.6,-0.3 0,-0.165 0.39703,-0.3 0.88229,-0.3 0.48527,0 0.96573,-0.135 1.06771,-0.3 0.10198,-0.165 0.50698,-0.3 0.9,-0.3 0.39302,0 0.7888,-0.12008 0.87951,-0.26685 0.0907,-0.14677 0.60493,-0.3383 1.14271,-0.42561 0.53778,-0.0873 1.85528,-0.37566 2.92778,-0.64076 3.80558,-0.94066 7.65926,-1.56203997 12.45,-2.00747997 3.63386,-0.33788 15.12361,-0.42690001 18.9,-0.14643 2.34002,0.17379 3.01283,0.25052 7.05,0.80402 5.01851,0.68803997 6.02546,0.84316997 8.55,1.31723997 1.485,0.27886 3.34407,0.58271 4.13127,0.67522 0.78717,0.0925 1.5039,0.28575 1.5927,0.42942 0.0888,0.14368 0.69348,0.26123 1.34373,0.26123 0.65028,0 1.1823,0.135 1.1823,0.3 0,0.165 0.6075,0.3 1.35,0.3 0.7425,0 1.35,0.135 1.35,0.3 0,0.165 0.54,0.3 1.2,0.3 0.66,0 1.2,0.135 1.2,0.3 0,0.165 0.46452,0.3 1.0323,0.3 0.56775,0 1.11573,0.135 1.2177,0.3 0.10197,0.165 0.4977,0.3 0.87942,0.3 0.38169,0 1.72791,0.3375 2.99157,0.75 1.26363,0.4125 2.56338,0.75 2.88828,0.75 0.3249,0 0.59073,0.135 0.59073,0.3 0,0.165 0.32952,0.3 0.7323,0.3 0.40275,0 0.81573,0.135 0.9177,0.3 0.10197,0.165 0.51495,0.3 0.9177,0.3 0.40278,0 0.7323,0.135 0.7323,0.3 0,0.165 0.20433,0.3 0.45408,0.3 0.24972,0 0.68847,0.12365 0.975,0.27478 0.2865,0.15113 1.06092,0.5059101 1.72092,0.7884001 2.54502,1.0893 5.10432,2.36745 5.19999,2.59694 0.055,0.13193 0.32895,0.23988 0.60879,0.23988 0.27981,0 0.70338,0.27 0.94122,0.60001 0.23784,0.33 0.55527,0.6 0.70539,0.6 0.25359,0 2.23296,1.34534 3.83499,2.60659 1.02456,0.80661 3.55962,3.50032 3.55962,3.78239 0,0.13462 0.64125,0.5274 1.425,0.87285 0.78375,0.34545 1.64334,0.87786 1.91019,1.18313 0.26685,0.30527 0.5751,0.55504 0.68499,0.55504 0.10989,0 0.64617,0.43875 1.19172,0.975 1.52364,1.49768 3.15351,2.925 3.34011,2.925 0.0924,0 0.6405,0.4725 1.218,1.05 0.5775,0.5775 1.15215,1.05 1.27701,1.05 0.12483,0 0.82368,0.54 1.55298,1.2 0.7293,0.66 1.47033,1.2 1.64676,1.2 0.17643,0 0.5154,0.27 0.75324,0.6 0.23784,0.33 0.60516,0.6 0.81624,0.6 0.21105,0 0.38376,0.1043 0.38376,0.23178 0,0.12747 0.50625,0.49872 1.125,0.825 0.61875,0.32627 1.38672,0.82947 1.70658,1.11822 0.31986,0.28875 0.75861,0.525 0.975,0.525 0.21639,0 0.39342,0.135 0.39342,0.3 0,0.165 0.2025,0.3 0.45,0.3 0.2475,0 0.45,0.135 0.45,0.3 0,0.165 0.1074,0.3 0.23862,0.3 0.13125,0 1.5825,0.7425 3.22497,1.65 1.6425,0.9075 3.2226,1.65 3.51138,1.65 0.28875,0 0.52503,0.135 0.52503,0.3 0,0.165 0.27,0.3 0.6,0.3 0.33,0 0.6,0.135 0.6,0.3 0,0.165 0.20433,0.3 0.45408,0.3 0.24972,0 0.68847,0.11925 0.975,0.265 1.10949,0.5644 2.08788,0.92091 3.82092,1.39227 0.99,0.26927 2.21457,0.61404 2.7213,0.76615 0.5067,0.15212 1.3425,0.27658 1.8573,0.27658 0.5148,0 1.01943,0.135 1.1214,0.3 0.10197,0.165 1.05495,0.3 2.1177,0.3 1.06278,0 1.9323,0.12706 1.9323,0.28236 0,0.28529 3.68073,0.52428 11.775,0.76454 2.72988,0.081 4.425,0.0206 4.425,-0.15778 0,-0.17008 1.54404,-0.28912 3.75,-0.28912 2.07651,0 3.75,-0.1229 3.75,-0.27539 0,-0.15146 0.91125,-0.34273 2.025,-0.42505 2.37699,-0.1757 5.39643,-0.64464 6.17025,-0.95829 0.86046,-0.34878 2.00475,0.42676 2.00475,1.35873 0,0.86368 -0.6765,1.34731 -2.25,1.60852 -0.495,0.0822 -1.98,0.36338 -3.3,0.6249 -4.03581,0.79957 -8.09832,1.40686 -13.5,2.01804 -4.12158,0.46634 -19.86222,0.47241 -22.95,0.009 -3.9384,-0.59126 -8.10435,-1.37086 -11.55,-2.16141 -0.825,-0.18929 -1.93875,-0.41625 -2.475,-0.50435 -0.53625,-0.0881 -0.975,-0.28043 -0.975,-0.42738 0,-0.14695 -0.33933,-0.26718 -0.75408,-0.26718 -0.41472,0 -1.02222,-0.135 -1.35,-0.3 -0.32775,-0.165 -0.86409,-0.435 -1.19184,-0.6 -0.32778,-0.165 -0.86778,-0.3 -1.2,-0.3 -0.33225,0 -0.60408,-0.135 -0.60408,-0.3 0,-0.165 -0.3375,-0.3 -0.75,-0.3 -0.4125,0 -0.75,-0.10127 -0.75,-0.22506 0,-0.12378 -0.84375,-0.48871 -1.875,-0.81095 -1.84236,-0.5757 -2.3313,-0.76511 -3.52092,-1.36399 -0.32778,-0.165 -0.80028,-0.3 -1.05,-0.3 -0.24975,0 -0.45408,-0.135 -0.45408,-0.3 0,-0.165 -0.3375,-0.3 -0.75,-0.3 -0.4125,0 -0.75,-0.135 -0.75,-0.3 0,-0.165 -0.27,-0.3 -0.6,-0.3 -0.33,0 -0.6,-0.135 -0.6,-0.3 0,-0.165 -0.3105,-0.3 -0.69,-0.3 -0.3795,0 -0.81825,-0.10744 -0.975,-0.23875 -0.15675,-0.13132 -0.825,-0.41686 -1.485,-0.63453 -0.66,-0.21768 -1.6725,-0.5965 -2.25,-0.84183 -0.5775,-0.24534 -1.3875,-0.58305 -1.8,-0.75048 -0.4125,-0.16742 -0.98442,-0.42366 -1.27092,-0.56941 -0.28653,-0.14575 -0.79278,-0.265 -1.125,-0.265 -0.33225,0 -0.60408,-0.135 -0.60408,-0.3 0,-0.165 -0.3375,-0.3 -0.75,-0.3 -0.4125,0 -0.75,-0.10552 -0.75,-0.2345 0,-0.12898 -0.64125,-0.41992 -1.425,-0.64654 -0.78375,-0.22662 -2.1675,-0.74622 -3.075,-1.15466 -0.9075,-0.40844 -2.01237,-0.72353 -2.45529,-0.7002 -0.44289,0.0233 -0.88962,-0.094 -0.9927,-0.26083 -0.10308,-0.1668 -0.51696,-0.30327 -0.91971,-0.30327 -0.40278,0 -0.7323,-0.11333 -0.7323,-0.25184 0,-0.43272 -1.47546,-0.94816 -2.71413,-0.94816 -0.65223,0 -1.18587,-0.135 -1.18587,-0.3 0,-0.165 -0.59952,-0.3 -1.3323,-0.3 -0.73275,0 -1.40466,-0.11709 -1.4931,-0.2602 -0.0885,-0.14312 -0.73767,-0.33527 -1.4427,-0.427 -0.70506,-0.0917 -2.2269,-0.389 -3.3819,-0.66061 -1.155,-0.2716 -2.74125,-0.56913 -3.525,-0.66118 -0.78375,-0.092 -1.425,-0.28517 -1.425,-0.42918 0,-0.144 -0.648,-0.26183 -1.44,-0.26183 -0.792,0 -1.56825,-0.12312 -1.725,-0.2736 -0.15675,-0.15048 -1.0275,-0.34621 -1.935,-0.43496 -0.9075,-0.0887 -2.5275,-0.30183 -3.6,-0.47352 -5.88418,-0.94198 -9.79976,-1.47371 -17.85,-2.42398 -4.16785,-0.49199 -15.42675,-0.22989 -18.6,0.43299 -1.32,0.27574 -2.83875,0.57725 -3.375,0.67003 -0.53625,0.0928 -0.975,0.28892 -0.975,0.43587 0,0.14694 -0.32953,0.26717 -0.73229,0.26717 -0.40277,0 -0.81573,0.135 -0.91771,0.3 -0.10198,0.165 -0.51494,0.3 -0.91771,0.3 -0.40276,0 -0.73229,0.135 -0.73229,0.3 0,0.165 -0.27,0.3 -0.6,0.3 -0.33,0 -0.6,0.10205 -0.6,0.22677 0,0.12472 -0.43875,0.42096 -0.975,0.6583 -0.53625,0.23734 -1.11,0.5483 -1.275,0.69102 -0.165,0.14272 -0.74598,0.5239 -1.29107,0.84706 -0.87563,0.51914 -0.93928,0.63936 -0.54643,1.03221 0.24456,0.24456 0.62698,0.44464 0.84984,0.44464 0.22286,0 0.59981,0.27 0.83766,0.6 0.23785,0.33 0.5939,0.6 0.79123,0.6 0.19732,0 0.40377,0.12076 0.45877,0.26835 0.11577,0.31065 1.70078,1.28624 3.325,2.04656 0.61875,0.28965 1.125,0.62979 1.125,0.75586 0,0.12608 0.2025,0.22923 0.45,0.22923 0.2475,0 0.45,0.135 0.45,0.3 0,0.165 0.2025,0.3 0.45,0.3 0.2475,0 0.45,0.135 0.45,0.3 0,0.165 0.27,0.3 0.6,0.3 0.33,0 0.6,0.11255 0.6,0.2501 0,0.13755 0.7425,0.63856 1.65,1.11334 0.9075,0.47479 1.65,0.96065 1.65,1.07969 0,0.11904 0.27434,0.30351 0.60964,0.40993 0.3353,0.10642 0.93667,0.52052 1.33636,0.92022 0.3997,0.3997 0.79582,0.72673 0.88027,0.72673 0.60122,0 5.57373,5.08719 5.57373,5.70228 0,0.16374 0.135,0.29772 0.3,0.29772 0.165,0 0.3,0.2025 0.3,0.45 0,0.2475 0.135,0.45 0.3,0.45 0.165,0 0.3,0.2025 0.3,0.45 0,0.2475 0.135,0.45 0.3,0.45 0.165,0 0.3,0.25875 0.3,0.575 0,0.31625 0.10342,0.62 0.22983,0.675 0.25739,0.11198 1.61166,4.13294 2.13173,6.3293 0.60825,2.56879 0.43089,6.41842 -0.40145,8.71316 -0.86653,2.38901 -1.89659,4.36022 -2.63511,5.04273 -0.28875,0.26685 -0.525,0.58119 -0.525,0.69852 0,0.2639 -2.01066,2.20471 -3.12486,3.01629 -0.45305,0.33 -1.18404,0.90571 -1.62443,1.27936 -0.44039,0.37365 -1.17196,0.84536 -1.62571,1.04824 -0.45375,0.20288 -0.825,0.45453 -0.825,0.55924 0,0.1047 -0.405,0.35813 -0.9,0.56316 -0.495,0.20504 -0.9,0.49142 -0.9,0.6364 0,0.14498 -0.20433,0.2636 -0.45407,0.2636 -0.24974,0 -0.68849,0.12846 -0.975,0.28547 -0.28651,0.157 -1.06093,0.50585 -1.72093,0.77522 -0.66,0.26936 -1.43442,0.6134 -1.72093,0.76453 -0.28651,0.15113 -0.72526,0.27478 -0.975,0.27478 -0.24974,0 -0.45407,0.135 -0.45407,0.3 0,0.165 -0.3375,0.3 -0.75,0.3 -0.4125,0 -0.75,0.135 -0.75,0.3 0,0.165 -0.27183,0.3 -0.60407,0.3 -0.33224,0 -0.83849,0.11925 -1.125,0.265 -0.97286,0.49489 -2.01869,0.88934 -2.77093,1.04508 -0.4125,0.0854 -1.56,0.3757 -2.55,0.6451 -4.7724,1.29867 -8.84821,2.14362 -11.7,2.4255 -0.825,0.0815 -1.77,0.27114 -2.1,0.42131 -0.33,0.15018 -1.41,0.34264 -2.4,0.42769 -0.99,0.085 -2.88,0.27906 -4.2,0.43114 -13.52814,1.55858 -26.75577,1.55936 -41.4,0.002 -1.485,-0.15788 -3.645,-0.35972 -4.8,-0.44853 -1.155,-0.0888 -2.22825,-0.28595 -2.385,-0.4381 -0.15675,-0.15211 -1.19503,-0.27659 -2.30729,-0.27659 -1.11227,0 -2.10573,-0.135 -2.20771,-0.3 -0.10198,-0.165 -1.18115,-0.3 -2.39818,-0.3 -1.21702,0 -2.5928,-0.15751 -3.05729,-0.35001 -0.46449,-0.19251 -1.72203,-0.38847 -2.79453,-0.43547 -3.19171,-0.13988 -7.32836,-0.55047 -7.65,-0.75931 -0.165,-0.10714 -1.92,-0.29084 -3.9,-0.40823 -1.98,-0.11739 -3.73016,-0.29183 -3.88925,-0.38763 -0.47205,-0.28426 -6.51937,-0.69739 -12.38575,-0.84614 -3.1905,-0.0809 -5.475,-0.25866 -5.475,-0.42602 0,-0.17583 -3.14088,-0.28719 -8.1,-0.28719 -4.92236,0 -8.100004,0.11194 -8.100004,0.28533 0,0.16242 -1.97068,0.33994 -4.575,0.41211 -4.99099,0.13831 -8.95173,0.53358 -12.675,1.26493 -1.32,0.25928 -2.9071,0.54558 -3.52688,0.63621 -0.619789,0.0906 -1.201499,0.28554 -1.292699,0.43311 -0.0912,0.14757 -0.63036,0.26831 -1.19813,0.26831 -0.56776,0 -1.03229,0.135 -1.03229,0.3 0,0.165 -0.3375,0.3 -0.75,0.3 -0.4125,0 -0.75,0.135 -0.75,0.3 0,0.165 -0.3375,0.3 -0.75,0.3 -0.4125,0 -0.75,0.135 -0.75,0.3 0,0.165 -0.3375,0.3 -0.75,0.3 -0.4125,0 -0.75,0.135 -0.75,0.3 0,0.165 -0.21541,0.3 -0.478689,0.3 -0.26328,0 -0.90453,0.30374 -1.425,0.67498 l -0.94636,0.67544 1.35,0.24233 c 0.7425,0.13328 1.957499,0.30908 2.699999,0.39068 0.7425,0.0816 1.62,0.2739 1.95,0.42734 0.8266,0.38437 6.619469,0.59093 20.549999,0.73276 26.026414,0.26499 35.866214,1.00281 40.081884,3.00547 1.1075,0.52611 1.82416,0.68029 2.58686,0.55652 0.63021,-0.10227 1.13786,-0.0371 1.26083,0.16187 0.11321,0.18318 0.53537,0.33306 0.93814,0.33306 0.40276,0 0.73229,0.135 0.73229,0.3 0,0.165 0.3375,0.3 0.75,0.3 0.4125,0 0.75,0.135 0.75,0.3 0,0.165 0.405,0.3 0.9,0.3 0.495,0 0.9,0.135 0.9,0.3 0,0.165 0.25875,0.3 0.575,0.3 0.31625,0 0.62,0.10125 0.675,0.225 0.055,0.12375 0.94375,0.62107 1.975,1.10516 1.03125,0.48409 1.875,0.99034 1.875,1.125 0,0.13466 0.2025,0.24484 0.45,0.24484 0.2475,0 0.45,0.135 0.45,0.3 0,0.165 0.17612,0.3 0.39137,0.3 0.71817,0 6.50863,5.50591 6.50863,6.18879 0,0.0927 0.24895,0.52693 0.55322,0.9649 0.90983,1.30961 2.74678,4.87005 2.74678,5.32391 0,0.23232 0.135,0.4224 0.3,0.4224 0.165,0 0.3,0.27 0.3,0.6 0,0.33 0.135,0.6 0.3,0.6 0.165,0 0.3,0.3375 0.3,0.75 0,0.4125 0.135,0.75 0.3,0.75 0.165,0 0.3,0.405 0.3,0.9 0,0.495 0.12023,0.9 0.26718,0.9 0.14695,0 0.33423,0.43875 0.41618,0.975 0.082,0.53625 0.3859,2.19 0.67544,3.675 1.05723,5.42243 0.56004,14.01383 -1.0417,18 -0.42487,1.05736 -1.65366,3.59489 -1.81592,3.75 -0.0863,0.0825 -0.42563,0.66449 -0.75405,1.2933 -0.32842,0.62881 -1.09955,1.70881 -1.71362,2.4 -0.61406,0.69118 -1.12031,1.37095 -1.125,1.51059 -0.0101,0.30165 -3.96223,4.08581 -4.27351,4.0919 -0.11825,0.002 -0.6875,0.47671 -1.265,1.05421 -0.5775,0.5775 -1.1277,1.05 -1.22266,1.05 -0.095,0 -0.33572,0.13546 -0.535,0.30103 -0.87838,0.72974 -3.52601,2.39897 -3.80511,2.39897 -0.16898,0 -0.30723,0.135 -0.30723,0.3 0,0.165 -0.2025,0.3 -0.45,0.3 -0.2475,0 -0.45,0.135 -0.45,0.3 0,0.165 -0.27,0.3 -0.6,0.3 -0.33,0 -0.6,0.135 -0.6,0.3 0,0.165 -0.25875,0.3 -0.575,0.3 -0.31625,0 -0.62,0.10125 -0.675,0.225 -0.14084,0.31688 -3.47035,1.875 -4.00665,1.875 -0.24384,0 -0.44335,0.135 -0.44335,0.3 0,0.165 -0.27,0.3 -0.6,0.3 -0.33,0 -0.6,0.135 -0.6,0.3 0,0.165 -0.3375,0.3 -0.75,0.3 -0.4125,0 -0.75,0.135 -0.75,0.3 0,0.165 -0.20433,0.3 -0.45407,0.3 -0.24974,0 -0.68849,0.11925 -0.975,0.265 -1.76324,0.89696 -6.31151,2.435 -7.20078,2.435 -0.34911,0 -0.71817,0.135 -0.82015,0.3 -0.10198,0.165 -0.57448,0.3 -1.05,0.3 -0.47552,0 -0.94802,0.135 -1.05,0.3 -0.10198,0.165 -0.71744,0.3 -1.36771,0.3 -0.65026,0 -1.18229,0.135 -1.18229,0.3 0,0.165 -0.6075,0.3 -1.35,0.3 -0.7425,0 -1.35,0.12301 -1.35,0.27335 0,0.27995 -0.69472,0.36574 -7.2,0.88913 -5.88599,0.47357 -8.512974,0.60846 -9.000004,0.46216 z"
     id="path3505"
     inkscape:connector-curvature="0" />
  <path
     style="fill:#000000;stroke:#ffffff;stroke-width:0.1910418;stroke-miterlimit:4;stroke-dasharray:1.52833438, 1.52833438;stroke-dashoffset:0;stroke-opacity:1"
     d="m 138.8635,127.45335 c -0.50224,0.24232 -0.70042,0.26228 -1.08536,0.10927 -0.4177,-0.16605 -0.52266,-0.31481 -0.92842,-1.31629 l -0.45747,-1.12913 -0.79603,0.28575 c -1.02218,0.36697 -2.56713,0.50275 -3.89894,0.34264 -1.43881,-0.17299 -4.10753,-1.1348 -7.17732,-2.58679 -1.35338,-0.64012 -2.5118,-1.14183 -2.57425,-1.11489 -0.0625,0.027 -0.0799,0.30489 -0.039,0.61768 0.1435,1.09391 -0.10416,1.50013 -0.94602,1.5516 -0.54315,0.0332 -0.72034,-0.008 -0.91823,-0.21428 -0.38249,-0.39848 -0.53863,-1.44471 -0.32526,-2.17969 0.10269,-0.35533 0.15248,-0.69296 0.10974,-0.75052 -0.0427,-0.0576 -1.22486,-0.44957 -2.62679,-0.87136 -3.11317,-0.93677 -6.84986,-2.41473 -7.86473,-3.11171 -0.71227,-0.48911 -0.71884,-0.49087 -0.93953,-0.25001 -0.42416,0.463 -1.50954,0.8904 -2.09034,0.82316 -1.44116,-0.1669 -2.5936,-1.69725 -2.43165,-3.22907 0.072,-0.68126 0.49673,-1.52492 0.97801,-1.94305 0.29404,-0.25542 0.30285,-0.31394 0.13783,-0.91594 -1.28512,-4.68792 1.89513,-13.310906 5.76687,-15.636282 0.45095,-0.270841 0.49412,-0.336593 0.49004,-0.746099 -0.0162,-1.615113 0.47143,-2.449124 1.75273,-2.998235 0.78645,-0.337041 1.58982,-0.373877 2.26881,-0.103983 0.7777,0.309114 1.51105,1.378815 1.52317,2.221764 0.006,0.384725 0.0514,0.439095 0.42381,0.501739 2.24936,0.3784 5.42286,1.366711 9.22114,2.87169 1.66121,0.658323 2.24255,0.843543 2.32543,0.741308 0.0608,-0.07498 0.22528,-0.326745 0.36556,-0.559504 0.31402,-0.521061 1.01346,-1.013799 1.53902,-1.084188 0.35648,-0.04774 0.43864,-0.005 0.8638,0.448506 0.43617,0.46533 0.45654,0.534682 0.28403,0.967367 -0.10176,0.256513 -0.35535,0.593606 -0.56255,0.749458 l -0.37675,0.283359 3.15795,1.2029 c 2.45625,0.93563 3.41866,1.35737 4.33099,1.89874 2.17628,1.29099 3.81347,2.85141 4.59203,4.37675 l 0.28471,0.55784 0.54444,-0.29962 c 0.29942,-0.16475 0.83899,-0.34468 1.19904,-0.39975 1.04161,-0.15934 1.49825,0.13748 1.66561,1.08253 0.13039,0.73638 -0.12461,1.03167 -1.28342,1.48637 -1.51283,0.5936 -1.43968,0.50783 -1.41212,1.65592 0.0917,3.81832 -1.86217,9.0907 -4.39084,11.84869 -0.51386,0.56044 -0.52495,0.58636 -0.50076,1.17069 0.0136,0.32865 0.13427,0.92773 0.26829,1.33131 0.28178,0.84861 0.36448,1.47451 0.23689,1.79299 -0.049,0.12324 -0.36615,0.35727 -0.70409,0.52031 z m 0.50996,-1.17652 c -0.0201,-0.18113 -0.1586,-0.71963 -0.3084,-1.19655 -0.14963,-0.47694 -0.26308,-0.99245 -0.25221,-1.14555 0.0191,-0.27022 -0.17159,-0.47353 -0.25271,-0.26934 -0.0219,0.0558 -0.44392,0.37847 -0.93723,0.71722 -0.49332,0.33872 -0.88548,0.69776 -0.87149,0.79785 0.17292,1.23602 0.88769,2.33071 1.47808,2.26368 0.29977,-0.0341 0.29804,-0.0584 -0.0387,-0.54559 -0.45124,-0.65269 -0.44044,-0.62939 -0.31609,-0.683 0.0583,-0.0251 0.22498,0.13842 0.3704,0.3635 0.26239,0.40606 0.63804,0.64612 0.86075,0.55008 0.17898,-0.0772 0.30788,-0.48763 0.26739,-0.85238 z m 7.08305,-18.47438 c -0.0369,-0.1978 -0.13731,-0.22279 -0.71938,-0.17965 -0.37194,0.0276 -0.65389,-0.006 -0.6266,-0.0748 0.0276,-0.0685 0.28417,-0.14053 0.5708,-0.15966 0.787,-0.0526 0.63393,-0.52346 -0.20656,-0.6354 -0.39413,-0.0525 -1.99127,0.53546 -2.08326,0.76695 -0.0337,0.085 0.002,0.26858 0.0787,0.40806 0.0771,0.13946 0.19574,0.54492 0.26368,0.90104 l 0.12358,0.64747 1.22612,-0.47757 c 1.20047,-0.46758 1.46629,-0.69921 1.37294,-1.19639 z m -2.88608,5.33739 c 0.21302,-1.75528 0.18899,-2.90616 -0.088,-4.21591 -0.81826,-3.86986 -4.19935,-6.60839 -10.85246,-8.79011 -1.36805,-0.448595 -4.57959,-1.59154 -7.13675,-2.539827 -5.60493,-2.078514 -7.08267,-2.487237 -9.62393,-2.661841 -3.14935,-0.216398 -5.83502,1.174685 -7.71738,3.997332 -1.96668,2.949096 -3.35011,7.545086 -3.20332,10.641906 0.16083,3.39258 1.88435,5.88446 5.39735,7.80352 1.40029,0.76494 2.9018,1.34021 5.71798,2.19075 2.92796,0.88462 6.13254,2.13222 8.15664,3.17646 1.90449,0.98255 5.20314,2.30171 6.4069,2.56218 3.67883,0.79607 6.47548,-0.15853 8.91212,-3.04201 1.40236,-1.65957 1.87094,-2.50948 2.92641,-5.308 0.82397,-2.18514 0.96616,-2.67583 1.10433,-3.81442 z m -24.37509,-5.28107 c -0.33081,0.24944 -0.37259,0.33029 -0.30524,0.5906 0.0432,0.16581 0.016,0.4577 -0.0599,0.64848 -0.18261,0.45938 -0.75934,0.57115 -1.61558,0.31305 -0.57154,-0.17222 -0.72018,-0.16022 -1.06637,0.0863 -0.82209,0.58557 -1.97107,-0.0329 -2.07178,-1.1154 -0.0235,-0.25152 -0.16843,-0.57219 -0.32228,-0.7126 -0.92168,-0.84112 -0.0622,-3.06981 1.14123,-2.9594 0.2772,0.0255 0.57583,-0.0802 0.8297,-0.29329 0.80941,-0.67965 1.7858,-0.61983 2.22474,0.1363 0.16525,0.28467 0.18014,0.50249 0.0559,0.81521 l -0.16964,0.42675 0.79002,0.31405 c 0.5965,0.2371 0.81568,0.38601 0.89476,0.60796 0.17687,0.49643 0.0801,0.83607 -0.32559,1.14192 z m -0.57285,0.64709 c -0.11637,-0.39249 -0.20544,-0.46155 -1.00577,-0.77967 l -0.87809,-0.34903 -0.0674,0.36971 c -0.17991,0.98793 -0.12192,1.14104 0.53031,1.40027 0.42743,0.16989 0.73718,0.20393 1.03949,0.11434 0.51887,-0.15383 0.54469,-0.2049 0.38137,-0.75568 z m 0.75771,-1.53003 c -0.028,-0.24599 -0.17046,-0.34663 -0.90346,-0.63797 -0.94213,-0.37444 -0.95854,-0.36955 -1.56125,0.46717 -0.19781,0.27465 -0.19604,0.27616 0.77039,0.66029 1.2635,0.50224 1.78967,0.3502 1.69432,-0.48952 z m -1.55036,-1.9499 c -0.0465,-0.41714 -0.25216,-0.76511 -0.51806,-0.8767 -0.28043,-0.11762 -1.16471,0.19099 -1.57953,0.55132 -0.30538,0.26528 -0.32772,0.32266 -0.22839,0.5879 0.23224,0.6222 -0.38275,2.33763 -0.92133,2.56981 -0.33519,0.14449 -0.37375,0.49225 -0.10919,0.9847 0.28914,0.53822 0.76208,0.78114 1.28128,0.6581 0.42058,-0.0992 0.62253,-0.52729 0.65628,-1.38905 0.0313,-0.79877 0.34289,-1.52019 0.90357,-2.09195 0.55374,-0.56467 0.56184,-0.5803 0.51572,-0.994 z m -5.34831,7.14734 c -1.21195,1.613 -3.32009,1.92958 -4.99434,0.75 -0.48976,-0.34507 -0.67972,-0.60574 -1.01688,-1.39561 -0.47618,-1.11548 -0.48399,-2.03753 -0.0272,-3.1871 0.92908,-2.33744 3.57744,-3.15896 5.49433,-1.7043 1.59577,1.21096 1.85001,3.79881 0.54398,5.53701 z m 0.59838,-2.72669 c -0.0546,-1.4508 -0.76598,-2.52658 -1.98828,-3.00679 -1.8703,-0.73471 -3.62933,0.0263 -4.38565,1.89767 -0.85903,2.1255 -0.1665,4.0693 1.71647,4.81773 2.38197,0.94671 4.76136,-0.94792 4.65746,-3.70861 z m -3.373,3.14467 c -0.64162,0.24819 -1.2412,-0.0168 -1.52447,-0.67382 -0.41925,-0.97233 0.38469,-1.73254 1.4038,-1.32748 1.00787,0.40059 1.08197,1.62946 0.12067,2.0013 z m 0.0511,-1.61723 c -0.12902,-0.0246 -0.26737,0.0379 -0.30744,0.13877 -0.0406,0.10073 0.0176,0.24119 0.12832,0.31192 0.14117,0.0902 0.23292,0.0488 0.30745,-0.13876 0.075,-0.18736 0.0362,-0.28061 -0.12832,-0.31192 z m 5.93655,-7.7817 c -1.94842,2.95542 -6.33033,1.62538 -6.46742,-1.96261 -0.0311,-0.81286 0.38328,-2.169841 0.85474,-2.799791 0.50954,-0.680691 1.46304,-1.199226 2.41326,-1.312381 1.08954,-0.129754 2.46403,0.365182 3.10364,1.117636 1.05912,1.245876 1.10126,3.432126 0.0956,4.957576 z m 0.47715,-1.94713 c 0.2607,-1.546023 -0.56377,-3.112501 -1.9224,-3.652517 -1.31445,-0.52245 -2.58679,-0.324907 -3.55141,0.551409 -0.53684,0.487682 -0.63371,0.650058 -0.94914,1.590851 -0.39262,1.171037 -0.38795,1.869177 0.019,2.839277 0.9497,2.2639 3.81589,2.71053 5.42227,0.84495 0.56969,-0.66163 0.82016,-1.21635 0.98166,-2.17397 z m -2.96913,2.34752 c -0.38964,0.30981 -0.7226,0.35214 -1.22813,0.15608 -1.08981,-0.42258 -0.98584,-1.92349 0.14098,-2.03533 0.65458,-0.0649 1.05295,0.15797 1.29805,0.72644 0.23368,0.54202 0.17862,0.8431 -0.2109,1.15281 z m -0.21007,-1.35576 c -0.17256,-0.15907 -0.32902,-0.11455 -0.42196,0.1193 -0.037,0.0912 0.0458,0.21063 0.18302,0.265 0.28306,0.11268 0.46339,-0.1774 0.23892,-0.38431 z m 8.69837,20.45884 c -0.0674,-0.86663 -0.18467,-1.01886 -1.05352,-1.36743 -0.60975,-0.24459 -0.67513,-0.16671 -0.76836,0.91486 -0.0646,0.74986 0.21961,1.60452 0.58147,1.74834 0.19288,0.077 0.24803,0.0288 0.28481,-0.24724 0.0529,-0.39659 0.1785,-0.39749 0.28079,-0.002 0.0607,0.23253 0.11233,0.26177 0.33748,0.18853 0.36288,-0.11805 0.41065,-0.2929 0.3373,-1.23513 z m 9.94725,-24.970364 c -0.10328,-0.189226 -0.18335,-0.210965 -0.43316,-0.11772 -0.41598,0.155272 -0.53,0.08704 -0.22697,-0.135873 0.33123,-0.243661 0.22728,-0.434014 -0.24747,-0.453093 -0.4408,-0.0177 -1.18417,0.538906 -1.59588,1.194935 l -0.2732,0.435311 0.7603,0.214855 c 1.05317,0.297596 1.06654,0.295972 1.57389,-0.192454 0.54958,-0.529055 0.60519,-0.647961 0.44245,-0.94599 z m -23.78532,18.301634 -0.54404,-0.45733 -0.38209,0.2218 c -0.68458,0.3974 -1.59076,-0.25553 -1.35955,-0.9796 0.0418,-0.13108 0.1624,-0.36612 0.26798,-0.52241 0.15737,-0.23312 0.122,-0.42559 -0.19608,-1.07074 l -0.38793,-0.78655 -0.36584,0.37419 c -0.41226,0.42168 -0.80533,1.31019 -0.81326,1.8383 -0.008,0.57246 0.41559,1.58629 0.85463,2.04266 0.80487,0.83663 1.85825,0.96343 2.83792,0.34159 0.30586,-0.19412 0.57323,-0.39608 0.59417,-0.44878 0.0208,-0.0528 -0.20673,-0.3016 -0.50594,-0.55313 z m 8.19667,-22.995637 c -0.56946,-0.730134 -1.28845,-0.978231 -2.33329,-0.805131 -1.38482,0.229424 -2.22482,1.189133 -2.22174,2.538318 8e-4,0.319098 0.0346,0.593401 0.0753,0.609553 0.21187,0.08411 1.22611,-0.476983 1.32873,-0.735168 0.28058,-0.706004 1.14289,-0.878777 1.62255,-0.325108 0.22016,0.254148 0.37505,0.300802 1.16696,0.351542 l 0.9131,0.05849 -0.08,-0.595312 c -0.0442,-0.328032 -0.25578,-0.820645 -0.47153,-1.097206 z"
     id="path4424"
     inkscape:connector-curvature="0" />
  <path
     style="fill:#000000;stroke:#ffffff;stroke-width:0.2;stroke-miterlimit:4;stroke-dasharray:1.6, 1.6;stroke-dashoffset:0;stroke-opacity:1"
     d="m 99.832646,52.179629 c 0.463464,-0.393138 0.667054,-0.468448 1.115024,-0.412444 0.48609,0.06077 0.6375,0.188978 1.33975,1.134339 l 0.79173,1.065822 0.76144,-0.519377 c 0.97783,-0.666975 2.57037,-1.233182 4.01909,-1.42893 1.56512,-0.211473 4.64362,0.07245 8.2794,0.763591 1.60292,0.304703 2.96227,0.516771 3.02078,0.471263 0.0586,-0.04551 8.6e-4,-0.343516 -0.12799,-0.662251 -0.45089,-1.114649 -0.30085,-1.610953 0.57309,-1.895761 0.56388,-0.183751 0.76211,-0.188645 1.0273,-0.02536 0.51258,0.315605 0.96371,1.376521 0.93988,2.21025 -0.0115,0.402942 0.0288,0.772735 0.0898,0.821745 0.0609,0.04901 1.41516,0.139006 3.00952,0.199942 3.54049,0.135347 7.88686,0.671801 9.14828,1.129152 0.88523,0.320954 0.89266,0.320998 1.05951,0.0064 0.32067,-0.604549 1.34859,-1.352584 1.97969,-1.440658 1.56592,-0.218535 3.2006,1.080269 3.44916,2.740486 0.11057,0.738362 -0.10641,1.744595 -0.49967,2.317426 -0.24025,0.349954 -0.23352,0.414118 0.10531,1.00396 2.63916,4.593308 1.64531,14.560176 -1.80217,18.073233 -0.40152,0.409154 -0.42908,0.490345 -0.31264,0.921203 0.45922,1.699322 0.17323,2.71259 -1.02802,3.642638 -0.73732,0.570859 -1.5747,0.829661 -2.36483,0.730876 -0.905,-0.113143 -1.97148,-1.040751 -2.21505,-1.92664 -0.11125,-0.404318 -0.1745,-0.449104 -0.58446,-0.413233 -2.47637,0.216681 -6.09462,0.04303 -10.51337,-0.504585 -1.9326,-0.239653 -2.59656,-0.275815 -2.656,-0.145296 -0.0436,0.09571 -0.14817,0.406349 -0.23242,0.690289 -0.1886,0.635625 -0.79151,1.346904 -1.32664,1.565054 -0.36296,0.147967 -0.46131,0.125462 -1.03399,-0.236609 -0.58752,-0.371448 -0.62799,-0.439022 -0.56451,-0.942665 0.0375,-0.298393 0.21231,-0.723473 0.38823,-0.944609 l 0.31985,-0.402068 -3.6606,-0.404279 c -2.84721,-0.314466 -3.9779,-0.495848 -5.08852,-0.817144 -2.64916,-0.765952 -4.8034,-1.963753 -6.04232,-3.359642 l -0.45307,-0.510482 -0.49226,0.465126 c -0.270764,0.255817 -0.790694,0.593301 -1.155404,0.749964 -1.05518,0.453242 -1.61811,0.265204 -2.05338,-0.685885 -0.33917,-0.741096 -0.15105,-1.122398 0.94686,-1.919327 1.43332,-1.040373 1.37966,-0.929877 1.03623,-2.133413 -1.14212,-4.002754 -0.52464,-10.099392 1.387704,-13.701061 0.38861,-0.731891 0.3932,-0.762264 0.20779,-1.372022 -0.10432,-0.342956 -0.39569,-0.941863 -0.647544,-1.330899 -0.52955,-0.818041 -0.78815,-1.455645 -0.74078,-1.826531 0.0184,-0.143365 0.28842,-0.477105 0.60025,-0.74163 z m -0.21583,1.380688 c 0.0707,0.185632 0.3645,0.715633 0.652894,1.177796 0.28841,0.462155 0.54926,0.97487 0.5797,1.139367 0.0536,0.290287 0.31063,0.452539 0.34032,0.214934 0.008,-0.06486 0.36465,-0.520789 0.7923,-1.013181 0.42764,-0.492389 0.74302,-0.978499 0.70086,-1.08024 -0.52082,-1.256517 -1.57454,-2.215584 -2.17896,-1.983219 -0.30689,0.117986 -0.2984,0.143196 0.19028,0.564901 0.65467,0.564956 0.63692,0.543337 0.52042,0.633943 -0.0547,0.04247 -0.27521,-0.08445 -0.49024,-0.28203 -0.38799,-0.356506 -0.849974,-0.506898 -1.058624,-0.344613 -0.16767,0.130402 -0.19124,0.598686 -0.049,0.972342 z m -2.41353,21.427418 c 0.0932,0.198432 0.20589,0.197392 0.80804,-0.0074 0.38479,-0.130893 0.69145,-0.172577 0.68146,-0.09264 -0.0104,0.07994 -0.26127,0.226071 -0.55838,0.324732 -0.81582,0.270891 -0.52541,0.725735 0.39184,0.613713 0.43009,-0.05254 1.953894,-1.110067 1.987574,-1.379407 0.0124,-0.09887 -0.0752,-0.282874 -0.19475,-0.408898 -0.11948,-0.126012 -0.355654,-0.521254 -0.524824,-0.87831 l -0.30759,-0.649184 -1.16264,0.839482 c -1.13833,0.821929 -1.35532,1.139043 -1.12073,1.637931 z m 1.5831,-6.420443 c 0.25589,1.909925 0.59632,3.117373 1.247054,4.423159 1.92276,3.858166 6.23914,5.821259 13.85466,6.301112 1.56593,0.09866 5.26663,0.425011 8.22376,0.725204 6.48156,0.657973 8.15231,0.684524 10.88082,0.172936 3.38143,-0.634009 5.83359,-2.836731 7.04642,-6.329651 1.26716,-3.649378 1.46813,-8.876338 0.46537,-12.102911 -1.09852,-3.534697 -3.59887,-5.691421 -7.83006,-6.753953 -1.68656,-0.423526 -3.42801,-0.619255 -6.63157,-0.745369 -3.33086,-0.13112 -7.05285,-0.570156 -9.47391,-1.117527 -2.27802,-0.515021 -6.11885,-1.003424 -7.45999,-0.948592 -4.09866,0.167497 -6.7874,1.940182 -8.56827,5.649038 -1.024954,2.134585 -1.286534,3.15943 -1.633704,6.400499 -0.27106,2.530622 -0.28658,3.087189 -0.12058,4.326078 z m 27.158554,-1.10289 c 0.28064,-0.353707 0.30259,-0.450413 0.16032,-0.706593 -0.0906,-0.163245 -0.14215,-0.478438 -0.1144,-0.700444 0.0668,-0.534583 0.64462,-0.810394 1.61851,-0.772597 0.65004,0.02524 0.80357,-0.02818 1.10122,-0.383066 0.70688,-0.842792 2.08827,-0.50486 2.49087,0.609343 0.0935,0.258927 0.33433,0.557489 0.53506,0.663473 1.20254,0.634935 0.90614,3.22122 -0.3936,3.434261 -0.29935,0.04907 -0.5855,0.242196 -0.7949,0.536543 -0.66776,0.938566 -1.7141,1.142794 -2.38416,0.465346 -0.25225,-0.255041 -0.32764,-0.480725 -0.28214,-0.844644 l 0.0622,-0.496613 -0.91934,-0.114935 c -0.69416,-0.08679 -0.96614,-0.183866 -1.11032,-0.39634 -0.3225,-0.475258 -0.31336,-0.860041 0.0308,-1.293735 z m 0.42712,-0.839442 c 0.2302,0.382179 0.34309,0.430632 1.27442,0.547069 l 1.02184,0.127753 -0.0298,-0.408489 c -0.0807,-1.091388 -0.18376,-1.23703 -0.94279,-1.331919 -0.49738,-0.06218 -0.83345,-0.01332 -1.12783,0.163995 -0.50524,0.304323 -0.51846,0.365319 -0.19545,0.90156 z m -0.38038,1.821438 c 0.0969,0.251838 0.27472,0.318986 1.12768,0.42563 1.09637,0.137064 1.11233,0.127386 1.51903,-0.92027 0.13348,-0.343881 0.13119,-0.345002 -0.99343,-0.485602 -1.47036,-0.183827 -1.98377,0.120581 -1.65328,0.980242 z m 2.1693,1.632415 c 0.16329,0.427297 0.47546,0.738073 0.78652,0.782981 0.32801,0.04733 1.17633,-0.520368 1.51525,-1.014054 0.24952,-0.363443 0.25737,-0.430078 0.0804,-0.682638 -0.41533,-0.592749 -0.23623,-2.570704 0.26825,-2.963081 0.314,-0.244226 0.25949,-0.621587 -0.15444,-1.068637 -0.45235,-0.48859 -1.01778,-0.615343 -1.53176,-0.343399 -0.41629,0.22025 -0.51234,0.726672 -0.31199,1.644968 0.18571,0.851151 0.0545,1.697475 -0.38039,2.454127 -0.42952,0.747266 -0.43379,0.765985 -0.27186,1.189734 z m 3.6849,-9.003877 c 0.83682,-2.033336 2.97395,-2.944472 5.06305,-2.158558 0.61111,0.229902 0.88285,0.452879 1.45476,1.193764 0.80773,1.046343 1.06844,2.01682 0.90119,3.354588 -0.34006,2.720085 -2.90882,4.311779 -5.32918,3.302134 -2.01489,-0.84051 -2.99162,-3.500755 -2.08982,-5.691928 z m 0.11532,3.040164 c 0.45482,1.515465 1.49979,2.455502 2.92063,2.627386 2.17407,0.263023 3.82126,-1.021524 4.10673,-3.202549 0.32424,-2.477333 -0.93851,-4.338191 -3.12973,-4.612138 -2.77185,-0.346539 -4.76309,2.30357 -3.89763,5.187301 z m 2.6971,-4.240733 c 0.60888,-0.437478 1.31393,-0.322083 1.79263,0.293396 0.70845,0.910904 0.0686,1.932939 -1.11739,1.784677 -1.17288,-0.146631 -1.58747,-1.422629 -0.67524,-2.078073 z m 0.38891,1.719947 c 0.14282,-0.0094 0.27166,-0.113152 0.28634,-0.230503 0.0147,-0.11735 -0.0847,-0.249611 -0.22079,-0.293903 -0.17362,-0.05649 -0.25905,0.01225 -0.28635,0.230501 -0.0272,0.21823 0.0386,0.305928 0.2208,0.293905 z m -4.13173,9.834109 c 1.24616,-3.651058 6.23266,-3.447773 7.35962,0.30003 0.25528,0.848978 0.18902,2.393913 -0.13516,3.187449 -0.35111,0.85754 -1.21496,1.665595 -2.18633,2.045126 -1.11384,0.435186 -2.69924,0.289419 -3.57998,-0.329164 -1.45833,-1.024263 -2.10136,-3.318931 -1.45815,-5.203441 z m 0.0297,2.184617 c 0.14832,1.702222 1.44689,3.128926 3.02794,3.326586 1.52962,0.191235 2.81766,-0.36551 3.59531,-1.55402 0.43276,-0.661419 0.4905,-0.859232 0.56564,-1.938013 0.0935,-1.342796 -0.10248,-2.07795 -0.79743,-2.989871 -1.62165,-2.128098 -4.76741,-1.814498 -5.95114,0.593274 -0.4198,0.853914 -0.53215,1.507659 -0.44032,2.562044 z m 2.48932,-3.289272 c 0.3262,-0.433489 0.66584,-0.569299 1.2528,-0.500909 1.2653,0.14745 1.56658,1.759134 0.40852,2.185632 -0.67269,0.247748 -1.15396,0.121642 -1.56815,-0.410915 -0.39492,-0.507773 -0.41925,-0.840454 -0.0934,-1.273789 z m 0.59279,1.372645 c 0.2256,0.120559 0.37841,0.03112 0.41247,-0.241394 0.0133,-0.106253 -0.10627,-0.209487 -0.26563,-0.229417 -0.32947,-0.04119 -0.44024,0.31402 -0.14684,0.470811 z m -14.7771,-19.199946 c 0.30842,0.895743 0.47381,1.024201 1.48575,1.154017 0.71013,0.09123 0.7578,-0.0089 0.56001,-1.175413 -0.1371,-0.808701 -0.67095,-1.632445 -1.09204,-1.685089 -0.2246,-0.02807 -0.26957,0.03739 -0.23275,0.338794 0.0529,0.432832 -0.0795,0.468178 -0.29568,0.07895 -0.12716,-0.228937 -0.19013,-0.245394 -0.40761,-0.106512 -0.35048,0.22384 -0.35298,0.421399 -0.0177,1.395247 z m -3.65636,29.064074 c 0.16079,0.171316 0.25116,0.172355 0.48916,0.0056 0.39629,-0.277685 0.53524,-0.236921 0.27663,0.08118 -0.2827,0.347717 -0.12089,0.52006 0.38511,0.410196 0.46983,-0.102001 1.1016,-0.892696 1.35628,-1.697441 l 0.169,-0.534001 -0.86084,-0.01848 c -1.19244,-0.02559 -1.2061,-0.02019 -1.60757,0.633929 -0.43488,0.708567 -0.461,0.84922 -0.20778,1.119036 z m 20.07961,-25.81815 0.69911,0.333451 0.34233,-0.338582 c 0.61336,-0.606651 1.74801,-0.165983 1.70237,0.661138 -0.008,0.149663 -0.0711,0.430657 -0.13964,0.624428 -0.10228,0.28899 -0.0124,0.482345 0.49993,1.075824 l 0.62459,0.723511 0.28345,-0.494895 c 0.31945,-0.557692 0.49081,-1.602568 0.35458,-2.161839 -0.14767,-0.606231 -0.8727,-1.559548 -1.46079,-1.920743 -1.07811,-0.662171 -2.22401,-0.507514 -3.08718,0.41666 -0.26949,0.288519 -0.49623,0.574754 -0.5039,0.636082 -0.007,0.06132 0.30065,0.261564 0.68515,0.444965 z m -2.35038,26.501652 c 0.80062,0.614287 1.627,0.679143 2.68176,0.21048 1.398,-0.621168 2.02134,-1.863528 1.64868,-3.285907 -0.0881,-0.336404 -0.19896,-0.616483 -0.24629,-0.6224 -0.24651,-0.03083 -1.16279,0.838864 -1.20036,1.139312 -0.10269,0.821574 -0.96499,1.239913 -1.62256,0.787187 -0.30185,-0.207808 -0.47801,-0.214619 -1.32726,-0.05132 l -0.97922,0.188293 0.24745,0.606042 c 0.13636,0.333949 0.49456,0.795629 0.7978,1.028314 z"
     id="path4424-3"
     inkscape:connector-curvature="0" />
  <path
     style="fill:#000000;stroke:#ffffff;stroke-width:0.2;stroke-miterlimit:4;stroke-dasharray:1.6, 1.6;stroke-dashoffset:0;stroke-opacity:1"
     d="m 208.02562,62.280069 c 0.18152,-0.547733 0.3094,-0.709382 0.70025,-0.885294 0.42415,-0.190897 0.61025,-0.161761 1.64669,0.257769 l 1.16851,0.472983 0.36075,-0.797308 c 0.46328,-1.023883 1.47476,-2.269784 2.55264,-3.144248 1.16449,-0.944749 3.80078,-2.235526 7.0901,-3.471479 1.45017,-0.544897 2.65708,-1.044555 2.68203,-1.110367 0.0249,-0.0659 -0.16899,-0.278969 -0.43097,-0.473701 -0.91628,-0.680971 -1.03983,-1.157517 -0.47196,-1.820216 0.3664,-0.427564 0.52469,-0.529485 0.82039,-0.52811 0.57151,0.0026 1.46145,0.639917 1.8539,1.327885 0.18973,0.332386 0.40518,0.612262 0.47873,0.621932 0.0735,0.0097 1.21607,-0.586475 2.53885,-1.324782 2.93745,-1.639501 6.72649,-3.351949 7.97516,-3.604353 0.87633,-0.17715 0.88237,-0.180782 0.86224,-0.518241 -0.0387,-0.648598 0.42515,-1.762953 0.89332,-2.146166 1.16167,-0.950853 3.12873,-0.705448 4.15051,0.517823 0.45444,0.544036 0.77569,1.467072 0.73984,2.125808 -0.0218,0.402449 0.0153,0.451128 0.58147,0.761933 4.40919,2.42026 8.52769,10.99229 7.46821,15.543901 -0.12337,0.530128 -0.10562,0.609566 0.20164,0.901365 1.21191,1.15091 1.48068,2.113735 0.9662,3.461317 -0.31575,0.827135 -0.86682,1.450678 -1.55626,1.760961 -0.78967,0.355403 -2.11265,0.130216 -2.74783,-0.467698 -0.28992,-0.272871 -0.36338,-0.277912 -0.67802,-0.04629 -1.90075,1.399179 -4.92018,3.046049 -8.77339,4.785203 -1.68533,0.760527 -2.24153,1.059255 -2.22524,1.194439 0.0119,0.0991 0.0806,0.402669 0.1526,0.674502 0.16114,0.608538 0.0237,1.483119 -0.30242,1.924367 -0.22089,0.299509 -0.312,0.329667 -0.95524,0.31903 -0.65987,-0.0109 -0.72609,-0.04568 -0.92344,-0.485401 -0.11695,-0.260517 -0.18531,-0.69148 -0.15192,-0.957689 l 0.0608,-0.484 -3.1677,1.480783 c -2.46383,1.151758 -3.47019,1.563328 -4.5294,1.851552 -2.52636,0.687838 -4.86477,0.781026 -6.55893,0.261348 l -0.61956,-0.190036 -0.16937,0.62033 c -0.0931,0.341173 -0.34794,0.871683 -0.56625,1.178912 -0.63143,0.888918 -1.18091,1.014471 -2.00372,0.458389 -0.64113,-0.433323 -0.67684,-0.835542 -0.18057,-2.02397 0.6481,-1.551674 0.65918,-1.435578 -0.2139,-2.241715 -2.90364,-2.681091 -5.41514,-7.929234 -5.64409,-11.794245 -0.0465,-0.785417 -0.0579,-0.812308 -0.50941,-1.215069 -0.25402,-0.226527 -0.7864,-0.567817 -1.18258,-0.759128 -0.83354,-0.401615 -1.35821,-0.790813 -1.50304,-1.114943 -0.056,-0.12531 -0.002,-0.529333 0.1203,-0.897864 z m 0.50716,1.226076 c 0.14927,0.115227 0.64908,0.400144 1.11126,0.632363 0.46219,0.232204 0.92698,0.519046 1.03294,0.637369 0.18697,0.208818 0.47543,0.213455 0.38212,0.0061 -0.0254,-0.05659 0.0383,-0.602416 0.14131,-1.212968 0.10346,-0.610518 0.11899,-1.160468 0.0345,-1.22212 -1.04296,-0.761599 -2.37125,-1.018443 -2.7465,-0.531421 -0.19082,0.247095 -0.17117,0.263556 0.43335,0.364043 0.80992,0.134604 0.78485,0.12585 0.73516,0.256857 -0.0233,0.06145 -0.26485,0.06752 -0.53682,0.01356 -0.49071,-0.09737 -0.93958,0.0089 -1.02859,0.243615 -0.0715,0.188591 0.14075,0.579893 0.44074,0.812546 z m 8.62973,18.565492 c 0.17363,0.114843 0.26444,0.05832 0.65146,-0.405247 0.24735,-0.296239 0.47536,-0.481554 0.50667,-0.411897 0.0314,0.06975 -0.10013,0.312394 -0.29228,0.539178 -0.52759,0.622704 -0.0674,0.847994 0.62091,0.303983 0.32276,-0.255107 1.03575,-1.865375 0.92997,-2.100391 -0.0388,-0.08624 -0.20078,-0.192151 -0.35989,-0.235335 -0.15916,-0.0431 -0.54589,-0.246912 -0.85946,-0.452831 l -0.57014,-0.374375 -0.52788,1.255067 c -0.51687,1.228815 -0.5361,1.59313 -0.0994,1.88173 z m -1.88859,-5.987763 c 1.1511,1.422119 2.02367,2.2329 3.19643,2.970098 3.46514,2.178176 7.93468,1.63725 14.34634,-1.736273 1.31837,-0.693674 4.48008,-2.257465 7.02599,-3.475104 5.58026,-2.66884 6.94799,-3.472769 8.90747,-5.235618 2.42837,-2.18471 3.32824,-5.18217 2.58586,-8.613411 -0.77565,-3.58492 -3.19515,-7.922165 -5.60234,-10.042785 -2.63704,-2.323138 -5.72985,-2.836433 -9.68541,-1.607424 -1.57669,0.489878 -3.08531,1.19156 -5.74503,2.6721 -2.76541,1.539352 -6.00004,3.022295 -8.23345,3.774673 -2.10144,0.707916 -5.45683,2.209543 -6.51714,2.916573 -3.24038,2.160817 -4.54455,4.926508 -4.15603,8.813457 0.22362,2.237086 0.51788,3.197256 1.8377,5.996589 1.03053,2.185714 1.29293,2.644637 2.0396,3.567105 z m 21.47485,-14.312341 c 0.053,-0.425428 0.0229,-0.514703 -0.21913,-0.652103 -0.15417,-0.08751 -0.3516,-0.317699 -0.4388,-0.511383 -0.20995,-0.466451 0.12242,-0.975532 0.93055,-1.426054 0.53953,-0.300713 0.63763,-0.419863 0.70364,-0.854636 0.15668,-1.032574 1.44372,-1.441085 2.32063,-0.736613 0.20378,0.163708 0.5465,0.286815 0.76161,0.273578 1.28871,-0.07935 2.32618,2.164032 1.37763,2.978917 -0.21853,0.187656 -0.355,0.485664 -0.37942,0.827759 -0.0776,1.090897 -0.82515,1.773445 -1.70312,1.555221 -0.33053,-0.08215 -0.50316,-0.22788 -0.64605,-0.545433 l -0.19503,-0.433315 -0.80218,0.361028 c -0.6057,0.272599 -0.87416,0.328248 -1.09604,0.227231 -0.49629,-0.225997 -0.67897,-0.542525 -0.61425,-1.064157 z m -0.0684,-0.891636 c 0.37548,0.196113 0.49093,0.179648 1.30359,-0.186087 l 0.8916,-0.401285 -0.22628,-0.316249 c -0.60465,-0.845026 -0.76021,-0.912152 -1.42246,-0.614107 -0.434,0.195327 -0.68233,0.400985 -0.83341,0.69018 -0.25927,0.496375 -0.23986,0.55235 0.28696,0.827542 z m 0.59152,1.664735 c 0.20288,0.156405 0.38032,0.122905 1.12459,-0.212067 0.95664,-0.430536 0.96481,-0.446277 0.77693,-1.496638 -0.0616,-0.344761 -0.0641,-0.344537 -1.04538,0.0971 -1.28297,0.57742 -1.54883,1.077872 -0.85614,1.611607 z m 2.56536,0.251756 c 0.34349,0.265764 0.75016,0.363501 1.02454,0.246233 0.28933,-0.123687 0.69665,-1.003101 0.72753,-1.570821 0.0227,-0.417943 -0.004,-0.475862 -0.27209,-0.593195 -0.6296,-0.275391 -1.46165,-1.967562 -1.24647,-2.534949 0.134,-0.353149 -0.0967,-0.632179 -0.65318,-0.790148 -0.60816,-0.172643 -1.12922,0.0039 -1.4116,0.478379 -0.22868,0.384251 -0.0563,0.842301 0.55978,1.487854 0.57109,0.598352 0.88286,1.349345 0.90408,2.177718 0.021,0.818074 0.0267,0.835365 0.3674,1.098932 z m -1.46086,-9.120798 c -0.32612,-2.062049 0.95647,-3.856681 3.03858,-4.251619 0.60906,-0.11553 0.93955,-0.069 1.76932,0.249125 1.17184,0.449294 1.8627,1.107331 2.38804,2.274607 1.06818,2.373419 -0.22813,4.933094 -2.68935,5.310296 -2.0489,0.314013 -4.15518,-1.360306 -4.50659,-3.582408 z m 1.59555,2.40794 c 1.1175,1.003999 2.42918,1.249896 3.66611,0.687251 1.89266,-0.860879 2.59352,-2.716195 1.74739,-4.625575 -0.96108,-2.16878 -2.90428,-3.053659 -4.81623,-2.193156 -2.4186,1.088514 -2.72374,4.22098 -0.59727,6.13148 z m 0.0915,-4.770884 c 0.27753,-0.655525 0.90618,-0.910303 1.59838,-0.647781 1.02445,0.388516 1.01059,1.533335 -0.0242,1.999051 -1.02338,0.460591 -1.98999,-0.369131 -1.57418,-1.35127 z m 1.16508,1.202368 c 0.11114,-0.07821 0.16418,-0.226102 0.1183,-0.32836 -0.046,-0.102428 -0.19195,-0.16057 -0.3242,-0.129218 -0.16868,0.03997 -0.20395,0.137933 -0.1183,0.32836 0.0857,0.190423 0.18228,0.229118 0.32421,0.129229 z m 1.50877,10.01471 c -0.79351,-3.575916 3.34993,-5.87477 6.11531,-3.392894 0.62645,0.562169 1.33659,1.84713 1.46524,2.651117 0.139,0.868753 -0.16222,1.950715 -0.76223,2.738361 -0.68804,0.903171 -2.04552,1.568258 -3.06521,1.501858 -1.68847,-0.109946 -3.34354,-1.65272 -3.75311,-3.498442 z m 1.10349,1.756539 c 0.96124,1.306879 2.719,1.822032 4.09855,1.20115 1.33468,-0.600683 2.10395,-1.688463 2.14722,-3.036335 0.0241,-0.75008 -0.0268,-0.938989 -0.49889,-1.85077 -0.58761,-1.134937 -1.10979,-1.634112 -2.12377,-2.030164 -2.36622,-0.924228 -4.76181,0.884257 -4.53197,3.42128 0.0815,0.89974 0.31342,1.485305 0.90881,2.294808 z m 0.39322,-3.896787 c 0.0505,-0.51261 0.25857,-0.790554 0.76828,-1.025054 1.09875,-0.505602 2.1393,0.652293 1.41109,1.570234 -0.42297,0.533268 -0.87552,0.668771 -1.47447,0.441603 -0.57107,-0.216569 -0.75517,-0.474265 -0.70487,-0.986757 z m 1.15878,0.820076 c 0.24245,-0.01372 0.32215,-0.161725 0.21512,-0.399531 -0.0418,-0.09269 -0.18963,-0.117399 -0.32873,-0.05477 -0.28747,0.129384 -0.2018,0.472109 0.11358,0.454276 z m -21.4672,-8.266136 c 0.69263,0.573867 0.89016,0.596346 1.77478,0.201615 0.62086,-0.276888 0.61003,-0.381635 -0.12667,-1.2297 -0.5107,-0.587946 -1.35049,-0.992122 -1.71796,-0.826702 -0.19596,0.0882 -0.2001,0.163491 -0.0213,0.389688 0.25671,0.324804 0.16688,0.418862 -0.20067,0.210145 -0.21624,-0.122744 -0.27538,-0.105056 -0.38309,0.115016 -0.17357,0.354659 -0.078,0.516068 0.675,1.139991 z m 11.39507,25.371231 c 0.21498,0.0595 0.28878,0.01564 0.39937,-0.237148 0.18408,-0.420965 0.31721,-0.456315 0.26437,-0.07088 -0.0577,0.421552 0.15891,0.481389 0.51491,0.142316 0.33052,-0.314848 0.4521,-1.268052 0.26102,-2.046365 l -0.12682,-0.516446 -0.70708,0.410326 c -0.97946,0.568396 -0.98788,0.57952 -0.99021,1.308219 -0.002,0.789366 0.0458,0.916299 0.38444,1.009949 z m 3.52437,-30.853667 0.73158,-0.07504 0.11031,-0.443642 c 0.19758,-0.794903 1.33525,-0.998214 1.70691,-0.305053 0.0673,0.125398 0.15513,0.384307 0.19529,0.575295 0.0598,0.284807 0.22827,0.397186 0.93686,0.625255 l 0.86386,0.27802 -0.0147,-0.541295 c -0.0165,-0.609994 -0.39386,-1.541841 -0.78062,-1.927971 -0.41927,-0.418547 -1.4781,-0.833278 -2.13335,-0.835588 -1.20128,-0.0043 -2.05396,0.687323 -2.29719,1.863116 -0.0759,0.367068 -0.11843,0.711164 -0.094,0.764705 0.0241,0.05345 0.373,0.06354 0.77536,0.02226 z m 11.18795,22.648413 c 0.95261,0.102542 1.65467,-0.253197 2.27831,-1.154319 0.82661,-1.194315 0.71816,-2.509588 -0.28673,-3.478717 -0.23767,-0.229208 -0.46588,-0.401558 -0.5072,-0.382937 -0.2151,0.09681 -0.52832,1.25464 -0.41034,1.516795 0.32264,0.716866 -0.16981,1.48208 -0.92659,1.439927 -0.3474,-0.01936 -0.49361,0.06215 -1.10149,0.614142 l -0.7009,0.636465 0.5,0.369172 c 0.27544,0.20355 0.79407,0.400742 1.15492,0.439573 z"
     id="path4424-6"
     inkscape:connector-curvature="0" />
  <path
     style="fill:#000000;stroke:#ffffff;stroke-width:0.2;stroke-miterlimit:4;stroke-dasharray:1.6, 1.6;stroke-dashoffset:0;stroke-opacity:1"
     d="m 43.92137,94.497805 c 0.576351,0.234306 0.798426,0.242507 1.216231,0.04491 0.453356,-0.214407 0.559668,-0.38748 0.940638,-1.531301 l 0.429517,-1.28958 0.906524,0.261874 c 1.164129,0.3363 2.893952,0.378187 4.365515,0.105717 1.58982,-0.294365 4.493275,-1.554065 7.808645,-3.387876 1.461653,-0.808481 2.716009,-1.449039 2.787463,-1.423473 0.07149,0.02553 0.110639,0.333822 0.08707,0.685007 -0.0824,1.228163 0.222092,1.662945 1.163093,1.660723 0.607117,-0.0014 0.801498,-0.06001 1.007254,-0.303548 0.397704,-0.470716 0.497526,-1.646708 0.207972,-2.449991 -0.139943,-0.388218 -0.218814,-0.760771 -0.175267,-0.827901 0.04358,-0.06714 1.331971,-0.587326 2.86318,-1.155978 3.400265,-1.262801 7.456171,-3.17319 8.536907,-4.021024 0.758454,-0.594991 0.765664,-0.597404 1.028434,-0.344782 0.50505,0.485524 1.74379,0.884664 2.38574,0.768691 1.59285,-0.287757 2.76778,-2.073241 2.47912,-3.767401 -0.12838,-0.75345 -0.66089,-1.662804 -1.22639,-2.094294 -0.34552,-0.263569 -0.35913,-0.328493 -0.21827,-1.010121 1.09934,-5.310673 -3.05161,-14.686986 -7.527047,-17.002354 -0.521253,-0.269669 -0.57399,-0.339828 -0.598401,-0.796083 -0.09629,-1.799486 -0.698146,-2.693629 -2.16365,-3.214409 -0.899509,-0.319655 -1.796637,-0.303823 -2.533561,0.04469 -0.844059,0.399183 -1.584958,1.642122 -1.53883,2.581562 0.02105,0.428766 -0.02624,0.492553 -0.436417,0.588639 -2.477768,0.580426 -5.94142,1.905322 -10.064158,3.849693 -1.803091,0.85054 -2.437311,1.097842 -2.536822,0.98989 -0.07279,-0.07938 -0.273942,-0.347879 -0.446596,-0.597117 -0.386504,-0.557965 -1.200174,-1.057113 -1.790318,-1.098329 -0.400295,-0.02795 -0.488765,0.02536 -0.930081,0.560483 -0.452747,0.548968 -0.470514,0.62763 -0.247868,1.097199 0.13191,0.27821 0.437642,0.635818 0.67939,0.794692 l 0.439574,0.288828 -3.431139,1.562734 c -2.668752,1.215515 -3.710513,1.753177 -4.688056,2.420493 -2.331882,1.591368 -4.044427,3.444619 -4.803397,5.198116 l -0.277568,0.64125 -0.627384,-0.295112 c -0.345071,-0.162301 -0.958584,-0.324432 -1.363364,-0.360273 -1.171073,-0.103712 -1.658507,0.259027 -1.777988,1.323131 -0.0931,0.82915 0.211683,1.139914 1.534128,1.564232 1.726445,0.553944 1.638945,0.463626 1.689467,1.743901 0.167996,4.258011 2.716407,9.990348 5.727072,12.882373 0.611813,0.587664 0.625938,0.615792 0.64044,1.268052 0.0081,0.36689 -0.08394,1.042483 -0.204591,1.501324 -0.253692,0.964824 -0.301494,1.667581 -0.136927,2.013171 0.06368,0.13355 0.432986,0.371857 0.820773,0.529533 z m -0.651043,-1.273912 c 0.0094,-0.203123 0.125869,-0.812476 0.258702,-1.354112 0.132843,-0.541642 0.222758,-1.123664 0.199805,-1.293372 -0.04051,-0.299491 0.157537,-0.539394 0.262342,-0.317784 0.02859,0.06051 0.521012,0.390057 1.094276,0.732304 0.57325,0.342274 1.035308,0.714294 1.026789,0.826735 -0.105104,1.388494 -0.823544,2.657941 -1.485637,2.625053 -0.336192,-0.0167 -0.335986,-0.04394 0.0046,-0.610223 0.456241,-0.758644 0.445887,-0.73194 0.303637,-0.782846 -0.0667,-0.02383 -0.240701,0.170065 -0.386701,0.430939 -0.263452,0.4707 -0.664729,0.764564 -0.919517,0.673395 -0.204778,-0.07323 -0.377282,-0.521191 -0.358263,-0.930072 z M 34.077,73.154567 c 0.02735,-0.2228 0.137195,-0.257773 0.788285,-0.250934 0.416082,0.0044 0.727662,-0.05307 0.692396,-0.127629 -0.03526,-0.07456 -0.326345,-0.136405 -0.646846,-0.137438 -0.880009,-0.0028 -0.742873,-0.537989 0.185026,-0.722083 0.43511,-0.08633 2.255037,0.455395 2.37384,0.706594 0.04363,0.0922 0.01716,0.299181 -0.05878,0.459916 -0.07594,0.160735 -0.179359,0.620602 -0.229829,1.02193 l -0.09175,0.729673 -1.39901,-0.445033 c -1.369737,-0.435721 -1.682086,-0.674836 -1.613337,-1.234996 z m 3.591018,5.738777 c -0.361319,-1.939362 -0.415989,-3.222497 -0.200256,-4.700418 0.637422,-4.366779 4.208361,-7.655143 11.461965,-10.554957 1.491513,-0.596272 4.986556,-2.096013 7.766775,-3.332764 6.09379,-2.710755 7.710281,-3.270377 10.527487,-3.644534 3.491368,-0.463703 6.580102,0.895235 8.875676,3.904976 2.398391,3.144563 4.263841,8.16412 4.319421,11.622682 0.0609,3.78884 -1.68194,6.685324 -5.457746,9.070576 -1.505043,0.950767 -3.136234,1.697512 -6.211773,2.843693 -3.197704,1.191707 -6.677458,2.807862 -8.857335,4.113748 -2.051068,1.228723 -5.630639,2.930865 -6.952539,3.306065 -4.039887,1.146581 -7.221348,0.281489 -10.138367,-2.756791 -1.678856,-1.748644 -2.2607,-2.661849 -3.633861,-5.703209 -1.072137,-2.374708 -1.265053,-2.911062 -1.499437,-4.169045 z m 26.766939,-7.604272 c 0.385969,0.254354 0.43819,0.341424 0.381671,0.636015 -0.03603,0.187736 0.01461,0.510755 0.112535,0.717806 0.235801,0.498583 0.885887,0.582241 1.821015,0.234332 0.624188,-0.232231 0.790564,-0.229338 1.19345,0.02073 0.956774,0.59387 2.192361,-0.176147 2.227941,-1.388452 0.0083,-0.281725 0.147066,-0.649039 0.308429,-0.816244 0.966749,-1.001747 -0.147838,-3.422489 -1.480029,-3.214434 -0.30685,0.04792 -0.646834,-0.0485 -0.944561,-0.267885 -0.94932,-0.699512 -2.032257,-0.563847 -2.467507,0.309123 -0.163861,0.32865 -0.165077,0.572232 -0.0046,0.911651 l 0.21905,0.463164 -0.857444,0.405515 c -0.647407,0.306179 -0.880913,0.487505 -0.953259,0.740209 -0.16184,0.565287 -0.03,0.936606 0.443263,1.248478 z m 0.683601,0.679993 c 0.101798,-0.445255 0.196101,-0.52845 1.064729,-0.939255 l 0.953037,-0.450722 0.101129,0.406917 c 0.270211,1.087281 0.216477,1.261858 -0.491419,1.596646 -0.463889,0.219386 -0.806373,0.279239 -1.149324,0.200829 -0.588629,-0.134569 -0.620977,-0.189665 -0.478152,-0.814415 z M 64.16667,70.319047 c 0.0137,-0.27587 0.165275,-0.398016 0.960815,-0.774256 1.022535,-0.483593 1.041153,-0.479277 1.771417,0.409744 0.239701,0.291813 0.237835,0.293628 -0.811061,0.789694 -1.371352,0.648557 -1.96795,0.516528 -1.921169,-0.425181 z m 1.588326,-2.28077 c 0.0223,-0.467755 0.226637,-0.869764 0.514823,-1.012821 0.303899,-0.150834 1.310363,0.130284 1.797732,0.502169 0.358789,0.27377 0.387706,0.336081 0.29629,0.638252 -0.214578,0.709206 0.591523,2.575757 1.207571,2.796204 0.383444,0.13721 0.450991,0.521643 0.191244,1.088701 -0.283869,0.619727 -0.793296,0.923655 -1.380099,0.823378 C 67.907314,72.79295 67.652106,72.331072 67.553574,71.373927 67.462254,70.486769 67.064272,69.70554 66.399525,69.108561 65.743028,68.519 65.733021,68.502016 65.754996,68.038276 Z m 6.460619,7.579932 c 1.463536,1.710283 3.83324,1.913656 5.614001,0.48183 0.52093,-0.418857 0.71398,-0.722544 1.03353,-1.625856 0.4513,-1.275744 0.39481,-2.302933 -0.19527,-3.550612 -1.19979,-2.536927 -4.206738,-3.264312 -6.238206,-1.509046 -1.691158,1.461232 -1.791198,4.360655 -0.214055,6.203684 z m -0.859137,-2.993722 c -0.04181,-1.619262 0.674187,-2.867409 2.001196,-3.488533 2.030478,-0.950416 4.042942,-0.227318 5.017412,1.802755 1.10685,2.305877 0.47322,4.519192 -1.57045,5.485713 -2.585204,1.222631 -5.368579,-0.718691 -5.448158,-3.799935 z m 3.978099,3.262858 c 0.731968,0.230963 1.380849,-0.106538 1.649779,-0.858093 0.39801,-1.112291 -0.550896,-1.90189 -1.656973,-1.378789 -1.093887,0.517338 -1.089473,1.890854 0.0072,2.236882 z m -0.171263,-1.797078 c 0.141917,-0.03646 0.30038,0.02325 0.352139,0.132701 0.05181,0.109409 -0.0026,0.269824 -0.120833,0.35639 -0.150824,0.110403 -0.25587,0.07085 -0.352143,-0.132705 -0.09623,-0.203566 -0.0602,-0.309872 0.120837,-0.356386 z m -7.160465,-8.244668 c 2.378507,3.152914 7.163471,1.362043 7.062166,-2.643154 -0.02295,-0.907275 -0.580242,-2.3889 -1.14982,-3.056944 -0.615471,-0.721879 -1.713833,-1.231802 -2.779858,-1.290582 -1.222352,-0.06741 -2.717761,0.580897 -3.37673,1.463916 -1.091145,1.462129 -0.983437,3.899387 0.244242,5.526764 z M 67.333855,63.71132 c -0.399641,-1.702972 0.407565,-3.505479 1.88215,-4.202863 1.426626,-0.674702 2.857272,-0.544734 3.993328,0.362779 0.632242,0.505023 0.751561,0.679007 1.169336,1.704192 0.519987,1.276128 0.564154,2.053794 0.179646,3.16275 -0.897314,2.587905 -4.057103,3.28794 -5.977662,1.324321 -0.681143,-0.696363 -0.999264,-1.296334 -1.246798,-2.351179 z m 3.472018,2.403843 c 0.455779,0.317378 0.82949,0.340971 1.378505,0.08693 1.183546,-0.547667 0.961636,-2.211452 -0.300947,-2.256273 -0.73343,-0.02604 -1.161225,0.250375 -1.393921,0.900673 -0.221869,0.620031 -0.139241,0.951375 0.316363,1.268673 z m 0.138,-1.524433 c 0.180886,-0.189344 0.358086,-0.151164 0.47829,0.103 0.04685,0.09912 -0.03641,0.237701 -0.185056,0.307999 -0.307285,0.14533 -0.528507,-0.164754 -0.293231,-0.410996 z m -8.238141,23.395179 c 0.01378,-0.969735 0.133601,-1.147518 1.076341,-1.597086 0.661538,-0.31562 0.739897,-0.233447 0.920194,0.964313 0.125015,0.830351 -0.131017,1.80209 -0.523753,1.987833 -0.209469,0.09906 -0.274125,0.04975 -0.334621,-0.255154 -0.08687,-0.437868 -0.226896,-0.429956 -0.312806,0.01767 -0.05053,0.2633 -0.106519,0.299422 -0.362392,0.233821 -0.41241,-0.105728 -0.477969,-0.297073 -0.462983,-1.351375 z M 49.863786,60.886196 c 0.10165,-0.217993 0.189214,-0.247873 0.473965,-0.161719 0.474168,0.143465 0.596284,0.05942 0.243147,-0.167304 -0.386035,-0.247885 -0.283747,-0.46718 0.2435,-0.521996 0.489539,-0.05089 1.35663,0.516287 1.861449,1.217626 l 0.334976,0.465373 -0.831353,0.292998 c -1.151605,0.405869 -1.166614,0.40499 -1.766077,-0.102953 -0.64936,-0.550193 -0.719658,-0.678693 -0.559592,-1.021998 z m 27.77826,18.695602 0.57342,-0.547676 0.44112,0.219948 c 0.79038,0.394068 1.75316,-0.397034 1.44451,-1.186924 -0.0559,-0.142927 -0.20674,-0.396146 -0.33532,-0.562705 -0.19177,-0.248418 -0.16615,-0.465183 0.14254,-1.206083 l 0.37632,-0.903242 0.4339,0.390663 c 0.48905,0.440159 0.98936,1.401867 1.03554,1.989341 0.0501,0.636807 -0.35053,1.795649 -0.8071,2.334833 -0.83702,0.988477 -2.00093,1.204168 -3.13574,0.581091 -0.35428,-0.194515 -0.66626,-0.400469 -0.69332,-0.457674 -0.0271,-0.05719 0.20885,-0.350453 0.52424,-0.651669 z M 66.88898,54.557064 c 0.582417,-0.853254 1.365435,-1.180355 2.54105,-1.061518 1.55815,0.157507 2.561335,1.166678 2.653327,2.669151 0.02175,0.355353 0.0034,0.663164 -0.04069,0.68404 -0.229911,0.108732 -1.398951,-0.44438 -1.531476,-0.7246 -0.362383,-0.766247 -1.334709,-0.897637 -1.829624,-0.247223 -0.227177,0.298549 -0.396339,0.361458 -1.274496,0.47396 l -1.012562,0.129726 0.04706,-0.668498 c 0.02593,-0.368369 0.226808,-0.931847 0.447416,-1.255038 z"
     id="path4424-7"
     inkscape:connector-curvature="0" />
  <path
     style="fill:#000000;stroke:#ffffff;stroke-width:0.2;stroke-miterlimit:4;stroke-dasharray:1.6, 1.6;stroke-dashoffset:0;stroke-opacity:1"
     d="m 155.49393,83.425337 c 0.38225,0.472485 0.56827,0.584351 1.01884,0.612651 0.48891,0.03071 0.66153,-0.0671 1.52737,-0.865335 l 0.97617,-0.899951 0.65154,0.651948 c 0.8367,0.837222 2.29613,1.689776 3.68315,2.151584 1.49847,0.498911 4.57606,0.792576 8.27694,0.789789 1.63163,-0.0012 3.0067,0.04326 3.05572,0.09886 0.0491,0.05562 -0.0631,0.337681 -0.24894,0.626885 -0.65035,1.011326 -0.59525,1.526878 0.21046,1.969277 0.51986,0.285432 0.71372,0.327113 1.00465,0.216006 0.56234,-0.214752 1.20294,-1.173238 1.33461,-1.996849 0.0636,-0.398049 0.17203,-0.753892 0.24109,-0.7907 0.069,-0.03683 1.41632,0.126654 2.99418,0.363349 3.50388,0.525582 7.87418,0.80696 9.19866,0.592228 0.92948,-0.150691 0.93679,-0.149352 1.04221,0.190791 0.20262,0.653646 1.07346,1.57983 1.67716,1.783758 1.49795,0.505998 3.34569,-0.466071 3.89873,-2.051079 0.24598,-0.704909 0.21996,-1.733942 -0.0599,-2.369926 -0.17096,-0.388535 -0.15241,-0.450328 0.29022,-0.96685 3.4475,-4.022235 4.32494,-14.000025 1.59109,-18.093038 -0.31841,-0.4767 -0.33038,-0.561601 -0.13583,-0.963276 0.7673,-1.584253 0.67477,-2.633026 -0.33251,-3.77029 -0.61827,-0.698046 -1.3929,-1.108091 -2.18761,-1.158007 -0.91025,-0.05717 -2.13066,0.655871 -2.53477,1.480994 -0.18451,0.37657 -0.25499,0.408813 -0.65112,0.297303 -2.39285,-0.673529 -5.98026,-1.175912 -10.42375,-1.459811 -1.94345,-0.124016 -2.60255,-0.21199 -2.63667,-0.351279 -0.025,-0.10214 -0.07,-0.42682 -0.1,-0.721476 -0.0671,-0.659618 -0.52715,-1.470632 -1.01237,-1.784515 -0.3291,-0.212892 -0.42992,-0.209078 -1.05995,0.04015 -0.64636,0.255683 -0.6987,0.314546 -0.73001,0.821214 -0.0187,0.300158 0.074,0.750336 0.20575,1.000339 l 0.23948,0.454539 -3.67191,-0.283685 c -2.85602,-0.220628 -4.00071,-0.252734 -5.15172,-0.143628 -2.7454,0.25981 -5.08484,1.035996 -6.56179,2.177072 l -0.54012,0.417297 -0.39715,-0.548574 c -0.21845,-0.301717 -0.66653,-0.730023 -0.99574,-0.951792 -0.95245,-0.641606 -1.54053,-0.56156 -2.14512,0.291965 -0.4711,0.665074 -0.35719,1.074713 0.57332,2.061957 1.21479,1.288828 1.18262,1.170279 0.62131,2.288929 -1.86674,3.720451 -2.39408,9.825547 -1.18506,13.720075 0.24569,0.791403 0.24455,0.8221 -0.051,1.386728 -0.1663,0.317566 -0.56398,0.851823 -0.8838,1.187223 -0.67248,0.705263 -1.04516,1.283637 -1.06761,1.656861 -0.009,0.144286 0.19464,0.522428 0.45182,0.84034 z m 0.0448,-1.396738 c 0.104,-0.169242 0.49126,-0.635343 0.86058,-1.035797 0.36934,-0.400442 0.72101,-0.855688 0.78152,-1.011652 0.10666,-0.275251 0.38938,-0.386861 0.37436,-0.14788 -0.004,0.06522 0.26141,0.579528 0.59001,1.142874 0.32858,0.563342 0.54804,1.099632 0.48769,1.191755 -0.74546,1.13771 -1.95918,1.884037 -2.50983,1.543299 -0.27959,-0.173012 -0.26656,-0.196203 0.29204,-0.519649 0.74833,-0.433321 0.72687,-0.415381 0.62925,-0.526076 -0.0458,-0.0519 -0.28611,0.03178 -0.53414,0.185919 -0.44753,0.278114 -0.92943,0.339948 -1.10425,0.141684 -0.14049,-0.159314 -0.0765,-0.62381 0.13272,-0.964487 z m 1.61431,-21.502405 c 0.12849,-0.177633 0.23902,-0.15565 0.79256,0.157574 0.35373,0.200184 0.64729,0.298182 0.65234,0.217782 0.005,-0.08048 -0.21466,-0.270724 -0.48823,-0.422929 -0.7512,-0.417914 -0.38125,-0.810801 0.49916,-0.530116 0.41281,0.131624 1.7133,1.454137 1.69629,1.725042 -0.006,0.09945 -0.1265,0.263949 -0.26741,0.365536 -0.14083,0.101588 -0.4464,0.446002 -0.67903,0.76536 l -0.42298,0.580639 -0.9862,-1.041094 c -0.96557,-1.019326 -1.11979,-1.371268 -0.79649,-1.817813 z m 0.36121,6.602865 c 0.60669,-1.828995 1.16577,-2.952047 2.04803,-4.114001 2.60687,-3.43318 7.21307,-4.559117 14.78494,-3.614037 1.55696,0.194301 5.25377,0.562054 8.21513,0.81716 6.49084,0.559149 8.13737,0.84383 10.7231,1.854022 3.20448,1.251926 5.20412,3.872333 5.74606,7.529893 0.56623,3.821393 -0.20858,8.994514 -1.79401,11.978252 -1.73684,3.268674 -4.59473,4.922668 -8.94972,5.179612 -1.7359,0.102417 -3.48337,-0.0292 -6.65448,-0.50118 -3.29712,-0.490742 -7.03582,-0.751697 -9.51644,-0.66422 -2.33406,0.0823 -6.19871,-0.152257 -7.50624,-0.455598 -3.99598,-0.926967 -6.30805,-3.168848 -7.36796,-7.144236 -0.61001,-2.287983 -0.67639,-3.3436 -0.41463,-6.592682 0.20439,-2.536877 0.29267,-3.086618 0.68622,-4.273008 z m 26.47942,6.135411 c 0.20995,0.399736 0.21353,0.498837 0.0261,0.724082 -0.11939,0.143544 -0.22866,0.443647 -0.24269,0.66694 -0.0338,0.537679 0.48262,0.916157 1.44655,1.060173 0.64339,0.09611 0.7843,0.177161 1.01075,0.581219 0.53777,0.959571 1.95791,0.884489 2.56074,-0.135381 0.14003,-0.237016 0.43219,-0.485571 0.64913,-0.552367 1.29966,-0.40017 1.48951,-2.996452 0.25208,-3.44754 -0.285,-0.103895 -0.53023,-0.346878 -0.68122,-0.675038 -0.48153,-1.046396 -1.47162,-1.44169 -2.256,-0.900703 -0.29528,0.203669 -0.41134,0.411391 -0.43433,0.777422 l -0.0313,0.499516 -0.92467,-0.05808 c -0.69819,-0.04385 -0.98348,9.46e-4 -1.16467,0.182892 -0.40527,0.406976 -0.46786,0.786744 -0.21038,1.276886 z m 0.26352,0.90424 c 0.29727,-0.332689 0.41721,-0.359298 1.35394,-0.300466 l 1.02777,0.06455 -0.10526,0.395817 c -0.2823,1.05733 -0.41066,1.18126 -1.17409,1.133306 -0.50027,-0.03142 -0.82138,-0.141943 -1.07764,-0.370921 -0.43982,-0.392992 -0.44146,-0.455382 -0.0243,-0.922182 z m -0.0349,-1.860404 c 0.14205,-0.229419 0.32926,-0.262318 1.18717,-0.208442 1.10273,0.06926 1.11661,0.08174 1.32134,1.186764 0.0672,0.362709 0.0647,0.363384 -1.06642,0.292339 -1.4789,-0.09288 -1.92672,-0.487478 -1.44209,-1.270661 z m 2.43508,-1.200414 c 0.23992,-0.389466 0.60445,-0.636751 0.91844,-0.623015 0.33109,0.01451 1.05901,0.730095 1.30018,1.278208 0.17756,0.403514 0.17288,0.470446 -0.048,0.68568 -0.51834,0.505148 -0.71029,2.481898 -0.2876,2.961266 0.2631,0.298371 0.13934,0.659007 -0.35052,1.021259 -0.53534,0.395922 -1.11448,0.415287 -1.5689,0.05248 -0.36806,-0.29384 -0.36823,-0.80929 -5.7e-4,-1.674293 0.3408,-0.801752 0.3693,-1.657713 0.0828,-2.482053 -0.28303,-0.81412 -0.28374,-0.833307 -0.0458,-1.21954 z m 1.94578,9.532169 c 0.44399,2.153508 2.37435,3.446271 4.57317,3.062666 0.64321,-0.112217 0.95169,-0.280756 1.65143,-0.902329 0.98826,-0.877837 1.42494,-1.782883 1.50945,-3.128414 0.17184,-2.735868 -2.05602,-4.777599 -4.62195,-4.235787 -2.13606,0.451051 -3.59058,2.883188 -3.1121,5.203864 z m 0.67881,-2.965656 c 0.72877,-1.404416 1.93036,-2.133672 3.35838,-2.038265 2.18505,0.145966 3.56456,1.71449 3.43935,3.910551 -0.14223,2.49441 -1.72908,4.087909 -3.93301,3.949485 -2.78794,-0.175101 -4.25148,-3.149352 -2.86472,-5.821771 z m 1.86121,4.668412 c 0.51688,0.543101 1.23109,0.560867 1.81592,0.04517 0.86552,-0.763229 0.42695,-1.886445 -0.76592,-1.961377 -1.17969,-0.0741 -1.82439,1.102516 -1.05,1.916205 z m 0.70205,-1.61759 c 0.13858,0.0358 0.24587,0.161709 0.23847,0.279743 -0.007,0.118036 -0.12966,0.229499 -0.27161,0.247704 -0.1811,0.02321 -0.25225,-0.06022 -0.23848,-0.279742 0.0139,-0.219481 0.0948,-0.293409 0.27162,-0.247705 z m -2.23038,-10.431026 c 0.54528,3.819138 5.48257,4.54694 7.28699,1.074171 0.40874,-0.786677 0.63101,-2.316974 0.4601,-3.156962 -0.18547,-0.907884 -0.88394,-1.862522 -1.76776,-2.416114 -1.01346,-0.634777 -2.5983,-0.786454 -3.57873,-0.342494 -1.6234,0.735123 -2.68204,2.870134 -2.4006,4.841399 z m 0.43554,-2.140966 c 0.46237,-1.644926 2.00366,-2.805183 3.59388,-2.705302 1.5385,0.09663 2.7005,0.883245 3.2435,2.195663 0.30218,0.730374 0.32211,0.935475 0.19528,2.009406 -0.15791,1.336753 -0.48721,2.022623 -1.33966,2.789361 -1.9892,1.789314 -5.02172,0.896044 -5.73693,-1.689893 -0.25363,-0.917099 -0.24242,-1.580333 0.0439,-2.599235 z m 1.83404,3.694906 c 0.23988,0.4866 0.54833,0.683216 1.13776,0.725201 1.27065,0.09048 1.86646,-1.437034 0.80794,-2.071499 -0.61486,-0.368552 -1.11119,-0.334168 -1.61721,0.112051 -0.48248,0.425452 -0.56827,0.747802 -0.32871,1.234185 z m 0.83777,-1.238424 c 0.24409,-0.07649 0.3776,0.03981 0.36037,0.313904 -0.007,0.106873 -0.14338,0.186064 -0.30367,0.176004 -0.33138,-0.02081 -0.37414,-0.390429 -0.0567,-0.489908 z M 174.63153,86.72589 c 0.46965,-0.822741 0.65605,-0.918193 1.67448,-0.857512 0.7147,0.04245 0.74292,0.149703 0.3316,1.259067 -0.28514,0.769086 -0.9629,1.479152 -1.38643,1.45255 -0.2259,-0.0142 -0.25791,-0.08688 -0.16567,-0.376175 0.13249,-0.415438 0.009,-0.474795 -0.27583,-0.132572 -0.16753,0.201289 -0.23246,0.205745 -0.42031,0.02883 -0.30273,-0.285127 -0.26844,-0.479703 0.24214,-1.37419 z m 1.81367,-29.236967 c 0.18985,-0.138412 0.27883,-0.122624 0.48174,0.08509 0.33772,0.346558 0.48182,0.332355 0.2869,-0.02833 -0.21309,-0.394226 -0.022,-0.53347 0.45469,-0.331396 0.44266,0.187613 0.91633,1.082019 1.01687,1.920097 l 0.0667,0.556117 -0.84926,-0.141948 c -1.17639,-0.196653 -1.18881,-0.2045 -1.46159,-0.921891 -0.29549,-0.777096 -0.29499,-0.92015 0.004,-1.13815 z m 14.92673,29.102585 0.74894,-0.19759 0.27337,0.39635 c 0.48981,0.710154 1.68663,0.488234 1.79564,-0.332942 0.02,-0.148539 0.0102,-0.436366 -0.0211,-0.639505 -0.0467,-0.302971 0.0775,-0.476233 0.69132,-0.964056 l 0.74827,-0.594704 0.18644,0.538983 c 0.21014,0.60738 0.18416,1.665895 -0.0537,2.190065 -0.25786,0.568183 -1.14756,1.37 -1.79257,1.6155 -1.18247,0.450075 -2.2796,0.08497 -2.9558,-0.983635 -0.21112,-0.333612 -0.38066,-0.657028 -0.37679,-0.718712 0.005,-0.06155 0.34406,-0.201075 0.75596,-0.309754 z m 2.62022,-26.476338 c 0.90091,-0.454636 1.72493,-0.364649 2.67411,0.292028 1.25806,0.870372 1.63943,2.206997 1.00869,3.535235 -0.14913,0.314142 -0.31016,0.568713 -0.35776,0.565725 -0.24794,-0.01559 -0.98646,-1.04051 -0.96749,-1.342705 0.0519,-0.826343 -0.71751,-1.397779 -1.44782,-1.075265 -0.33523,0.148036 -0.50958,0.12196 -1.31363,-0.196479 l -0.92711,-0.367149 0.35586,-0.549435 c 0.1961,-0.302758 0.63392,-0.689751 0.97515,-0.861975 z"
     id="path4424-3-5"
     inkscape:connector-curvature="0" />
  <path
     style="fill:#000000;stroke:#ffffff;stroke-width:0.2;stroke-miterlimit:4;stroke-dasharray:1.6, 1.6;stroke-dashoffset:0;stroke-opacity:1"
     d="m 93.042246,119.1903 c -0.40402,0.42141 -0.59112,0.51348 -1.02468,0.50418 -0.47047,-0.0101 -0.62782,-0.11763 -1.39216,-0.95159 l -0.86174,-0.94025 -0.67631,0.57146 c -0.86845,0.73384 -2.33425,1.43212 -3.6992,1.76219 -1.47463,0.35658 -4.44423,0.38925 -7.98652,0.0878 -1.561684,-0.13289 -2.881514,-0.20131 -2.932924,-0.15204 -0.0514,0.0493 0.0331,0.32832 0.1877,0.62014 0.54088,1.02055 0.44652,1.5096 -0.36044,1.86802 -0.52062,0.23129 -0.70957,0.2555 -0.97909,0.12566 -0.52094,-0.25096 -1.05676,-1.22013 -1.1163,-2.01913 -0.0292,-0.38612 -0.10389,-0.7355 -0.16686,-0.77632 -0.063,-0.0409 -1.36593,0.007 -2.89539,0.10605 -3.39638,0.2198 -7.602346,0.13679 -8.852796,-0.17568 -0.87757,-0.21925 -0.88466,-0.21857 -1.01303,0.0984 -0.246721,0.60932 -1.15506,1.42556 -1.749385,1.57203 -1.474701,0.36342 -3.164886,-0.71621 -3.566319,-2.27803 -0.178532,-0.69461 -0.07053,-1.6775 0.248643,-2.26368 0.19501,-0.3581 0.182243,-0.41874 -0.199813,-0.94888 -2.975278,-4.12841 -3.009704,-13.75006 -0.06243,-17.447214 0.343267,-0.43061 0.361572,-0.51091 0.207787,-0.9111 -0.606571,-1.578397 -0.433367,-2.574822 0.622636,-3.582109 0.648159,-0.618263 1.422722,-0.94824 2.187464,-0.931848 0.875926,0.01876 1.986542,0.799812 2.306757,1.622241 0.14616,0.375353 0.21108,0.411897 0.59925,0.337139 2.34483,-0.451551 5.819266,-0.642863 10.095526,-0.555883 1.87029,0.03815 2.50829,0.0072 2.5522,-0.123406 0.0323,-0.09577 0.10147,-0.402906 0.15393,-0.68253 0.11744,-0.625974 0.62331,-1.365141 1.11309,-1.626418 0.33221,-0.177217 0.42841,-0.165427 1.01137,0.123996 0.59805,0.296913 0.64339,0.357495 0.63244,0.845018 -0.006,0.28884 -0.13144,0.712252 -0.2777,0.94092 l -0.26592,0.415758 3.537684,0.02487 c 2.75159,0.01936 3.84989,0.08104 4.94282,0.278385 2.60696,0.47032 4.78364,1.402148 6.10527,2.613617 l 0.48331,0.44305 0.42446,-0.493043 c 0.23346,-0.271132 0.69692,-0.644982 1.02995,-0.830686 0.96345,-0.537281 1.51994,-0.413166 2.02976,0.452644 0.39726,0.674625 0.25514,1.057565 -0.71526,1.927425 -1.26683,1.13562 -1.22645,1.02475 -0.77949,2.140834 1.48653,3.71194 1.49844,9.59834 0.0268,13.2286 -0.29905,0.7377 -0.30045,0.76719 -0.063,1.33151 0.13351,0.31742 0.47104,0.86092 0.75012,1.20777 0.58679,0.72936 0.89684,1.31307 0.88818,1.67214 -0.003,0.13881 -0.22849,0.48436 -0.50034,0.76791 z m 0.0699,-1.34058 c -0.0859,-0.17036 -0.41879,-0.6479 -0.74018,-1.06091 -0.32121,-0.41311 -0.62106,-0.87729 -0.66639,-1.03145 -0.0801,-0.27205 -0.34151,-0.40173 -0.34641,-0.17177 -0.001,0.0627 -0.29701,0.53362 -0.65701,1.04634 -0.36001,0.5127 -0.61336,1.00832 -0.56303,1.10138 0.62171,1.1492 1.72325,1.96156 2.27784,1.67986 0.28161,-0.14303 0.27102,-0.16625 -0.23755,-0.52101 -0.68135,-0.47518 -0.66224,-0.45628 -0.55987,-0.55435 0.048,-0.046 0.27131,0.0535 0.49628,0.22108 0.40591,0.30234 0.86219,0.40042 1.04554,0.22476 0.14733,-0.14117 0.12363,-0.59094 -0.0495,-0.93391 z m 0.19058,-20.712568 c -0.1086,-0.180509 -0.21618,-0.168312 -0.77136,0.08688 -0.35475,0.163094 -0.64366,0.233174 -0.642,0.155794 0.002,-0.07741 0.22734,-0.241781 0.50151,-0.365391 0.75276,-0.339385 0.43036,-0.745333 -0.43503,-0.547714 -0.40579,0.09266 -1.75743,1.253565 -1.76298,1.514295 -0.002,0.0957 0.0998,0.26287 0.22645,0.37149 0.12659,0.10861 0.39132,0.46293 0.58822,0.7874 l 0.35804,0.58991 1.02804,-0.91693 c 1.00654,-0.89776 1.18256,-1.22219 0.90915,-1.675728 z m -0.87877,6.291158 c -0.43307,-1.79969 -0.87758,-2.91981 -1.62831,-4.103284 -2.21811,-3.496723 -6.53633,-4.946298 -13.86048,-4.652893 -1.506014,0.06034 -5.074314,0.113884 -7.929534,0.119015 -6.258206,0.01124 -7.857246,0.150826 -10.413865,0.909051 -3.168418,0.939668 -5.294013,3.286517 -6.108028,6.743811 -0.850475,3.61216 -0.526443,8.62645 0.750251,11.61049 1.398662,3.269 4.000724,5.08292 8.148616,5.68043 1.65335,0.23816 3.33663,0.25325 6.410166,0.0575 3.19564,-0.20321 6.79539,-0.15155 9.162814,0.13242 2.22754,0.2672 5.94573,0.35466 7.22179,0.16987 3.8998,-0.56472 6.29392,-2.52402 7.62938,-6.24372 0.76859,-2.14083 0.91736,-3.1459 0.92908,-6.27708 0.009,-2.44482 -0.031,-2.97815 -0.31192,-4.14555 z m -25.841554,3.73529 c -0.23326,0.36569 -0.24468,0.46026 -0.0834,0.69099 0.10308,0.14681 0.18305,0.44312 0.17845,0.658 -0.0111,0.5174 -0.53595,0.83799 -1.47025,0.89801 -0.623626,0.0401 -0.765036,0.10624 -1.014426,0.47476 -0.59221,0.87509 -1.94552,0.68859 -2.44022,-0.33632 -0.11492,-0.23818 -0.3745,-0.49967 -0.57676,-0.58112 -1.21175,-0.48796 -1.18387,-2.98847 0.037,-3.32035 0.28122,-0.0764 0.53553,-0.28923 0.70659,-0.59117 0.54537,-0.96274 1.52501,-1.26119 2.23214,-0.68003 0.26622,0.21878 0.3605,0.42701 0.35299,0.77921 l -0.0103,0.48064 0.889806,0.0191 c 0.67184,0.0144 0.9413,0.0803 1.10005,0.26908 0.35508,0.42228 0.38434,0.79084 0.0983,1.23923 z m -0.32524,0.84427 c -0.25771,-0.34243 -0.37034,-0.3776 -1.27175,-0.39691 l -0.988996,-0.0212 0.0691,0.38732 c 0.18487,1.03488 0.29775,1.16386 1.032346,1.17959 0.48141,0.0103 0.79771,-0.0696 1.06147,-0.26806 0.45271,-0.34068 0.45936,-0.40023 0.0977,-0.88075 z m 0.18361,-1.77797 c -0.1174,-0.23106 -0.29399,-0.27767 -1.11956,-0.29534 -1.061096,-0.0227 -1.075406,-0.0119 -1.360566,1.0293 -0.0936,0.34176 -0.0913,0.3426 0.997176,0.36592 1.4231,0.0305 1.88362,-0.31109 1.48294,-1.0999 z m -2.233966,-1.34562 c -0.19817,-0.39218 -0.5272,-0.65829 -0.82884,-0.67049 -0.3181,-0.0128 -1.07263,0.61336 -1.34773,1.11855 -0.20253,0.37191 -0.20346,0.43636 -0.009,0.66021 0.45538,0.52537 0.47957,2.43302 0.0362,2.85776 -0.27594,0.26433 -0.18657,0.61956 0.25306,1.00585 0.48048,0.42219 1.03326,0.48749 1.49754,0.17689 0.37627,-0.25117 0.41778,-0.74493 0.13568,-1.60259 -0.26147,-0.79496 -0.21968,-1.61659 0.12117,-2.38252 0.33664,-0.75643 0.33887,-0.77473 0.1423,-1.16366 z m -2.63199,8.96718 c -0.59885,2.0255 -2.550959,3.10712 -4.624715,2.56244 -0.606631,-0.15935 -0.888296,-0.34557 -1.507934,-0.99704 -0.8751,-0.92003 -1.22001,-1.82162 -1.192305,-3.11638 0.05638,-2.63266 2.353733,-4.40717 4.766094,-3.68141 2.00825,0.60418 3.20419,3.04965 2.55886,5.23239 z m -0.41037,-2.89354 c -0.58422,-1.40314 -1.6755,-2.19819 -3.050127,-2.22215 -2.103336,-0.0366 -3.550413,1.35337 -3.607844,3.46557 -0.06521,2.39914 1.325081,4.05254 3.445881,4.09796 2.68278,0.0574 4.32377,-2.67137 3.21209,-5.34138 z m -2.158423,4.3184 c -0.538597,0.47813 -1.223681,0.43747 -1.741842,-0.10337 -0.76688,-0.80043 -0.256345,-1.84018 0.891468,-1.81561 1.135167,0.0243 1.657327,1.20262 0.850374,1.91898 z m -0.541421,-1.60506 c -0.13554,0.0231 -0.248441,0.1349 -0.250828,0.24857 -0.0029,0.11361 0.105498,0.23016 0.239967,0.25904 0.171489,0.0369 0.246331,-0.0373 0.250828,-0.24857 0.0045,-0.2112 -0.06707,-0.2885 -0.239957,-0.25903 z m 2.976984,-9.80459 c -0.83025,3.61169 -5.615018,3.90979 -7.061852,0.44042 -0.327739,-0.78601 -0.417691,-2.26863 -0.185637,-3.059 0.250828,-0.85407 0.996475,-1.711474 1.887165,-2.170034 1.021302,-0.52579 2.55059,-0.54304 3.453214,-0.0389 1.4946,0.83471 2.3356,2.963834 1.90706,4.828014 z m -0.24416,-2.08449 c -0.30975,-1.61187 -1.69145,-2.846904 -3.221673,-2.879674 -1.48046,-0.0317 -2.656255,0.62745 -3.281948,1.839884 -0.348222,0.67473 -0.383847,0.86944 -0.349152,1.90766 0.04319,1.29229 0.303141,1.97539 1.057171,2.77813 1.759629,1.87333 4.734492,1.26308 5.627842,-1.15446 0.31681,-0.85737 0.35962,-1.49313 0.16776,-2.49154 z m -2.053823,3.38873 c -0.268887,0.44641 -0.580014,0.60972 -1.147598,0.60231 -1.22359,-0.0159 -1.67058,-1.5262 -0.606158,-2.04806 0.618315,-0.30315 1.090612,-0.23017 1.538975,0.2378 0.427474,0.4462 0.483584,0.76167 0.214781,1.20795 z m -0.701949,-1.25306 c -0.227465,-0.0929 -0.364638,0.008 -0.370276,0.27137 -0.0026,0.10289 0.12194,0.18987 0.276459,0.193 0.318877,0.007 0.389653,-0.34351 0.09382,-0.46437 z m 16.015518,16.88686 c -0.38314,-0.82543 -0.55381,-0.93188 -1.53358,-0.95599 -0.68757,-0.0169 -0.72322,0.0834 -0.41907,1.17843 0.21087,0.75918 0.80229,1.49358 1.20985,1.5023 0.21737,0.005 0.25386,-0.0624 0.18895,-0.3467 -0.0932,-0.40836 0.0297,-0.4552 0.2747,-0.10468 0.14454,0.20591 0.20592,0.21569 0.39999,0.0615 0.31277,-0.24853 0.29568,-0.43752 -0.12091,-1.33494 z m 0.62413,-28.132217 c -0.17052,-0.147839 -0.25701,-0.139879 -0.46795,0.04296 -0.35125,0.30446 -0.48804,0.279231 -0.27234,-0.05026 0.23579,-0.360165 0.0642,-0.508865 -0.40848,-0.353929 -0.43885,0.143858 -0.96445,0.961748 -1.12835,1.755847 l -0.10876,0.526929 0.82438,-0.06734 c 1.14192,-0.09329 1.15444,-0.09978 1.47346,-0.764451 0.34558,-0.719979 0.35664,-0.856957 0.088,-1.089775 z m -16.6373,26.652227 -0.700929,-0.24961 -0.293671,0.35733 c -0.526169,0.64021 -1.653858,0.33119 -1.691922,-0.46364 -0.007,-0.14383 0.02538,-0.41853 0.07179,-0.61045 0.06914,-0.28623 -0.03596,-0.4621 -0.583973,-0.97859 l -0.668238,-0.62965 -0.221986,0.50086 c -0.250157,0.56443 -0.31074,1.57975 -0.125344,2.10068 0.200962,0.56468 0.987863,1.40401 1.585442,1.69108 1.09553,0.52627 2.175189,0.26536 2.908719,-0.70294 0.229006,-0.30229 0.417413,-0.59818 0.418684,-0.65754 0.0013,-0.0594 -0.313104,-0.22024 -0.698612,-0.35752 z M 58.073238,93.769864 c -0.825654,-0.507912 -1.621665,-0.488295 -2.583253,0.06367 -1.274471,0.731563 -1.747412,1.980195 -1.250898,3.302514 0.117484,0.312718 0.250986,0.569408 0.296806,0.570378 0.238596,0.005 1.028254,-0.916355 1.034473,-1.207146 0.01701,-0.79516 0.799657,-1.280036 1.472673,-0.912377 0.308927,0.16877 0.477927,0.157884 1.273275,-0.08198 l 0.917082,-0.276603 -0.296251,-0.554675 c -0.163241,-0.305642 -0.551063,-0.71143 -0.863847,-0.903799 z"
     id="path4424-35"
     inkscape:connector-curvature="0" />
  <ellipse
     style="fill:#ffffff;fill-opacity:1;stroke:#ffffff;stroke-width:0.2;stroke-miterlimit:4;stroke-dasharray:1.6, 1.60000000000000009;stroke-dashoffset:0;stroke-opacity:1"
     id="path5029"
     cx="21.068075"
     cy="137.9644"
     rx="2.6967137"
     ry="2.2753522" />
  <ellipse
     style="fill:#000000;fill-opacity:1;stroke:#ffffff;stroke-width:0.2;stroke-miterlimit:4;stroke-dasharray:1.6, 1.60000000000000009;stroke-dashoffset:0;stroke-opacity:1"
     id="path5033"
     cx="45.050976"
     cy="132.01811"
     rx="0.56610042"
     ry="2.2346067"
     transform="matrix(0.9844054,0.1759148,-0.1759148,0.9844054,0,0)" />
</svg>
