<?xml version="1.0" encoding="UTF-8" standalone="no"?>
<!-- Created with Inkscape (http://www.inkscape.org/) -->

<svg
   xmlns:dc="http://purl.org/dc/elements/1.1/"
   xmlns:cc="http://creativecommons.org/ns#"
   xmlns:rdf="http://www.w3.org/1999/02/22-rdf-syntax-ns#"
   xmlns:svg="http://www.w3.org/2000/svg"
   xmlns="http://www.w3.org/2000/svg"
   xmlns:sodipodi="http://sodipodi.sourceforge.net/DTD/sodipodi-0.dtd"
   xmlns:inkscape="http://www.inkscape.org/namespaces/inkscape"
   id="svg4224"
   version="1.1"
   inkscape:version="0.91 r13725"
   width="579.99146"
   height="129.10112"
   viewBox="0 0 579.99146 129.10112"
   sodipodi:docname="sourced.svg">
  <metadata
     id="metadata4230">
    <rdf:RDF>
      <cc:Work
         rdf:about="">
        <dc:format>image/svg+xml</dc:format>
        <dc:type
           rdf:resource="http://purl.org/dc/dcmitype/StillImage" />
        <dc:title></dc:title>
      </cc:Work>
    </rdf:RDF>
  </metadata>
  <defs
     id="defs4228" />
  <sodipodi:namedview
     pagecolor="#ffffff"
     bordercolor="#666666"
     borderopacity="1"
     objecttolerance="10"
     gridtolerance="10"
     guidetolerance="10"
     inkscape:pageopacity="0"
     inkscape:pageshadow="2"
     inkscape:window-width="1387"
     inkscape:window-height="876"
     id="namedview4226"
     showgrid="false"
     fit-margin-top="0"
     fit-margin-left="0"
     fit-margin-right="0"
     fit-margin-bottom="0"
     inkscape:zoom="1.2824121"
     inkscape:cx="297.35172"
     inkscape:cy="41.60071"
     inkscape:window-x="53"
     inkscape:window-y="24"
     inkscape:window-maximized="1"
     inkscape:current-layer="svg4224" />
  <path
     style="fill:#3f95f0;fill-opacity:1"
     d="m 424.11471,127.07094 c -7.53229,-3.71413 -8.39679,-6.44058 -9.10684,-28.721043 -0.67887,-21.30209 -1.25245,-23.35487 -7.15253,-25.59807 -2.40278,-0.91353 -2.86387,-1.99947 -2.86387,-6.74478 0,-4.2681 0.47402,-5.65594 1.93181,-5.65594 1.0625,0 3.3125,-1.38069 5,-3.06819 2.98088,-2.98086 3.06824,-3.59445 3.07013,-21.562485 0.001,-15.137073 0.39868,-19.272377 2.1875,-22.780464 3.40862,-6.6847074 7.6542,-9.0803904 17.06607,-9.6299684 l 8.24449,-0.481414 0,5.636263 0,5.6362634 -4.76109,0 c -8.42301,0 -8.77316,0.833185 -9.21767,21.93372 -0.44434,21.091665 -1.41187,24.004745 -9.20743,27.722185 -5.2626,2.50957 -5.42316,3.55972 -0.68901,4.50655 2.14132,0.42826 4.82707,2.4106 6.5625,4.84375 2.71722,3.80968 2.97127,5.55391 3.38514,23.24089 0.43113,18.425363 0.55387,19.191843 3.36843,21.036013 1.60654,1.05265 4.49895,1.72896 6.42757,1.5029 3.30781,-0.38771 3.52835,-0.10987 3.89093,4.9015 l 0.38438,5.3125 -7.25938,-0.0285 c -4.03317,-0.0157 -9.03783,-0.90541 -11.26113,-2.00171 z"
     id="path4258"
     inkscape:connector-curvature="0" />
  <path
     style="fill:#3f95f0;fill-opacity:1"
     d="m 542.7321,123.78862 c 0.36973,-5.11016 0.53052,-5.29792 4.22127,-4.92946 2.35815,0.23542 4.8502,-0.48723 6.46609,-1.875 2.39427,-2.0563 2.69027,-3.96001 3.3129,-21.307003 0.76208,-21.23205 1.79198,-24.31833 9.13961,-27.38836 2.26572,-0.94669 4.1195,-1.98739 4.1195,-2.31269 0,-0.3253 -1.925,-1.39576 -4.27778,-2.37881 -7.59212,-3.1722 -8.83166,-6.63903 -8.96565,-25.075845 -0.0651,-8.96244 -0.20576,-17.239536 -0.3125,-18.393554 -0.33722,-3.645886 -3.90588,-6.026786 -9.03336,-6.026786 l -4.91071,0 0,-5.8057564 0,-5.805757 8.42663,0.786892 c 16.22516,1.515129 19.06868,6.352477 19.07143,32.4439414 0.002,17.968035 0.0892,18.581625 3.07013,21.562485 1.6875,1.6875 3.9375,3.06819 5,3.06819 1.44829,0 1.93181,1.36994 1.93181,5.47335 0,4.84801 -0.40991,5.64314 -3.58785,6.95949 -5.45541,2.2597 -6.40935,5.93545 -6.4396,24.81347 -0.0224,13.960343 -0.45548,18.071093 -2.34144,22.223533 -2.90961,6.40628 -8.54715,9.28017 -18.2044,9.28017 l -7.07046,0 0.38438,-5.3125 z"
     id="path4256"
     inkscape:connector-curvature="0" />
  <path
     style="fill:#2578b6;fill-opacity:1"
     d="M 15.393256,108.03261 C 8.0928863,105.5099 0.01287028,100.42493 6.2752196e-6,98.345247 -0.00469372,97.585767 2.6313613,94.631497 5.8579013,91.780177 l 5.8664367,-5.18418 3.196063,2.97482 c 4.682134,4.35803 8.045504,5.78029 13.669184,5.78029 6.49176,0 12.14635,-4.43517 10.8524,-8.51208 -1.09223,-3.44127 -3.72919,-4.85091 -14.82802,-7.92655 -15.5901607,-4.32026 -20.8724997,-9.46618 -20.8724997,-20.33348 0,-6.88833 2.23216,-11.72848 7.4233487,-16.09657 5.727031,-4.818975 11.620441,-6.245005 23.279921,-5.633045 8.78936,0.46133 11.31636,1.11775 16.39839,4.25974 3.30433,2.042895 6.10724,4.536205 6.2287,5.540675 0.1215,1.00447 -2.27906,4.02115 -5.33452,6.70374 l -5.55537,4.87743 -2.78274,-2.53372 c -4.16519,-3.79248 -7.77531,-5.34614 -12.42242,-5.34614 -5.40544,0 -9.73531,3.06969 -9.73531,6.9019 0,3.64317 2.36667,5.02764 14.20007,8.30684 10.89616,3.01948 16.12293,6.12125 19.48692,11.56431 5.13411,8.30716 1.89856,22.20987 -6.48094,27.847743 -8.19065,5.51078 -22.20799,6.80875 -33.054259,3.06071 z"
     id="path4254"
     inkscape:connector-curvature="0" />
  <path
     style="fill:#2578b6;fill-opacity:1"
     d="m 102.49119,37.226027 c -14.637955,0 -19.268795,1.620935 -27.376955,9.57812 -10.90505,10.702 -13.50934,28.87118 -6.22656,43.44532 4.95267,9.911183 12.26631,15.635493 24.22851,18.960933 5.22635,1.45288 19.130245,0.42742 24.375005,-1.79687 14.57257,-6.1802 22.50908,-18.336903 22.48828,-34.449223 -0.0192,-14.93545 -6.57904,-26.12609 -19.36328,-33.035155 -4.21982,-2.28056 -7.04795,-2.703125 -18.125,-2.703125 z m 0,14.375 c 11.18411,0 18.75,8.65933 18.75,21.45898 0,8.07125 -2.98848,14.29576 -8.75,18.22852 -2.83359,1.93417 -5.9561,2.8125 -10,2.8125 -11.155995,0 -18.750005,-8.52157 -18.750005,-21.04102 0,-12.79965 7.56589,-21.45898 18.750005,-21.45898 z"
     id="path4252"
     inkscape:connector-curvature="0" />
  <path
     style="fill:#2578b6;fill-opacity:1"
     d="m 163.48067,109.1156 c -5.57674,-1.68108 -10.87593,-6.15732 -13.83,-11.682253 -2.59143,-4.8467 -2.81192,-7.09354 -3.18468,-32.45128 l -0.40047,-27.244025 9.15047,0.36903 9.15048,0.36904 0.625,24.798705 0.625,24.79873 3.5072,3.01377 c 4.35755,3.74449 11.01789,3.96723 15.84516,0.52992 6.21084,-4.42252 7.52264,-10.21566 7.52264,-33.22119 l 0,-20.654455 8.94997,0.36726 8.94998,0.36726 0.10237,34.374995 0.10238,34.375003 -9.20233,0.37029 -9.20231,0.37029 0.7796,-3.10618 c 1.04388,-4.15915 -0.84611,-5.068043 -3.75001,-1.80339 -5.331,5.99327 -16.91325,8.71937 -25.74036,6.05848 z"
     id="path4248"
     inkscape:connector-curvature="0" />
  <path
     style="fill:#2578b6;fill-opacity:1"
     d="m 290.61647,109.57955 c -17.7796,-4.47112 -27.81999,-16.212323 -29.0443,-33.964333 -1.07739,-15.62161 6.52448,-28.94972 20.20265,-35.420645 13.22973,-6.25877 30.16926,-4.45455 41.15973,4.383915 2.91805,2.34668 2.6395,2.96886 -3.98529,8.90149 -4.55164,4.07609 -5.75001,4.60914 -7.5,3.33605 -14.78775,-10.75778 -30.56493,-2.22258 -30.56493,16.53513 0,12.19257 7.42952,20.74995 18.01513,20.74995 6.29861,0 12.9617,-2.48406 13.85551,-5.16549 0.54826,-1.64479 11.6115,9.60185 11.6115,11.804003 0,0.77308 -3.20267,3.04351 -7.11706,5.0454 -5.35235,2.7373 -9.22666,3.73694 -15.625,4.03151 -4.67936,0.21544 -9.63294,0.10875 -11.00794,-0.23698 z"
     id="path4246"
     inkscape:connector-curvature="0" />
  <path
     style="fill:#2578b6;fill-opacity:1"
     d="m 366.69432,36.661574 c -1.56939,-0.01833 -3.4187,0.04104 -5.73047,0.144531 -12.44253,0.557 -20.42415,4.057135 -26.68946,11.703122 -10.43849,12.7388 -11.64512,31.91942 -2.87695,45.76172 4.78382,7.552243 12.46647,12.676723 22.96875,15.320313 l 0,-0.002 c 1.375,0.34611 6.59488,0.42012 11.59961,0.16406 10.49265,-0.53687 17.7092,-3.51126 23.82227,-9.818363 l 4.06445,-4.1914 -5.57813,-4.57227 c -3.068,-2.514 -5.96495,-4.57031 -6.4375,-4.57031 -0.47255,0 -2.51402,1.39113 -4.53515,3.0918 -7.63612,6.42538 -18.77908,6.65311 -26.54688,0.54296 -3.65792,-2.87733 -7.35818,-9.12424 -6.13086,-10.35156 0.43091,-0.43091 12.222,-0.7832 26.20118,-0.7832 l 25.41601,0 0,-6.64844 c 0,-15.07675 -6.65025,-27.16741 -17.99805,-32.718748 -4.64575,-2.27295 -6.84066,-3.017289 -11.54882,-3.072265 z m -4.72266,13.890623 c 8.17187,-0.0703 15.51953,5.27585 15.51953,13.00586 0,1.46959 -3.0486,1.79297 -16.875,1.79297 -9.28125,0 -16.875,-0.47861 -16.875,-1.06445 0,-2.64042 6.07977,-9.76374 10.02539,-11.7461 2.66522,-1.33905 5.48112,-1.96483 8.20508,-1.98828 z"
     id="path4244"
     inkscape:connector-curvature="0" />
  <path
     style="fill:#3f95f0;fill-opacity:1"
     d="m 520.61033,0.00337061 c -1.48135,-0.0172 -3.45314,0.0313 -5.55859,0.148437 l -7.65625,0.425781 0.15234,23.11523439 c 0.0839,12.71346 -0.18144,23.450974 -0.58984,23.859374 -0.4084,0.4084 -2.28452,-0.73503 -4.16797,-2.53906 -8.01763,-7.679561 -22.24342,-9.461884 -33.42383,-4.189454 -11.52972,5.437164 -17.24018,14.911664 -17.93359,29.755854 -0.82875,17.7417 6.99361,31.171583 21.05859,36.154303 11.70534,4.14679 26.85849,0.82432 31.99414,-7.013673 2.58135,-3.93964 4.25586,-2.92364 4.25586,2.580083 l 0,4.30078 7.5,0 7.5,0 0,-52.916023 c 0,-29.104166 -0.23137,-53.15103939 -0.51562,-53.43749639 -0.14213,-0.14323 -1.13388,-0.226942 -2.61524,-0.24414 z M 489.01853,50.460397 c 3.17104,0.019 5.05219,0.66273 7.75,2.33008 5.56306,3.43816 8.81019,7.95455 10.66211,14.83203 2.61926,9.7272 -2.79784,21.71684 -11.81445,26.15235 -9.47005,4.65858 -20.03468,1.27439 -25.28125,-8.09961 -5.83751,-10.42978 -4.66922,-20.87441 3.29102,-29.40821 4.19615,-4.49848 5.48142,-5.11589 11.71484,-5.63281 1.42178,-0.1179 2.62072,-0.18017 3.67773,-0.17383 z"
     id="path4240"
     inkscape:connector-curvature="0" />
  <path
     style="fill:#2578b6;fill-opacity:1"
     d="m 218.74147,72.851107 0,-34.999995 8.75,0 8.75,0 0,3.75 c 0,4.540585 1.16029,4.712185 4.90557,0.725505 3.86055,-4.109365 8.81877,-5.973825 14.62113,-5.498045 l 4.8483,0.39754 0,8.083205 0,8.08321 -5.625,-0.30663 c -6.37465,-0.34752 -11.31813,2.2886 -15.12764,8.06683 -2.07776,3.15153 -2.35686,6.11893 -2.36412,25.13588 l -0.008,21.562503 -9.375,0 -9.375,0 0,-35.000003 z"
     id="path4234"
     inkscape:connector-curvature="0" />
</svg>
